SplineFontDB: 3.2
FontName: Younglings-Aurebeshv1
FullName: Younglings Aurebesh v1
FamilyName: Younglings
Weight: Book
Copyright: CC-0 AurekFonts
Version: 1.0
ItalicAngle: 0
UnderlinePosition: 78
UnderlineWidth: 52
Ascent: 1000
Descent: 0
InvalidEm: 0
sfntRevision: 0x00010000
LayerCount: 2
Layer: 0 1 "Back" 1
Layer: 1 1 "Fore" 0
XUID: [1021 178 1911899458 18185]
StyleMap: 0x0040
FSType: 4
OS2Version: 2
OS2_WeightWidthSlopeOnly: 0
OS2_UseTypoMetrics: 0
CreationTime: 1595656460
ModificationTime: 1595657908
PfmFamily: 81
TTFWeight: 400
TTFWidth: 5
LineGap: 0
VLineGap: 0
Panose: 0 0 4 0 0 0 0 0 0 0
OS2TypoAscent: 999
OS2TypoAOffset: 0
OS2TypoDescent: -55
OS2TypoDOffset: 0
OS2TypoLinegap: 0
OS2WinAscent: 999
OS2WinAOffset: 0
OS2WinDescent: 55
OS2WinDOffset: 0
HheadAscent: 999
HheadAOffset: 0
HheadDescent: -55
HheadDOffset: 0
OS2SubXSize: 527
OS2SubYSize: 527
OS2SubXOff: 0
OS2SubYOff: -27
OS2SupXSize: 527
OS2SupYSize: 527
OS2SupXOff: 0
OS2SupYOff: 527
OS2StrikeYSize: 53
OS2StrikeYPos: 211
OS2CapHeight: 999
OS2XHeight: 999
OS2Vendor: 'FSTR'
OS2CodePages: 00000001.00000000
OS2UnicodeRanges: 80000001.00000000.00000000.00000000
MarkAttachClasses: 1
DEI: 91125
ShortTable: maxp 16
  1
  0
  80
  644
  57
  0
  0
  2
  0
  0
  0
  0
  0
  0
  0
  0
EndShort
LangName: 1033 "" "" "Aurebesh v1" "Younglings:Aurebesh:1" "" "Version 1.0" "" "" "" "Ender Smith, AurekFonts" "" "" "" "Creative Commons CC0 Public Domain Dedication"
Encoding: UnicodeBmp
UnicodeInterp: none
NameList: AGL For New Fonts
DisplaySize: -72
AntiAlias: 1
FitToEm: 0
WinInfo: 0 25 10
BeginPrivate: 0
EndPrivate
BeginChars: 65539 80

StartChar: .notdef
Encoding: 65536 -1 0
Width: 443
VWidth: 1081
Flags: W
HStem: 0 27<0 444> 426 11<355 366> 452 11<188 200> 468 10<244 255> 493 11<22 33 300 311 410 422> 519 11<77 89> 529 11<133 144> 971 27<0 444>
VStem: 22 11<493 504> 77 12<519 530> 133 11<529 540> 188 12<452 463> 244 11<468 478> 300 11<493 504> 355 11<426 437> 410 12<493 504>
LayerCount: 2
Fore
SplineSet
0 971 m 1,0,-1
 0 998 l 1,1,-1
 444 998 l 1,2,-1
 444 971 l 1,3,-1
 0 971 l 1,0,-1
410 493 m 1,4,-1
 410 504 l 1,5,-1
 422 504 l 1,6,-1
 422 493 l 1,7,-1
 410 493 l 1,4,-1
355 426 m 1,8,-1
 355 437 l 1,9,-1
 366 437 l 1,10,-1
 366 426 l 1,11,-1
 355 426 l 1,8,-1
300 493 m 1,12,-1
 300 504 l 1,13,-1
 311 504 l 1,14,-1
 311 493 l 1,15,-1
 300 493 l 1,12,-1
244 468 m 1,16,-1
 244 478 l 1,17,-1
 255 478 l 1,18,-1
 255 468 l 1,19,-1
 244 468 l 1,16,-1
188 452 m 1,20,-1
 188 463 l 1,21,-1
 200 463 l 1,22,-1
 200 452 l 1,23,-1
 188 452 l 1,20,-1
133 529 m 1,24,-1
 133 540 l 1,25,-1
 144 540 l 1,26,-1
 144 529 l 1,27,-1
 133 529 l 1,24,-1
77 519 m 1,28,-1
 77 530 l 1,29,-1
 89 530 l 1,30,-1
 89 519 l 1,31,-1
 77 519 l 1,28,-1
22 493 m 1,32,-1
 22 504 l 1,33,-1
 33 504 l 1,34,-1
 33 493 l 1,35,-1
 22 493 l 1,32,-1
0 0 m 1,36,-1
 0 27 l 1,37,-1
 444 27 l 1,38,-1
 444 0 l 1,39,-1
 0 0 l 1,36,-1
EndSplineSet
Validated: 8388609
EndChar

StartChar: space
Encoding: 32 32 3
Width: 443
VWidth: 1081
Flags: W
HStem: 0 27<0 444> 493 11<22 33 77 89 133 144 188 200 244 255 300 311 355 366 410 422> 971 27<0 444>
VStem: 22 11<493 504> 77 12<493 504> 133 11<493 504> 188 12<493 504> 244 11<493 504> 300 11<493 504> 355 11<493 504> 410 12<493 504>
LayerCount: 2
Fore
SplineSet
0 971 m 1,0,-1
 0 998 l 1,1,-1
 444 998 l 1,2,-1
 444 971 l 1,3,-1
 0 971 l 1,0,-1
410 493 m 1,4,-1
 410 504 l 1,5,-1
 422 504 l 1,6,-1
 422 493 l 1,7,-1
 410 493 l 1,4,-1
355 493 m 1,8,-1
 355 504 l 1,9,-1
 366 504 l 1,10,-1
 366 493 l 1,11,-1
 355 493 l 1,8,-1
300 493 m 1,12,-1
 300 504 l 1,13,-1
 311 504 l 1,14,-1
 311 493 l 1,15,-1
 300 493 l 1,12,-1
244 493 m 1,16,-1
 244 504 l 1,17,-1
 255 504 l 1,18,-1
 255 493 l 1,19,-1
 244 493 l 1,16,-1
188 493 m 1,20,-1
 188 504 l 1,21,-1
 200 504 l 1,22,-1
 200 493 l 1,23,-1
 188 493 l 1,20,-1
133 493 m 1,24,-1
 133 504 l 1,25,-1
 144 504 l 1,26,-1
 144 493 l 1,27,-1
 133 493 l 1,24,-1
77 493 m 1,28,-1
 77 504 l 1,29,-1
 89 504 l 1,30,-1
 89 493 l 1,31,-1
 77 493 l 1,28,-1
22 493 m 1,32,-1
 22 504 l 1,33,-1
 33 504 l 1,34,-1
 33 493 l 1,35,-1
 22 493 l 1,32,-1
0 0 m 1,36,-1
 0 27 l 1,37,-1
 444 27 l 1,38,-1
 444 0 l 1,39,-1
 0 0 l 1,36,-1
EndSplineSet
Validated: 1
EndChar

StartChar: exclam
Encoding: 33 33 4
Width: 887
VWidth: 1081
Flags: W
HStem: 0 27<0 888> 138 56<230.251 268.749> 194 55<341.251 379.718> 249 55<452.251 490.749> 304 56<563.251 601.749> 493 11<22 33 77 89 133 144 188 200 244 255 300 311 355 366 410 422 466 477 522 532 577 588 632 644 688 699 744 754 799 810 854 866> 637 56<230.251 268.749> 693 56<341.251 379.749> 749 55<452.251 490.749> 804 55<563.251 601.749> 971 27<0 888>
VStem: 22 11<493 504> 77 12<493 504> 133 11<493 504> 188 12<493 504> 222 55<146.282 192.937 637.635 684.718> 244 11<493 504> 300 11<493 504> 333 55<202.251 240.718 701.282 748.062> 355 11<493 504> 410 12<493 504> 444 55<257.251 296.718 757.251 795.749> 466 11<493 504> 522 10<493 504> 555 55<304.635 351.749 812.282 851.749> 577 11<493 504> 632 12<493 504> 688 11<493 504> 744 10<493 504> 799 11<493 504> 854 12<493 504>
LayerCount: 2
Fore
SplineSet
0 971 m 1,0,-1
 0 998 l 1,1,-1
 888 998 l 1,2,-1
 888 971 l 1,3,-1
 0 971 l 1,0,-1
582 804 m 0,4,5
 571 804 571 804 563 812 c 128,-1,6
 555 820 555 820 555 832 c 128,-1,7
 555 844 555 844 563 852 c 128,-1,8
 571 860 571 860 582 859 c 0,9,10
 594 859 594 859 602 852 c 0,11,12
 610 844 610 844 610 832 c 0,13,14
 610 821 610 821 602 812 c 0,15,16
 594 804 594 804 582 804 c 0,4,5
472 749 m 0,17,18
 460 749 460 749 452 757 c 128,-1,19
 444 765 444 765 444 777 c 0,20,21
 444 788 444 788 452 796 c 128,-1,22
 460 804 460 804 472 804 c 0,23,24
 483 804 483 804 491 796 c 128,-1,25
 499 788 499 788 499 777 c 0,26,27
 499 765 499 765 491 757 c 128,-1,28
 483 749 483 749 472 749 c 0,17,18
360.5 693 m 128,-1,30
 349 693 349 693 341 701 c 128,-1,31
 333 709 333 709 333 721 c 0,32,33
 333 732 333 732 341 740 c 128,-1,34
 349 748 349 748 360 749 c 0,35,36
 371 749 371 749 380 740 c 0,37,38
 388 732 388 732 388 721 c 128,-1,39
 388 710 388 710 380 701 c 0,40,29
 372 693 372 693 360.5 693 c 128,-1,30
250 637 m 0,41,42
 238 637 238 637 230 646 c 0,43,44
 222 654 222 654 222 665 c 128,-1,45
 222 676 222 676 230 685 c 0,46,47
 238 693 238 693 250 693 c 0,48,49
 261 693 261 693 269 685 c 128,-1,50
 277 677 277 677 277 665 c 0,51,52
 277 654 277 654 269 646 c 0,53,54
 261 637 261 637 250 637 c 0,41,42
854 493 m 1,55,-1
 854 504 l 1,56,-1
 866 504 l 1,57,-1
 866 493 l 1,58,-1
 854 493 l 1,55,-1
799 493 m 1,59,-1
 799 504 l 1,60,-1
 810 504 l 1,61,-1
 810 493 l 1,62,-1
 799 493 l 1,59,-1
744 493 m 1,63,-1
 744 504 l 1,64,-1
 754 504 l 1,65,-1
 754 493 l 1,66,-1
 744 493 l 1,63,-1
688 493 m 1,67,-1
 688 504 l 1,68,-1
 699 504 l 1,69,-1
 699 493 l 1,70,-1
 688 493 l 1,67,-1
632 493 m 1,71,-1
 632 504 l 1,72,-1
 644 504 l 1,73,-1
 644 493 l 1,74,-1
 632 493 l 1,71,-1
577 493 m 1,75,-1
 577 504 l 1,76,-1
 588 504 l 1,77,-1
 588 493 l 1,78,-1
 577 493 l 1,75,-1
522 493 m 1,79,-1
 522 504 l 1,80,-1
 532 504 l 1,81,-1
 532 493 l 1,82,-1
 522 493 l 1,79,-1
466 493 m 1,83,-1
 466 504 l 1,84,-1
 477 504 l 1,85,-1
 477 493 l 1,86,-1
 466 493 l 1,83,-1
410 493 m 1,87,-1
 410 504 l 1,88,-1
 422 504 l 1,89,-1
 422 493 l 1,90,-1
 410 493 l 1,87,-1
355 493 m 1,91,-1
 355 504 l 1,92,-1
 366 504 l 1,93,-1
 366 493 l 1,94,-1
 355 493 l 1,91,-1
300 493 m 1,95,-1
 300 504 l 1,96,-1
 311 504 l 1,97,-1
 311 493 l 1,98,-1
 300 493 l 1,95,-1
244 493 m 1,99,-1
 244 504 l 1,100,-1
 255 504 l 1,101,-1
 255 493 l 1,102,-1
 244 493 l 1,99,-1
188 493 m 1,103,-1
 188 504 l 1,104,-1
 200 504 l 1,105,-1
 200 493 l 1,106,-1
 188 493 l 1,103,-1
133 493 m 1,107,-1
 133 504 l 1,108,-1
 144 504 l 1,109,-1
 144 493 l 1,110,-1
 133 493 l 1,107,-1
77 493 m 1,111,-1
 77 504 l 1,112,-1
 89 504 l 1,113,-1
 89 493 l 1,114,-1
 77 493 l 1,111,-1
22 493 m 1,115,-1
 22 504 l 1,116,-1
 33 504 l 1,117,-1
 33 493 l 1,118,-1
 22 493 l 1,115,-1
582 304 m 0,119,120
 571 304 571 304 563 313 c 0,121,122
 555 321 555 321 555 332 c 0,123,124
 555 344 555 344 563 352 c 128,-1,125
 571 360 571 360 582 360 c 0,126,127
 594 360 594 360 602 352 c 128,-1,128
 610 344 610 344 610 332 c 0,129,130
 610 321 610 321 602 313 c 0,131,132
 594 304 594 304 582 304 c 0,119,120
472 249 m 0,133,134
 460 249 460 249 452 257 c 128,-1,135
 444 265 444 265 444 277 c 0,136,137
 444 288 444 288 452 297 c 0,138,139
 460 305 460 305 472 304 c 0,140,141
 483 304 483 304 491 297 c 0,142,143
 499 289 499 289 499 277 c 128,-1,144
 499 265 499 265 491 257 c 128,-1,145
 483 249 483 249 472 249 c 0,133,134
360.5 194 m 128,-1,147
 349 194 349 194 341 202 c 128,-1,148
 333 210 333 210 333 221 c 128,-1,149
 333 232 333 232 341 241 c 0,150,151
 349 249 349 249 360 249 c 128,-1,152
 371 249 371 249 380 241 c 0,153,154
 388 233 388 233 388 221 c 128,-1,155
 388 209 388 209 380 202 c 0,156,146
 372 194 372 194 360.5 194 c 128,-1,147
250 138 m 0,157,158
 238 138 238 138 230 146 c 128,-1,159
 222 154 222 154 222 166 c 0,160,161
 222 177 222 177 230 185 c 128,-1,162
 238 193 238 193 250 194 c 0,163,164
 261 194 261 194 269 185 c 0,165,166
 277 177 277 177 277 166 c 128,-1,167
 277 155 277 155 269 146 c 0,168,169
 261 138 261 138 250 138 c 0,157,158
0 0 m 1,170,-1
 0 27 l 1,171,-1
 888 27 l 1,172,-1
 888 0 l 1,173,-1
 0 0 l 1,170,-1
EndSplineSet
Validated: 8388609
EndChar

StartChar: quotedbl
Encoding: 34 34 5
Width: 610
VWidth: 1081
Flags: W
HStem: 0 27<0 610> 493 11<22 33 77 89 133 144 188 200 244 255 300 311 355 366 410 422 466 477 522 532 577 588> 582 55<396.282 435.718> 693 56<313.282 351.78 396.282 435.718> 701 48<333.374 359.295 416.343 443.295> 804 55<230.251 268.749 396.282 435.718> 971 27<0 610>
VStem: 22 11<493 504> 77 12<493 504> 133 11<493 504> 188 12<493 504> 222 55<812.282 851.749> 244 11<493 504> 300 11<493 504> 355 11<493 504> 388 56<590.282 628.749 701.282 747.937 812.282 851.749 923.282 969.937> 410 12<493 504> 466 11<493 504> 522 10<493 504> 577 11<493 504>
LayerCount: 2
Fore
SplineSet
0 971 m 1,0,-1
 0 998 l 1,1,-1
 610 998 l 1,2,-1
 610 971 l 1,3,-1
 416 971 l 1,4,5
 427 971 427 971 436 962 c 0,6,7
 444 954 444 954 444 943 c 128,-1,8
 444 932 444 932 436 923 c 0,9,10
 427 915 427 915 416 915 c 128,-1,11
 405 915 405 915 396 923 c 0,12,13
 388 931 388 931 388 943 c 0,14,15
 388 954 388 954 396 962 c 128,-1,16
 404 970 404 970 416 971 c 1,17,-1
 166 971 l 1,18,19
 177 971 177 971 186 962 c 0,20,21
 194 954 194 954 194 943 c 128,-1,22
 194 932 194 932 186 923 c 0,23,24
 178 915 178 915 166.5 915 c 128,-1,25
 155 915 155 915 147 923 c 128,-1,26
 139 931 139 931 139 943 c 0,27,28
 139 954 139 954 147 962 c 128,-1,29
 155 970 155 970 166 971 c 1,30,-1
 0 971 l 1,0,-1
416 804 m 128,-1,32
 405 804 405 804 396 812 c 0,33,34
 388 820 388 820 388 832 c 128,-1,35
 388 844 388 844 396 852 c 128,-1,36
 404 860 404 860 416 859 c 0,37,38
 427 859 427 859 436 852 c 0,39,40
 444 844 444 844 444 832 c 0,41,42
 444 821 444 821 436 812 c 0,43,31
 427 804 427 804 416 804 c 128,-1,32
250 804 m 0,44,45
 238 804 238 804 230 812 c 128,-1,46
 222 820 222 820 222 832 c 128,-1,47
 222 844 222 844 230 852 c 128,-1,48
 238 860 238 860 250 859 c 0,49,50
 261 859 261 859 269 852 c 0,51,52
 277 844 277 844 277 832 c 0,53,54
 277 821 277 821 269 812 c 0,55,56
 261 804 261 804 250 804 c 0,44,45
416 693 m 128,-1,58
 405 693 405 693 396 701 c 0,59,60
 388 709 388 709 388 721 c 0,61,62
 388 732 388 732 396 740 c 128,-1,63
 404 748 404 748 416 749 c 0,64,65
 427 749 427 749 436 740 c 0,66,67
 444 732 444 732 444 721 c 128,-1,68
 444 710 444 710 436 701 c 0,69,57
 427 693 427 693 416 693 c 128,-1,58
333 693 m 0,70,71
 322 693 322 693 313 701 c 0,72,73
 305 709 305 709 305 721 c 0,74,75
 305 732 305 732 313 740 c 128,-1,76
 321 748 321 748 333 749 c 0,77,78
 345 749 345 749 352 740 c 0,79,80
 360 732 360 732 360 721 c 128,-1,81
 360 710 360 710 352 701 c 0,82,83
 345 693 345 693 333 693 c 0,70,71
416 582 m 128,-1,85
 405 582 405 582 396 590 c 0,86,87
 388 598 388 598 388 610 c 128,-1,88
 388 622 388 622 396 629 c 0,89,90
 404 637 404 637 416 637 c 0,91,92
 427 637 427 637 436 629 c 0,93,94
 444 621 444 621 444 610 c 128,-1,95
 444 599 444 599 436 590 c 0,96,84
 427 582 427 582 416 582 c 128,-1,85
577 493 m 1,97,-1
 577 504 l 1,98,-1
 588 504 l 1,99,-1
 588 493 l 1,100,-1
 577 493 l 1,97,-1
522 493 m 1,101,-1
 522 504 l 1,102,-1
 532 504 l 1,103,-1
 532 493 l 1,104,-1
 522 493 l 1,101,-1
466 493 m 1,105,-1
 466 504 l 1,106,-1
 477 504 l 1,107,-1
 477 493 l 1,108,-1
 466 493 l 1,105,-1
410 493 m 1,109,-1
 410 504 l 1,110,-1
 422 504 l 1,111,-1
 422 493 l 1,112,-1
 410 493 l 1,109,-1
355 493 m 1,113,-1
 355 504 l 1,114,-1
 366 504 l 1,115,-1
 366 493 l 1,116,-1
 355 493 l 1,113,-1
300 493 m 1,117,-1
 300 504 l 1,118,-1
 311 504 l 1,119,-1
 311 493 l 1,120,-1
 300 493 l 1,117,-1
244 493 m 1,121,-1
 244 504 l 1,122,-1
 255 504 l 1,123,-1
 255 493 l 1,124,-1
 244 493 l 1,121,-1
188 493 m 1,125,-1
 188 504 l 1,126,-1
 200 504 l 1,127,-1
 200 493 l 1,128,-1
 188 493 l 1,125,-1
133 493 m 1,129,-1
 133 504 l 1,130,-1
 144 504 l 1,131,-1
 144 493 l 1,132,-1
 133 493 l 1,129,-1
77 493 m 1,133,-1
 77 504 l 1,134,-1
 89 504 l 1,135,-1
 89 493 l 1,136,-1
 77 493 l 1,133,-1
22 493 m 1,137,-1
 22 504 l 1,138,-1
 33 504 l 1,139,-1
 33 493 l 1,140,-1
 22 493 l 1,137,-1
0 0 m 1,141,-1
 0 27 l 1,142,-1
 610 27 l 1,143,-1
 610 0 l 1,144,-1
 0 0 l 1,141,-1
EndSplineSet
Validated: 8912901
EndChar

StartChar: dollar
Encoding: 36 36 6
Width: 1165
VWidth: 1081
Flags: W
HStem: 0 27<0 1165> 138 56<618.282 657.718> 249 55<674.251 712.749> 360 56<722.063 768.718> 471 56<785.251 823.749> 493 11<22 33 77 89 133 144 188 200 244 255 300 311 355 366 410 422 466 477 522 532 577 588 632 644 688 699 744 754 854 866 910 921 965 977 1021 1032 1077 1088 1132 1143> 582 55<341.251 379.718 563.251 601.749 840.282 879.749> 693 56<230.251 268.749 341.251 379.749 452.251 490.749 563.251 601.749 674.251 712.749 785.251 823.749 896.251 934.749> 804 55<341.251 379.718 563.251 601.749> 971 27<0 1165>
VStem: 22 11<493 504> 77 12<493 504> 133 11<493 504> 188 12<493 504> 222 55<701.282 747.937> 244 11<493 504> 300 11<493 504> 333 55<590.282 628.749 701.282 748.062 812.282 851.749> 355 11<493 504> 410 12<493 504> 444 55<701.282 747.937> 466 11<493 504> 522 10<493 504> 555 55<590.282 628.749 701.282 748.062 812.282 851.749> 577 11<493 504> 610 56<146.282 192.937> 632 12<493 504> 666 55<257.251 296.718 701.282 747.937> 688 11<493 504> 721 56<368.282 414.789> 744 10<493 504> 777 55<479.251 518.718 701.282 748.062> 832 56<590.282 628.749> 854 12<493 504> 888 55<701.282 747.937> 910 11<493 504> 965 12<493 504> 1021 11<493 504> 1077 11<493 504> 1132 11<493 504>
LayerCount: 2
Fore
SplineSet
0 971 m 1,0,-1
 0 998 l 1,1,-1
 1165 998 l 1,2,-1
 1165 971 l 1,3,-1
 0 971 l 1,0,-1
582 804 m 0,4,5
 571 804 571 804 563 812 c 128,-1,6
 555 820 555 820 555 832 c 128,-1,7
 555 844 555 844 563 852 c 128,-1,8
 571 860 571 860 582 859 c 0,9,10
 594 859 594 859 602 852 c 0,11,12
 610 844 610 844 610 832 c 0,13,14
 610 821 610 821 602 812 c 0,15,16
 594 804 594 804 582 804 c 0,4,5
360.5 804 m 128,-1,18
 349 804 349 804 341 812 c 128,-1,19
 333 820 333 820 333 832 c 128,-1,20
 333 844 333 844 341 852 c 128,-1,21
 349 860 349 860 360 859 c 0,22,23
 371 859 371 859 380 852 c 0,24,25
 388 844 388 844 388 832 c 0,26,27
 388 821 388 821 380 812 c 0,28,17
 372 804 372 804 360.5 804 c 128,-1,18
915.5 693 m 128,-1,30
 904 693 904 693 896 701 c 128,-1,31
 888 709 888 709 888 721 c 0,32,33
 888 732 888 732 896 740 c 128,-1,34
 904 748 904 748 916 749 c 0,35,36
 927 749 927 749 935 740 c 0,37,38
 943 732 943 732 943 721 c 128,-1,39
 943 710 943 710 935 701 c 0,40,29
 927 693 927 693 915.5 693 c 128,-1,30
804 693 m 0,41,42
 793 693 793 693 785 701 c 128,-1,43
 777 709 777 709 777 721 c 0,44,45
 777 732 777 732 785 740 c 128,-1,46
 793 748 793 748 804 749 c 0,47,48
 816 749 816 749 824 740 c 0,49,50
 832 732 832 732 832 721 c 128,-1,51
 832 710 832 710 824 701 c 0,52,53
 816 693 816 693 804 693 c 0,41,42
693.5 693 m 128,-1,55
 682 693 682 693 674 701 c 128,-1,56
 666 709 666 709 666 721 c 0,57,58
 666 732 666 732 674 740 c 128,-1,59
 682 748 682 748 694 749 c 0,60,61
 705 749 705 749 713 740 c 0,62,63
 721 732 721 732 721 721 c 128,-1,64
 721 710 721 710 713 701 c 0,65,54
 705 693 705 693 693.5 693 c 128,-1,55
582 693 m 0,66,67
 571 693 571 693 563 701 c 128,-1,68
 555 709 555 709 555 721 c 0,69,70
 555 732 555 732 563 740 c 128,-1,71
 571 748 571 748 582 749 c 0,72,73
 594 749 594 749 602 740 c 0,74,75
 610 732 610 732 610 721 c 128,-1,76
 610 710 610 710 602 701 c 0,77,78
 594 693 594 693 582 693 c 0,66,67
472 693 m 0,79,80
 460 693 460 693 452 701 c 128,-1,81
 444 709 444 709 444 721 c 0,82,83
 444 732 444 732 452 740 c 128,-1,84
 460 748 460 748 472 749 c 0,85,86
 483 749 483 749 491 740 c 0,87,88
 499 732 499 732 499 721 c 128,-1,89
 499 710 499 710 491 701 c 0,90,91
 483 693 483 693 472 693 c 0,79,80
360.5 693 m 128,-1,93
 349 693 349 693 341 701 c 128,-1,94
 333 709 333 709 333 721 c 0,95,96
 333 732 333 732 341 740 c 128,-1,97
 349 748 349 748 360 749 c 0,98,99
 371 749 371 749 380 740 c 0,100,101
 388 732 388 732 388 721 c 128,-1,102
 388 710 388 710 380 701 c 0,103,92
 372 693 372 693 360.5 693 c 128,-1,93
250 693 m 0,104,105
 238 693 238 693 230 701 c 128,-1,106
 222 709 222 709 222 721 c 0,107,108
 222 732 222 732 230 740 c 128,-1,109
 238 748 238 748 250 749 c 0,110,111
 261 749 261 749 269 740 c 0,112,113
 277 732 277 732 277 721 c 128,-1,114
 277 710 277 710 269 701 c 0,115,116
 261 693 261 693 250 693 c 0,104,105
860 582 m 0,117,118
 849 582 849 582 840 590 c 0,119,120
 832 598 832 598 832 610 c 128,-1,121
 832 622 832 622 840 629 c 0,122,123
 848 637 848 637 860 637 c 128,-1,124
 872 637 872 637 880 629 c 128,-1,125
 888 621 888 621 888 610 c 128,-1,126
 888 599 888 599 880 590 c 0,127,128
 872 582 872 582 860 582 c 0,117,118
582 582 m 0,129,130
 571 582 571 582 563 590 c 128,-1,131
 555 598 555 598 555 610 c 128,-1,132
 555 622 555 622 563 629 c 0,133,134
 571 637 571 637 582 637 c 0,135,136
 594 637 594 637 602 629 c 128,-1,137
 610 621 610 621 610 610 c 128,-1,138
 610 599 610 599 602 590 c 0,139,140
 594 582 594 582 582 582 c 0,129,130
360.5 582 m 128,-1,142
 349 582 349 582 341 590 c 128,-1,143
 333 598 333 598 333 610 c 128,-1,144
 333 622 333 622 341 629 c 0,145,146
 349 637 349 637 360 637 c 128,-1,147
 371 637 371 637 380 629 c 0,148,149
 388 621 388 621 388 610 c 128,-1,150
 388 599 388 599 380 590 c 0,151,141
 372 582 372 582 360.5 582 c 128,-1,142
804 471 m 0,152,153
 793 471 793 471 785 479 c 128,-1,154
 777 487 777 487 777 499 c 0,155,156
 777 510 777 510 785 519 c 0,157,158
 793 527 793 527 804 527 c 0,159,160
 816 527 816 527 824 519 c 128,-1,161
 832 511 832 511 832 499 c 128,-1,162
 832 487 832 487 824 479 c 128,-1,163
 816 471 816 471 804 471 c 0,152,153
1132 493 m 1,164,-1
 1132 504 l 1,165,-1
 1143 504 l 1,166,-1
 1143 493 l 1,167,-1
 1132 493 l 1,164,-1
1077 493 m 1,168,-1
 1077 504 l 1,169,-1
 1088 504 l 1,170,-1
 1088 493 l 1,171,-1
 1077 493 l 1,168,-1
1021 493 m 1,172,-1
 1021 504 l 1,173,-1
 1032 504 l 1,174,-1
 1032 493 l 1,175,-1
 1021 493 l 1,172,-1
965 493 m 1,176,-1
 965 504 l 1,177,-1
 977 504 l 1,178,-1
 977 493 l 1,179,-1
 965 493 l 1,176,-1
910 493 m 1,180,-1
 910 504 l 1,181,-1
 921 504 l 1,182,-1
 921 493 l 1,183,-1
 910 493 l 1,180,-1
854 493 m 1,184,-1
 854 504 l 1,185,-1
 866 504 l 1,186,-1
 866 493 l 1,187,-1
 854 493 l 1,184,-1
744 493 m 1,188,-1
 744 504 l 1,189,-1
 754 504 l 1,190,-1
 754 493 l 1,191,-1
 744 493 l 1,188,-1
688 493 m 1,192,-1
 688 504 l 1,193,-1
 699 504 l 1,194,-1
 699 493 l 1,195,-1
 688 493 l 1,192,-1
632 493 m 1,196,-1
 632 504 l 1,197,-1
 644 504 l 1,198,-1
 644 493 l 1,199,-1
 632 493 l 1,196,-1
577 493 m 1,200,-1
 577 504 l 1,201,-1
 588 504 l 1,202,-1
 588 493 l 1,203,-1
 577 493 l 1,200,-1
522 493 m 1,204,-1
 522 504 l 1,205,-1
 532 504 l 1,206,-1
 532 493 l 1,207,-1
 522 493 l 1,204,-1
466 493 m 1,208,-1
 466 504 l 1,209,-1
 477 504 l 1,210,-1
 477 493 l 1,211,-1
 466 493 l 1,208,-1
410 493 m 1,212,-1
 410 504 l 1,213,-1
 422 504 l 1,214,-1
 422 493 l 1,215,-1
 410 493 l 1,212,-1
355 493 m 1,216,-1
 355 504 l 1,217,-1
 366 504 l 1,218,-1
 366 493 l 1,219,-1
 355 493 l 1,216,-1
300 493 m 1,220,-1
 300 504 l 1,221,-1
 311 504 l 1,222,-1
 311 493 l 1,223,-1
 300 493 l 1,220,-1
244 493 m 1,224,-1
 244 504 l 1,225,-1
 255 504 l 1,226,-1
 255 493 l 1,227,-1
 244 493 l 1,224,-1
188 493 m 1,228,-1
 188 504 l 1,229,-1
 200 504 l 1,230,-1
 200 493 l 1,231,-1
 188 493 l 1,228,-1
133 493 m 1,232,-1
 133 504 l 1,233,-1
 144 504 l 1,234,-1
 144 493 l 1,235,-1
 133 493 l 1,232,-1
77 493 m 1,236,-1
 77 504 l 1,237,-1
 89 504 l 1,238,-1
 89 493 l 1,239,-1
 77 493 l 1,236,-1
22 493 m 1,240,-1
 22 504 l 1,241,-1
 33 504 l 1,242,-1
 33 493 l 1,243,-1
 22 493 l 1,240,-1
749 360 m 0,244,245
 737 360 737 360 730 368 c 0,246,247
 722 376 722 376 721 388 c 0,248,249
 721 399 721 399 730 407 c 0,250,251
 738 415 738 415 749 416 c 0,252,253
 760 416 760 416 769 407 c 0,254,255
 777 399 777 399 777 388 c 128,-1,256
 777 377 777 377 769 368 c 0,257,258
 760 360 760 360 749 360 c 0,244,245
693.5 249 m 128,-1,260
 682 249 682 249 674 257 c 128,-1,261
 666 265 666 265 666 277 c 0,262,263
 666 288 666 288 674 297 c 0,264,265
 682 305 682 305 694 304 c 0,266,267
 705 304 705 304 713 297 c 0,268,269
 721 289 721 289 721 277 c 128,-1,270
 721 265 721 265 713 257 c 128,-1,259
 705 249 705 249 693.5 249 c 128,-1,260
638 138 m 128,-1,272
 627 138 627 138 618 146 c 0,273,274
 610 154 610 154 610 166 c 0,275,276
 610 177 610 177 618 185 c 128,-1,277
 626 193 626 193 638 194 c 0,278,279
 649 194 649 194 658 185 c 0,280,281
 666 177 666 177 666 166 c 128,-1,282
 666 155 666 155 658 146 c 0,283,271
 649 138 649 138 638 138 c 128,-1,272
0 0 m 1,284,-1
 0 27 l 1,285,-1
 1165 27 l 1,286,-1
 1165 0 l 1,287,-1
 0 0 l 1,284,-1
EndSplineSet
Validated: 8388609
EndChar

StartChar: quotesingle
Encoding: 39 39 7
Width: 499
VWidth: 1081
Flags: W
HStem: 0 27<0 499> 493 11<22 33 77 89 133 144 188 200 244 255 300 311 355 366 410 422 466 477> 582 55<167.063 213.718> 693 56<167.063 213.718> 804 55<167.063 213.718> 971 27<0 499>
VStem: 22 11<493 504> 77 12<493 504> 133 11<493 504> 166 56<590.282 628.749 701.282 747.789 812.282 851.749 923.282 969.789> 188 12<493 504> 244 11<493 504> 277 56<923.251 969.937> 300 11<493 504> 355 11<493 504> 410 12<493 504> 466 11<493 504>
LayerCount: 2
Fore
SplineSet
0 971 m 1,0,-1
 0 998 l 1,1,-1
 499 998 l 1,2,-1
 499 971 l 1,3,-1
 305 971 l 1,4,5
 317 971 317 971 324 962 c 0,6,7
 332 954 332 954 333 943 c 0,8,9
 333 932 333 932 324 923 c 0,10,11
 317 915 317 915 305 915 c 0,12,13
 294 915 294 915 285 923 c 0,14,15
 277 931 277 931 277 943 c 0,16,17
 277 954 277 954 285 962 c 128,-1,18
 293 970 293 970 305 971 c 1,19,-1
 194 971 l 1,20,21
 205 971 205 971 214 962 c 0,22,23
 222 954 222 954 222 943 c 128,-1,24
 222 932 222 932 214 923 c 0,25,26
 205 915 205 915 194 915 c 0,27,28
 182 915 182 915 175 923 c 0,29,30
 167 931 167 931 166 943 c 0,31,32
 166 954 166 954 175 962 c 0,33,34
 183 970 183 970 194 971 c 1,35,-1
 0 971 l 1,0,-1
194 804 m 0,36,37
 182 804 182 804 175 812 c 0,38,39
 167 820 167 820 166 832 c 0,40,41
 166 844 166 844 175 852 c 0,42,43
 183 860 183 860 194 859 c 0,44,45
 205 859 205 859 214 852 c 0,46,47
 222 844 222 844 222 832 c 0,48,49
 222 821 222 821 214 812 c 0,50,51
 205 804 205 804 194 804 c 0,36,37
194 693 m 0,52,53
 182 693 182 693 175 701 c 0,54,55
 167 709 167 709 166 721 c 0,56,57
 166 732 166 732 175 740 c 0,58,59
 183 748 183 748 194 749 c 0,60,61
 205 749 205 749 214 740 c 0,62,63
 222 732 222 732 222 721 c 128,-1,64
 222 710 222 710 214 701 c 0,65,66
 205 693 205 693 194 693 c 0,52,53
194 582 m 0,67,68
 182 582 182 582 175 590 c 0,69,70
 167 598 167 598 166 610 c 0,71,72
 166 622 166 622 175 629 c 0,73,74
 183 637 183 637 194 637 c 128,-1,75
 205 637 205 637 214 629 c 0,76,77
 222 621 222 621 222 610 c 128,-1,78
 222 599 222 599 214 590 c 0,79,80
 205 582 205 582 194 582 c 0,67,68
466 493 m 1,81,-1
 466 504 l 1,82,-1
 477 504 l 1,83,-1
 477 493 l 1,84,-1
 466 493 l 1,81,-1
410 493 m 1,85,-1
 410 504 l 1,86,-1
 422 504 l 1,87,-1
 422 493 l 1,88,-1
 410 493 l 1,85,-1
355 493 m 1,89,-1
 355 504 l 1,90,-1
 366 504 l 1,91,-1
 366 493 l 1,92,-1
 355 493 l 1,89,-1
300 493 m 1,93,-1
 300 504 l 1,94,-1
 311 504 l 1,95,-1
 311 493 l 1,96,-1
 300 493 l 1,93,-1
244 493 m 1,97,-1
 244 504 l 1,98,-1
 255 504 l 1,99,-1
 255 493 l 1,100,-1
 244 493 l 1,97,-1
188 493 m 1,101,-1
 188 504 l 1,102,-1
 200 504 l 1,103,-1
 200 493 l 1,104,-1
 188 493 l 1,101,-1
133 493 m 1,105,-1
 133 504 l 1,106,-1
 144 504 l 1,107,-1
 144 493 l 1,108,-1
 133 493 l 1,105,-1
77 493 m 1,109,-1
 77 504 l 1,110,-1
 89 504 l 1,111,-1
 89 493 l 1,112,-1
 77 493 l 1,109,-1
22 493 m 1,113,-1
 22 504 l 1,114,-1
 33 504 l 1,115,-1
 33 493 l 1,116,-1
 22 493 l 1,113,-1
0 0 m 1,117,-1
 0 27 l 1,118,-1
 499 27 l 1,119,-1
 499 0 l 1,120,-1
 0 0 l 1,117,-1
EndSplineSet
Validated: 8388613
EndChar

StartChar: comma
Encoding: 44 44 8
Width: 499
VWidth: 1081
Flags: W
HStem: 0 27<0 499> 138 56<230.251 268.749> 249 55<230.251 268.749> 493 11<22 33 77 89 133 144 188 200 244 255 300 311 355 366 410 422 466 477> 971 27<0 499>
VStem: 22 11<493 504> 77 12<493 504> 133 11<493 504> 188 12<493 504> 222 55<35.2817 74.749 146.282 192.937 257.251 296.718> 244 11<493 504> 300 11<493 504> 355 11<493 504> 410 12<493 504> 466 11<493 504>
LayerCount: 2
Fore
SplineSet
0 971 m 1,0,-1
 0 998 l 1,1,-1
 499 998 l 1,2,-1
 499 971 l 1,3,-1
 0 971 l 1,0,-1
466 493 m 1,4,-1
 466 504 l 1,5,-1
 477 504 l 1,6,-1
 477 493 l 1,7,-1
 466 493 l 1,4,-1
410 493 m 1,8,-1
 410 504 l 1,9,-1
 422 504 l 1,10,-1
 422 493 l 1,11,-1
 410 493 l 1,8,-1
355 493 m 1,12,-1
 355 504 l 1,13,-1
 366 504 l 1,14,-1
 366 493 l 1,15,-1
 355 493 l 1,12,-1
300 493 m 1,16,-1
 300 504 l 1,17,-1
 311 504 l 1,18,-1
 311 493 l 1,19,-1
 300 493 l 1,16,-1
244 493 m 1,20,-1
 244 504 l 1,21,-1
 255 504 l 1,22,-1
 255 493 l 1,23,-1
 244 493 l 1,20,-1
188 493 m 1,24,-1
 188 504 l 1,25,-1
 200 504 l 1,26,-1
 200 493 l 1,27,-1
 188 493 l 1,24,-1
133 493 m 1,28,-1
 133 504 l 1,29,-1
 144 504 l 1,30,-1
 144 493 l 1,31,-1
 133 493 l 1,28,-1
77 493 m 1,32,-1
 77 504 l 1,33,-1
 89 504 l 1,34,-1
 89 493 l 1,35,-1
 77 493 l 1,32,-1
22 493 m 1,36,-1
 22 504 l 1,37,-1
 33 504 l 1,38,-1
 33 493 l 1,39,-1
 22 493 l 1,36,-1
250 249 m 0,40,41
 238 249 238 249 230 257 c 128,-1,42
 222 265 222 265 222 277 c 0,43,44
 222 288 222 288 230 297 c 0,45,46
 238 305 238 305 250 304 c 0,47,48
 261 304 261 304 269 297 c 0,49,50
 277 289 277 289 277 277 c 128,-1,51
 277 265 277 265 269 257 c 128,-1,52
 261 249 261 249 250 249 c 0,40,41
250 138 m 0,53,54
 238 138 238 138 230 146 c 128,-1,55
 222 154 222 154 222 166 c 0,56,57
 222 177 222 177 230 185 c 128,-1,58
 238 193 238 193 250 194 c 0,59,60
 261 194 261 194 269 185 c 0,61,62
 277 177 277 177 277 166 c 128,-1,63
 277 155 277 155 269 146 c 0,64,65
 261 138 261 138 250 138 c 0,53,54
0 0 m 1,66,-1
 0 27 l 1,67,-1
 250 27 l 1,68,69
 238 27 238 27 230 35 c 128,-1,70
 222 43 222 43 222 55 c 128,-1,71
 222 67 222 67 230 75 c 128,-1,72
 238 83 238 83 250 82 c 0,73,74
 261 82 261 82 269 75 c 0,75,76
 277 67 277 67 277 55 c 0,77,78
 277 44 277 44 269 35 c 0,79,80
 261 27 261 27 250 27 c 1,81,-1
 499 27 l 1,82,-1
 499 0 l 1,83,-1
 0 0 l 1,66,-1
EndSplineSet
Validated: 8388613
EndChar

StartChar: period
Encoding: 46 46 9
Width: 721
VWidth: 1081
Flags: W
HStem: 0 27<0 721> 138 56<230.251 268.749 452.251 490.749> 146 48<250.343 276.295 472.343 498.295> 249 55<230.251 268.749 452.251 490.749> 493 11<22 33 77 89 133 144 188 200 244 255 300 311 355 366 410 422 466 477 522 532 577 588 632 644 688 699> 971 27<0 721>
VStem: 22 11<493 504> 77 12<493 504> 133 11<493 504> 188 12<493 504> 222 55<35.2817 74.749 146.282 192.937 257.251 296.718> 244 11<493 504> 300 11<493 504> 355 11<493 504> 410 12<493 504> 444 55<35.2817 74.749 146.282 192.937 257.251 296.718> 466 11<493 504> 522 10<493 504> 577 11<493 504> 632 12<493 504> 688 11<493 504>
LayerCount: 2
Fore
SplineSet
0 971 m 1,0,-1
 0 998 l 1,1,-1
 721 998 l 1,2,-1
 721 971 l 1,3,-1
 0 971 l 1,0,-1
688 493 m 1,4,-1
 688 504 l 1,5,-1
 699 504 l 1,6,-1
 699 493 l 1,7,-1
 688 493 l 1,4,-1
632 493 m 1,8,-1
 632 504 l 1,9,-1
 644 504 l 1,10,-1
 644 493 l 1,11,-1
 632 493 l 1,8,-1
577 493 m 1,12,-1
 577 504 l 1,13,-1
 588 504 l 1,14,-1
 588 493 l 1,15,-1
 577 493 l 1,12,-1
522 493 m 1,16,-1
 522 504 l 1,17,-1
 532 504 l 1,18,-1
 532 493 l 1,19,-1
 522 493 l 1,16,-1
466 493 m 1,20,-1
 466 504 l 1,21,-1
 477 504 l 1,22,-1
 477 493 l 1,23,-1
 466 493 l 1,20,-1
410 493 m 1,24,-1
 410 504 l 1,25,-1
 422 504 l 1,26,-1
 422 493 l 1,27,-1
 410 493 l 1,24,-1
355 493 m 1,28,-1
 355 504 l 1,29,-1
 366 504 l 1,30,-1
 366 493 l 1,31,-1
 355 493 l 1,28,-1
300 493 m 1,32,-1
 300 504 l 1,33,-1
 311 504 l 1,34,-1
 311 493 l 1,35,-1
 300 493 l 1,32,-1
244 493 m 1,36,-1
 244 504 l 1,37,-1
 255 504 l 1,38,-1
 255 493 l 1,39,-1
 244 493 l 1,36,-1
188 493 m 1,40,-1
 188 504 l 1,41,-1
 200 504 l 1,42,-1
 200 493 l 1,43,-1
 188 493 l 1,40,-1
133 493 m 1,44,-1
 133 504 l 1,45,-1
 144 504 l 1,46,-1
 144 493 l 1,47,-1
 133 493 l 1,44,-1
77 493 m 1,48,-1
 77 504 l 1,49,-1
 89 504 l 1,50,-1
 89 493 l 1,51,-1
 77 493 l 1,48,-1
22 493 m 1,52,-1
 22 504 l 1,53,-1
 33 504 l 1,54,-1
 33 493 l 1,55,-1
 22 493 l 1,52,-1
472 249 m 0,56,57
 460 249 460 249 452 257 c 128,-1,58
 444 265 444 265 444 277 c 0,59,60
 444 288 444 288 452 297 c 0,61,62
 460 305 460 305 472 304 c 0,63,64
 483 304 483 304 491 297 c 0,65,66
 499 289 499 289 499 277 c 128,-1,67
 499 265 499 265 491 257 c 128,-1,68
 483 249 483 249 472 249 c 0,56,57
250 249 m 0,69,70
 238 249 238 249 230 257 c 128,-1,71
 222 265 222 265 222 277 c 0,72,73
 222 288 222 288 230 297 c 0,74,75
 238 305 238 305 250 304 c 0,76,77
 261 304 261 304 269 297 c 0,78,79
 277 289 277 289 277 277 c 128,-1,80
 277 265 277 265 269 257 c 128,-1,81
 261 249 261 249 250 249 c 0,69,70
472 138 m 0,82,83
 460 138 460 138 452 146 c 128,-1,84
 444 154 444 154 444 166 c 0,85,86
 444 177 444 177 452 185 c 128,-1,87
 460 193 460 193 472 194 c 0,88,89
 483 194 483 194 491 185 c 0,90,91
 499 177 499 177 499 166 c 128,-1,92
 499 155 499 155 491 146 c 0,93,94
 483 138 483 138 472 138 c 0,82,83
250 138 m 0,95,96
 238 138 238 138 230 146 c 128,-1,97
 222 154 222 154 222 166 c 0,98,99
 222 177 222 177 230 185 c 128,-1,100
 238 193 238 193 250 194 c 0,101,102
 261 194 261 194 269 185 c 0,103,104
 277 177 277 177 277 166 c 128,-1,105
 277 155 277 155 269 146 c 0,106,107
 261 138 261 138 250 138 c 0,95,96
0 0 m 1,108,-1
 0 27 l 1,109,-1
 250 27 l 1,110,111
 238 27 238 27 230 35 c 128,-1,112
 222 43 222 43 222 55 c 128,-1,113
 222 67 222 67 230 75 c 128,-1,114
 238 83 238 83 250 82 c 0,115,116
 261 82 261 82 269 75 c 0,117,118
 277 67 277 67 277 55 c 0,119,120
 277 44 277 44 269 35 c 0,121,122
 261 27 261 27 250 27 c 1,123,-1
 472 27 l 1,124,125
 460 27 460 27 452 35 c 128,-1,126
 444 43 444 43 444 55 c 128,-1,127
 444 67 444 67 452 75 c 128,-1,128
 460 83 460 83 472 82 c 0,129,130
 483 82 483 82 491 75 c 0,131,132
 499 67 499 67 499 55 c 0,133,134
 499 44 499 44 491 35 c 0,135,136
 483 27 483 27 472 27 c 1,137,-1
 721 27 l 1,138,-1
 721 0 l 1,139,-1
 0 0 l 1,108,-1
EndSplineSet
Validated: 8912901
EndChar

StartChar: zero
Encoding: 48 48 10
Width: 1165
VWidth: 1081
Flags: W
HStem: 0 27<0 1165> 138 56<230.251 268.749 896.251 934.749> 146 48<250.343 276.295 915.859 942.295> 249 55<230.251 268.749 896.251 934.749> 360 56<230.251 268.749 563.251 601.749 896.251 934.749> 471 56<230.251 268.749 563.251 601.749 896.251 934.749> 493 11<22 33 77 89 133 144 188 200 300 311 355 366 410 422 466 477 522 532 632 644 688 699 744 754 799 810 854 866 965 977 1021 1032 1077 1088 1132 1143> 582 55<230.251 268.749 563.251 601.749 896.251 934.749> 693 56<230.251 268.749 896.251 934.749> 701 48<250.343 276.295 915.859 942.295> 804 55<230.251 268.749 896.251 934.749> 971 27<0 1165>
VStem: 22 11<493 504> 77 12<493 504> 133 11<493 504> 188 12<493 504> 222 55<35.2817 74.749 146.282 192.937 257.251 296.718 368.282 414.937 479.251 518.718 590.282 636.436 701.282 747.937 812.282 851.749 923.282 969.937> 300 11<493 504> 333 55<35.2817 74.749 923.282 970.062> 355 11<493 504> 410 12<493 504> 444 55<35.2817 74.749 923.282 969.937> 466 11<493 504> 522 10<493 504> 555 55<35.2817 74.749 368.282 415.062 479.251 518.718 590.282 628.749 923.282 970.062> 632 12<493 504> 666 55<35.2817 74.749 923.282 969.937> 688 11<493 504> 744 10<493 504> 777 55<35.2817 74.749 923.282 970.062> 799 11<493 504> 854 12<493 504> 888 55<35.2817 74.749 146.282 192.937 257.251 296.718 368.282 414.937 479.251 518.718 590.282 636.436 701.282 747.937 812.282 851.749 923.282 969.937> 965 12<493 504> 1021 11<493 504> 1077 11<493 504> 1132 11<493 504>
LayerCount: 2
Fore
SplineSet
0 971 m 1,0,-1
 0 998 l 1,1,-1
 1165 998 l 1,2,-1
 1165 971 l 1,3,-1
 916 971 l 1,4,5
 927 971 927 971 935 962 c 0,6,7
 943 954 943 954 943 943 c 128,-1,8
 943 932 943 932 935 923 c 0,9,10
 927 915 927 915 915.5 915 c 128,-1,11
 904 915 904 915 896 923 c 128,-1,12
 888 931 888 931 888 943 c 0,13,14
 888 954 888 954 896 962 c 128,-1,15
 904 970 904 970 916 971 c 1,16,-1
 804 971 l 1,17,18
 816 971 816 971 824 962 c 0,19,20
 832 954 832 954 832 943 c 128,-1,21
 832 932 832 932 824 923 c 0,22,23
 816 915 816 915 804 915 c 0,24,25
 793 915 793 915 785 923 c 128,-1,26
 777 931 777 931 777 943 c 0,27,28
 777 954 777 954 785 962 c 128,-1,29
 793 970 793 970 804 971 c 1,30,-1
 694 971 l 1,31,32
 705 971 705 971 713 962 c 0,33,34
 721 954 721 954 721 943 c 128,-1,35
 721 932 721 932 713 923 c 0,36,37
 705 915 705 915 693.5 915 c 128,-1,38
 682 915 682 915 674 923 c 128,-1,39
 666 931 666 931 666 943 c 0,40,41
 666 954 666 954 674 962 c 128,-1,42
 682 970 682 970 694 971 c 1,43,-1
 582 971 l 1,44,45
 594 971 594 971 602 962 c 0,46,47
 610 954 610 954 610 943 c 128,-1,48
 610 932 610 932 602 923 c 0,49,50
 594 915 594 915 582 915 c 0,51,52
 571 915 571 915 563 923 c 128,-1,53
 555 931 555 931 555 943 c 0,54,55
 555 954 555 954 563 962 c 128,-1,56
 571 970 571 970 582 971 c 1,57,-1
 472 971 l 1,58,59
 483 971 483 971 491 962 c 0,60,61
 499 954 499 954 499 943 c 128,-1,62
 499 932 499 932 491 923 c 0,63,64
 483 915 483 915 472 915 c 0,65,66
 460 915 460 915 452 923 c 128,-1,67
 444 931 444 931 444 943 c 0,68,69
 444 954 444 954 452 962 c 128,-1,70
 460 970 460 970 472 971 c 1,71,-1
 360 971 l 1,72,73
 371 971 371 971 380 962 c 0,74,75
 388 954 388 954 388 943 c 128,-1,76
 388 932 388 932 380 923 c 0,77,78
 372 915 372 915 360.5 915 c 128,-1,79
 349 915 349 915 341 923 c 128,-1,80
 333 931 333 931 333 943 c 0,81,82
 333 954 333 954 341 962 c 128,-1,83
 349 970 349 970 360 971 c 1,84,-1
 250 971 l 1,85,86
 261 971 261 971 269 962 c 0,87,88
 277 954 277 954 277 943 c 128,-1,89
 277 932 277 932 269 923 c 0,90,91
 261 915 261 915 250 915 c 0,92,93
 238 915 238 915 230 923 c 128,-1,94
 222 931 222 931 222 943 c 0,95,96
 222 954 222 954 230 962 c 128,-1,97
 238 970 238 970 250 971 c 1,98,-1
 0 971 l 1,0,-1
915.5 804 m 128,-1,100
 904 804 904 804 896 812 c 128,-1,101
 888 820 888 820 888 832 c 128,-1,102
 888 844 888 844 896 852 c 128,-1,103
 904 860 904 860 916 859 c 0,104,105
 927 859 927 859 935 852 c 0,106,107
 943 844 943 844 943 832 c 0,108,109
 943 821 943 821 935 812 c 0,110,99
 927 804 927 804 915.5 804 c 128,-1,100
250 804 m 0,111,112
 238 804 238 804 230 812 c 128,-1,113
 222 820 222 820 222 832 c 128,-1,114
 222 844 222 844 230 852 c 128,-1,115
 238 860 238 860 250 859 c 0,116,117
 261 859 261 859 269 852 c 0,118,119
 277 844 277 844 277 832 c 0,120,121
 277 821 277 821 269 812 c 0,122,123
 261 804 261 804 250 804 c 0,111,112
915.5 693 m 128,-1,125
 904 693 904 693 896 701 c 128,-1,126
 888 709 888 709 888 721 c 0,127,128
 888 732 888 732 896 740 c 128,-1,129
 904 748 904 748 916 749 c 0,130,131
 927 749 927 749 935 740 c 0,132,133
 943 732 943 732 943 721 c 128,-1,134
 943 710 943 710 935 701 c 0,135,124
 927 693 927 693 915.5 693 c 128,-1,125
250 693 m 0,136,137
 238 693 238 693 230 701 c 128,-1,138
 222 709 222 709 222 721 c 0,139,140
 222 732 222 732 230 740 c 128,-1,141
 238 748 238 748 250 749 c 0,142,143
 261 749 261 749 269 740 c 0,144,145
 277 732 277 732 277 721 c 128,-1,146
 277 710 277 710 269 701 c 0,147,148
 261 693 261 693 250 693 c 0,136,137
915.5 582 m 128,-1,150
 904 582 904 582 896 590 c 128,-1,151
 888 598 888 598 888 610 c 128,-1,152
 888 622 888 622 896 629 c 0,153,154
 904 637 904 637 916 637 c 0,155,156
 927 637 927 637 935 629 c 128,-1,157
 943 621 943 621 943 610 c 128,-1,158
 943 599 943 599 935 590 c 0,159,149
 927 582 927 582 915.5 582 c 128,-1,150
582 582 m 0,160,161
 571 582 571 582 563 590 c 128,-1,162
 555 598 555 598 555 610 c 128,-1,163
 555 622 555 622 563 629 c 0,164,165
 571 637 571 637 582 637 c 0,166,167
 594 637 594 637 602 629 c 128,-1,168
 610 621 610 621 610 610 c 128,-1,169
 610 599 610 599 602 590 c 0,170,171
 594 582 594 582 582 582 c 0,160,161
250 582 m 0,172,173
 238 582 238 582 230 590 c 128,-1,174
 222 598 222 598 222 610 c 128,-1,175
 222 622 222 622 230 629 c 0,176,177
 238 637 238 637 250 637 c 0,178,179
 261 637 261 637 269 629 c 128,-1,180
 277 621 277 621 277 610 c 128,-1,181
 277 599 277 599 269 590 c 0,182,183
 261 582 261 582 250 582 c 0,172,173
915.5 471 m 128,-1,185
 904 471 904 471 896 479 c 128,-1,186
 888 487 888 487 888 499 c 0,187,188
 888 510 888 510 896 519 c 0,189,190
 904 527 904 527 916 527 c 0,191,192
 927 527 927 527 935 519 c 128,-1,193
 943 511 943 511 943 499 c 128,-1,194
 943 487 943 487 935 479 c 128,-1,184
 927 471 927 471 915.5 471 c 128,-1,185
582 471 m 0,195,196
 571 471 571 471 563 479 c 128,-1,197
 555 487 555 487 555 499 c 0,198,199
 555 510 555 510 563 519 c 0,200,201
 571 527 571 527 582 527 c 0,202,203
 594 527 594 527 602 519 c 128,-1,204
 610 511 610 511 610 499 c 128,-1,205
 610 487 610 487 602 479 c 128,-1,206
 594 471 594 471 582 471 c 0,195,196
250 471 m 0,207,208
 238 471 238 471 230 479 c 128,-1,209
 222 487 222 487 222 499 c 0,210,211
 222 510 222 510 230 519 c 0,212,213
 238 527 238 527 250 527 c 0,214,215
 261 527 261 527 269 519 c 128,-1,216
 277 511 277 511 277 499 c 128,-1,217
 277 487 277 487 269 479 c 128,-1,218
 261 471 261 471 250 471 c 0,207,208
1132 493 m 1,219,-1
 1132 504 l 1,220,-1
 1143 504 l 1,221,-1
 1143 493 l 1,222,-1
 1132 493 l 1,219,-1
1077 493 m 1,223,-1
 1077 504 l 1,224,-1
 1088 504 l 1,225,-1
 1088 493 l 1,226,-1
 1077 493 l 1,223,-1
1021 493 m 1,227,-1
 1021 504 l 1,228,-1
 1032 504 l 1,229,-1
 1032 493 l 1,230,-1
 1021 493 l 1,227,-1
965 493 m 1,231,-1
 965 504 l 1,232,-1
 977 504 l 1,233,-1
 977 493 l 1,234,-1
 965 493 l 1,231,-1
854 493 m 1,235,-1
 854 504 l 1,236,-1
 866 504 l 1,237,-1
 866 493 l 1,238,-1
 854 493 l 1,235,-1
799 493 m 1,239,-1
 799 504 l 1,240,-1
 810 504 l 1,241,-1
 810 493 l 1,242,-1
 799 493 l 1,239,-1
744 493 m 1,243,-1
 744 504 l 1,244,-1
 754 504 l 1,245,-1
 754 493 l 1,246,-1
 744 493 l 1,243,-1
688 493 m 1,247,-1
 688 504 l 1,248,-1
 699 504 l 1,249,-1
 699 493 l 1,250,-1
 688 493 l 1,247,-1
632 493 m 1,251,-1
 632 504 l 1,252,-1
 644 504 l 1,253,-1
 644 493 l 1,254,-1
 632 493 l 1,251,-1
522 493 m 1,255,-1
 522 504 l 1,256,-1
 532 504 l 1,257,-1
 532 493 l 1,258,-1
 522 493 l 1,255,-1
466 493 m 1,259,-1
 466 504 l 1,260,-1
 477 504 l 1,261,-1
 477 493 l 1,262,-1
 466 493 l 1,259,-1
410 493 m 1,263,-1
 410 504 l 1,264,-1
 422 504 l 1,265,-1
 422 493 l 1,266,-1
 410 493 l 1,263,-1
355 493 m 1,267,-1
 355 504 l 1,268,-1
 366 504 l 1,269,-1
 366 493 l 1,270,-1
 355 493 l 1,267,-1
300 493 m 1,271,-1
 300 504 l 1,272,-1
 311 504 l 1,273,-1
 311 493 l 1,274,-1
 300 493 l 1,271,-1
188 493 m 1,275,-1
 188 504 l 1,276,-1
 200 504 l 1,277,-1
 200 493 l 1,278,-1
 188 493 l 1,275,-1
133 493 m 1,279,-1
 133 504 l 1,280,-1
 144 504 l 1,281,-1
 144 493 l 1,282,-1
 133 493 l 1,279,-1
77 493 m 1,283,-1
 77 504 l 1,284,-1
 89 504 l 1,285,-1
 89 493 l 1,286,-1
 77 493 l 1,283,-1
22 493 m 1,287,-1
 22 504 l 1,288,-1
 33 504 l 1,289,-1
 33 493 l 1,290,-1
 22 493 l 1,287,-1
915.5 360 m 128,-1,292
 904 360 904 360 896 368 c 128,-1,293
 888 376 888 376 888 388 c 0,294,295
 888 399 888 399 896 407 c 128,-1,296
 904 415 904 415 916 416 c 0,297,298
 927 416 927 416 935 407 c 0,299,300
 943 399 943 399 943 388 c 128,-1,301
 943 377 943 377 935 368 c 0,302,291
 927 360 927 360 915.5 360 c 128,-1,292
582 360 m 0,303,304
 571 360 571 360 563 368 c 128,-1,305
 555 376 555 376 555 388 c 0,306,307
 555 399 555 399 563 407 c 128,-1,308
 571 415 571 415 582 416 c 0,309,310
 594 416 594 416 602 407 c 0,311,312
 610 399 610 399 610 388 c 128,-1,313
 610 377 610 377 602 368 c 0,314,315
 594 360 594 360 582 360 c 0,303,304
250 360 m 0,316,317
 238 360 238 360 230 368 c 128,-1,318
 222 376 222 376 222 388 c 0,319,320
 222 399 222 399 230 407 c 128,-1,321
 238 415 238 415 250 416 c 0,322,323
 261 416 261 416 269 407 c 0,324,325
 277 399 277 399 277 388 c 128,-1,326
 277 377 277 377 269 368 c 0,327,328
 261 360 261 360 250 360 c 0,316,317
915.5 249 m 128,-1,330
 904 249 904 249 896 257 c 128,-1,331
 888 265 888 265 888 277 c 0,332,333
 888 288 888 288 896 297 c 0,334,335
 904 305 904 305 916 304 c 0,336,337
 927 304 927 304 935 297 c 0,338,339
 943 289 943 289 943 277 c 128,-1,340
 943 265 943 265 935 257 c 128,-1,329
 927 249 927 249 915.5 249 c 128,-1,330
250 249 m 0,341,342
 238 249 238 249 230 257 c 128,-1,343
 222 265 222 265 222 277 c 0,344,345
 222 288 222 288 230 297 c 0,346,347
 238 305 238 305 250 304 c 0,348,349
 261 304 261 304 269 297 c 0,350,351
 277 289 277 289 277 277 c 128,-1,352
 277 265 277 265 269 257 c 128,-1,353
 261 249 261 249 250 249 c 0,341,342
915.5 138 m 128,-1,355
 904 138 904 138 896 146 c 128,-1,356
 888 154 888 154 888 166 c 0,357,358
 888 177 888 177 896 185 c 128,-1,359
 904 193 904 193 916 194 c 0,360,361
 927 194 927 194 935 185 c 0,362,363
 943 177 943 177 943 166 c 128,-1,364
 943 155 943 155 935 146 c 0,365,354
 927 138 927 138 915.5 138 c 128,-1,355
250 138 m 0,366,367
 238 138 238 138 230 146 c 128,-1,368
 222 154 222 154 222 166 c 0,369,370
 222 177 222 177 230 185 c 128,-1,371
 238 193 238 193 250 194 c 0,372,373
 261 194 261 194 269 185 c 0,374,375
 277 177 277 177 277 166 c 128,-1,376
 277 155 277 155 269 146 c 0,377,378
 261 138 261 138 250 138 c 0,366,367
0 0 m 1,379,-1
 0 27 l 1,380,-1
 250 27 l 1,381,382
 238 27 238 27 230 35 c 128,-1,383
 222 43 222 43 222 55 c 128,-1,384
 222 67 222 67 230 75 c 128,-1,385
 238 83 238 83 250 82 c 0,386,387
 261 82 261 82 269 75 c 0,388,389
 277 67 277 67 277 55 c 0,390,391
 277 44 277 44 269 35 c 0,392,393
 261 27 261 27 250 27 c 1,394,-1
 360.5 27 l 1,395,396
 349 27 349 27 341 35 c 128,-1,397
 333 43 333 43 333 55 c 128,-1,398
 333 67 333 67 341 75 c 128,-1,399
 349 83 349 83 360 82 c 0,400,401
 371 82 371 82 380 75 c 0,402,403
 388 67 388 67 388 55 c 0,404,405
 388 44 388 44 380 35 c 0,406,407
 372 27 372 27 360.5 27 c 1,408,-1
 472 27 l 1,409,410
 460 27 460 27 452 35 c 128,-1,411
 444 43 444 43 444 55 c 128,-1,412
 444 67 444 67 452 75 c 128,-1,413
 460 83 460 83 472 82 c 0,414,415
 483 82 483 82 491 75 c 0,416,417
 499 67 499 67 499 55 c 0,418,419
 499 44 499 44 491 35 c 0,420,421
 483 27 483 27 472 27 c 1,422,-1
 582 27 l 1,423,424
 571 27 571 27 563 35 c 128,-1,425
 555 43 555 43 555 55 c 128,-1,426
 555 67 555 67 563 75 c 128,-1,427
 571 83 571 83 582 82 c 0,428,429
 594 82 594 82 602 75 c 0,430,431
 610 67 610 67 610 55 c 0,432,433
 610 44 610 44 602 35 c 0,434,435
 594 27 594 27 582 27 c 1,436,-1
 693.5 27 l 1,437,438
 682 27 682 27 674 35 c 128,-1,439
 666 43 666 43 666 55 c 128,-1,440
 666 67 666 67 674 75 c 128,-1,441
 682 83 682 83 694 82 c 0,442,443
 705 82 705 82 713 75 c 0,444,445
 721 67 721 67 721 55 c 0,446,447
 721 44 721 44 713 35 c 0,448,449
 705 27 705 27 693.5 27 c 1,450,-1
 804 27 l 1,451,452
 793 27 793 27 785 35 c 128,-1,453
 777 43 777 43 777 55 c 128,-1,454
 777 67 777 67 785 75 c 128,-1,455
 793 83 793 83 804 82 c 0,456,457
 816 82 816 82 824 75 c 0,458,459
 832 67 832 67 832 55 c 0,460,461
 832 44 832 44 824 35 c 0,462,463
 816 27 816 27 804 27 c 1,464,-1
 915.5 27 l 1,465,466
 904 27 904 27 896 35 c 128,-1,467
 888 43 888 43 888 55 c 128,-1,468
 888 67 888 67 896 75 c 128,-1,469
 904 83 904 83 916 82 c 0,470,471
 927 82 927 82 935 75 c 0,472,473
 943 67 943 67 943 55 c 0,474,475
 943 44 943 44 935 35 c 0,476,477
 927 27 927 27 915.5 27 c 1,478,-1
 1165 27 l 1,479,-1
 1165 0 l 1,480,-1
 0 0 l 1,379,-1
EndSplineSet
Validated: 8912901
EndChar

StartChar: one
Encoding: 49 49 11
Width: 1165
VWidth: 1081
Flags: W
HStem: 0 27<0 1165> 138 56<563.251 601.749> 249 55<563.251 601.749> 360 56<563.251 601.749> 471 56<563.251 601.749> 493 11<22 33 77 89 133 144 188 200 244 255 300 311 355 366 410 422 466 477 522 532 632 644 688 699 744 754 799 810 854 866 910 921 965 977 1021 1032 1077 1088 1132 1143> 582 55<563.251 601.749> 693 56<563.251 601.749> 804 55<563.251 601.749> 971 27<0 1165>
VStem: 22 11<493 504> 77 12<493 504> 133 11<493 504> 188 12<493 504> 222 55<35.2817 74.749 923.282 969.937> 244 11<493 504> 300 11<493 504> 333 55<35.2817 74.749 923.282 970.062> 355 11<493 504> 410 12<493 504> 444 55<35.2817 74.749 923.282 969.937> 466 11<493 504> 522 10<493 504> 555 55<35.2817 74.749 146.282 193.062 257.251 296.718 368.282 415.062 479.251 518.718 590.282 628.749 701.282 748.062 812.282 851.749 923.282 970.062> 632 12<493 504> 666 55<35.2817 74.749> 688 11<493 504> 744 10<493 504> 777 55<35.2817 74.749> 799 11<493 504> 854 12<493 504> 888 55<35.2817 74.749> 910 11<493 504> 965 12<493 504> 1021 11<493 504> 1077 11<493 504> 1132 11<493 504>
LayerCount: 2
Fore
SplineSet
0 971 m 1,0,-1
 0 998 l 1,1,-1
 1165 998 l 1,2,-1
 1165 971 l 1,3,-1
 582 971 l 1,4,5
 594 971 594 971 602 962 c 0,6,7
 610 954 610 954 610 943 c 128,-1,8
 610 932 610 932 602 923 c 0,9,10
 594 915 594 915 582 915 c 0,11,12
 571 915 571 915 563 923 c 128,-1,13
 555 931 555 931 555 943 c 0,14,15
 555 954 555 954 563 962 c 128,-1,16
 571 970 571 970 582 971 c 1,17,-1
 472 971 l 1,18,19
 483 971 483 971 491 962 c 0,20,21
 499 954 499 954 499 943 c 128,-1,22
 499 932 499 932 491 923 c 0,23,24
 483 915 483 915 472 915 c 0,25,26
 460 915 460 915 452 923 c 128,-1,27
 444 931 444 931 444 943 c 0,28,29
 444 954 444 954 452 962 c 128,-1,30
 460 970 460 970 472 971 c 1,31,-1
 360 971 l 1,32,33
 371 971 371 971 380 962 c 0,34,35
 388 954 388 954 388 943 c 128,-1,36
 388 932 388 932 380 923 c 0,37,38
 372 915 372 915 360.5 915 c 128,-1,39
 349 915 349 915 341 923 c 128,-1,40
 333 931 333 931 333 943 c 0,41,42
 333 954 333 954 341 962 c 128,-1,43
 349 970 349 970 360 971 c 1,44,-1
 250 971 l 1,45,46
 261 971 261 971 269 962 c 0,47,48
 277 954 277 954 277 943 c 128,-1,49
 277 932 277 932 269 923 c 0,50,51
 261 915 261 915 250 915 c 0,52,53
 238 915 238 915 230 923 c 128,-1,54
 222 931 222 931 222 943 c 0,55,56
 222 954 222 954 230 962 c 128,-1,57
 238 970 238 970 250 971 c 1,58,-1
 0 971 l 1,0,-1
582 804 m 0,59,60
 571 804 571 804 563 812 c 128,-1,61
 555 820 555 820 555 832 c 128,-1,62
 555 844 555 844 563 852 c 128,-1,63
 571 860 571 860 582 859 c 0,64,65
 594 859 594 859 602 852 c 0,66,67
 610 844 610 844 610 832 c 0,68,69
 610 821 610 821 602 812 c 0,70,71
 594 804 594 804 582 804 c 0,59,60
582 693 m 0,72,73
 571 693 571 693 563 701 c 128,-1,74
 555 709 555 709 555 721 c 0,75,76
 555 732 555 732 563 740 c 128,-1,77
 571 748 571 748 582 749 c 0,78,79
 594 749 594 749 602 740 c 0,80,81
 610 732 610 732 610 721 c 128,-1,82
 610 710 610 710 602 701 c 0,83,84
 594 693 594 693 582 693 c 0,72,73
582 582 m 0,85,86
 571 582 571 582 563 590 c 128,-1,87
 555 598 555 598 555 610 c 128,-1,88
 555 622 555 622 563 629 c 0,89,90
 571 637 571 637 582 637 c 0,91,92
 594 637 594 637 602 629 c 128,-1,93
 610 621 610 621 610 610 c 128,-1,94
 610 599 610 599 602 590 c 0,95,96
 594 582 594 582 582 582 c 0,85,86
582 471 m 0,97,98
 571 471 571 471 563 479 c 128,-1,99
 555 487 555 487 555 499 c 0,100,101
 555 510 555 510 563 519 c 0,102,103
 571 527 571 527 582 527 c 0,104,105
 594 527 594 527 602 519 c 128,-1,106
 610 511 610 511 610 499 c 128,-1,107
 610 487 610 487 602 479 c 128,-1,108
 594 471 594 471 582 471 c 0,97,98
1132 493 m 1,109,-1
 1132 504 l 1,110,-1
 1143 504 l 1,111,-1
 1143 493 l 1,112,-1
 1132 493 l 1,109,-1
1077 493 m 1,113,-1
 1077 504 l 1,114,-1
 1088 504 l 1,115,-1
 1088 493 l 1,116,-1
 1077 493 l 1,113,-1
1021 493 m 1,117,-1
 1021 504 l 1,118,-1
 1032 504 l 1,119,-1
 1032 493 l 1,120,-1
 1021 493 l 1,117,-1
965 493 m 1,121,-1
 965 504 l 1,122,-1
 977 504 l 1,123,-1
 977 493 l 1,124,-1
 965 493 l 1,121,-1
910 493 m 1,125,-1
 910 504 l 1,126,-1
 921 504 l 1,127,-1
 921 493 l 1,128,-1
 910 493 l 1,125,-1
854 493 m 1,129,-1
 854 504 l 1,130,-1
 866 504 l 1,131,-1
 866 493 l 1,132,-1
 854 493 l 1,129,-1
799 493 m 1,133,-1
 799 504 l 1,134,-1
 810 504 l 1,135,-1
 810 493 l 1,136,-1
 799 493 l 1,133,-1
744 493 m 1,137,-1
 744 504 l 1,138,-1
 754 504 l 1,139,-1
 754 493 l 1,140,-1
 744 493 l 1,137,-1
688 493 m 1,141,-1
 688 504 l 1,142,-1
 699 504 l 1,143,-1
 699 493 l 1,144,-1
 688 493 l 1,141,-1
632 493 m 1,145,-1
 632 504 l 1,146,-1
 644 504 l 1,147,-1
 644 493 l 1,148,-1
 632 493 l 1,145,-1
522 493 m 1,149,-1
 522 504 l 1,150,-1
 532 504 l 1,151,-1
 532 493 l 1,152,-1
 522 493 l 1,149,-1
466 493 m 1,153,-1
 466 504 l 1,154,-1
 477 504 l 1,155,-1
 477 493 l 1,156,-1
 466 493 l 1,153,-1
410 493 m 1,157,-1
 410 504 l 1,158,-1
 422 504 l 1,159,-1
 422 493 l 1,160,-1
 410 493 l 1,157,-1
355 493 m 1,161,-1
 355 504 l 1,162,-1
 366 504 l 1,163,-1
 366 493 l 1,164,-1
 355 493 l 1,161,-1
300 493 m 1,165,-1
 300 504 l 1,166,-1
 311 504 l 1,167,-1
 311 493 l 1,168,-1
 300 493 l 1,165,-1
244 493 m 1,169,-1
 244 504 l 1,170,-1
 255 504 l 1,171,-1
 255 493 l 1,172,-1
 244 493 l 1,169,-1
188 493 m 1,173,-1
 188 504 l 1,174,-1
 200 504 l 1,175,-1
 200 493 l 1,176,-1
 188 493 l 1,173,-1
133 493 m 1,177,-1
 133 504 l 1,178,-1
 144 504 l 1,179,-1
 144 493 l 1,180,-1
 133 493 l 1,177,-1
77 493 m 1,181,-1
 77 504 l 1,182,-1
 89 504 l 1,183,-1
 89 493 l 1,184,-1
 77 493 l 1,181,-1
22 493 m 1,185,-1
 22 504 l 1,186,-1
 33 504 l 1,187,-1
 33 493 l 1,188,-1
 22 493 l 1,185,-1
582 360 m 0,189,190
 571 360 571 360 563 368 c 128,-1,191
 555 376 555 376 555 388 c 0,192,193
 555 399 555 399 563 407 c 128,-1,194
 571 415 571 415 582 416 c 0,195,196
 594 416 594 416 602 407 c 0,197,198
 610 399 610 399 610 388 c 128,-1,199
 610 377 610 377 602 368 c 0,200,201
 594 360 594 360 582 360 c 0,189,190
582 249 m 0,202,203
 571 249 571 249 563 257 c 128,-1,204
 555 265 555 265 555 277 c 0,205,206
 555 288 555 288 563 297 c 0,207,208
 571 305 571 305 582 304 c 0,209,210
 594 304 594 304 602 297 c 0,211,212
 610 289 610 289 610 277 c 128,-1,213
 610 265 610 265 602 257 c 128,-1,214
 594 249 594 249 582 249 c 0,202,203
582 138 m 0,215,216
 571 138 571 138 563 146 c 128,-1,217
 555 154 555 154 555 166 c 0,218,219
 555 177 555 177 563 185 c 128,-1,220
 571 193 571 193 582 194 c 0,221,222
 594 194 594 194 602 185 c 0,223,224
 610 177 610 177 610 166 c 128,-1,225
 610 155 610 155 602 146 c 0,226,227
 594 138 594 138 582 138 c 0,215,216
0 0 m 1,228,-1
 0 27 l 1,229,-1
 250 27 l 1,230,231
 238 27 238 27 230 35 c 128,-1,232
 222 43 222 43 222 55 c 128,-1,233
 222 67 222 67 230 75 c 128,-1,234
 238 83 238 83 250 82 c 0,235,236
 261 82 261 82 269 75 c 0,237,238
 277 67 277 67 277 55 c 0,239,240
 277 44 277 44 269 35 c 0,241,242
 261 27 261 27 250 27 c 1,243,-1
 360.5 27 l 1,244,245
 349 27 349 27 341 35 c 128,-1,246
 333 43 333 43 333 55 c 128,-1,247
 333 67 333 67 341 75 c 128,-1,248
 349 83 349 83 360 82 c 0,249,250
 371 82 371 82 380 75 c 0,251,252
 388 67 388 67 388 55 c 0,253,254
 388 44 388 44 380 35 c 0,255,256
 372 27 372 27 360.5 27 c 1,257,-1
 472 27 l 1,258,259
 460 27 460 27 452 35 c 128,-1,260
 444 43 444 43 444 55 c 128,-1,261
 444 67 444 67 452 75 c 128,-1,262
 460 83 460 83 472 82 c 0,263,264
 483 82 483 82 491 75 c 0,265,266
 499 67 499 67 499 55 c 0,267,268
 499 44 499 44 491 35 c 0,269,270
 483 27 483 27 472 27 c 1,271,-1
 582 27 l 1,272,273
 571 27 571 27 563 35 c 128,-1,274
 555 43 555 43 555 55 c 128,-1,275
 555 67 555 67 563 75 c 128,-1,276
 571 83 571 83 582 82 c 0,277,278
 594 82 594 82 602 75 c 0,279,280
 610 67 610 67 610 55 c 0,281,282
 610 44 610 44 602 35 c 0,283,284
 594 27 594 27 582 27 c 1,285,-1
 693.5 27 l 1,286,287
 682 27 682 27 674 35 c 128,-1,288
 666 43 666 43 666 55 c 128,-1,289
 666 67 666 67 674 75 c 128,-1,290
 682 83 682 83 694 82 c 0,291,292
 705 82 705 82 713 75 c 0,293,294
 721 67 721 67 721 55 c 0,295,296
 721 44 721 44 713 35 c 0,297,298
 705 27 705 27 693.5 27 c 1,299,-1
 804 27 l 1,300,301
 793 27 793 27 785 35 c 128,-1,302
 777 43 777 43 777 55 c 128,-1,303
 777 67 777 67 785 75 c 128,-1,304
 793 83 793 83 804 82 c 0,305,306
 816 82 816 82 824 75 c 0,307,308
 832 67 832 67 832 55 c 0,309,310
 832 44 832 44 824 35 c 0,311,312
 816 27 816 27 804 27 c 1,313,-1
 915.5 27 l 1,314,315
 904 27 904 27 896 35 c 128,-1,316
 888 43 888 43 888 55 c 128,-1,317
 888 67 888 67 896 75 c 128,-1,318
 904 83 904 83 916 82 c 0,319,320
 927 82 927 82 935 75 c 0,321,322
 943 67 943 67 943 55 c 0,323,324
 943 44 943 44 935 35 c 0,325,326
 927 27 927 27 915.5 27 c 1,327,-1
 1165 27 l 1,328,-1
 1165 0 l 1,329,-1
 0 0 l 1,228,-1
EndSplineSet
Validated: 8912901
EndChar

StartChar: two
Encoding: 50 50 12
Width: 1165
VWidth: 1081
Flags: W
HStem: 0 27<0 1165> 471 56<230.251 268.749 341.251 379.718 452.251 490.749 563.251 601.749 674.251 712.749 785.251 823.749 896.251 934.749> 493 11<22 33 77 89 133 144 188 200 300 311 410 422 522 532 632 644 744 754 854 866 965 977 1021 1032 1077 1088 1132 1143> 582 55<896.251 934.749> 693 56<896.251 934.749> 804 55<896.251 934.749> 971 27<0 1165>
VStem: 22 11<493 504> 77 12<493 504> 133 11<493 504> 188 12<493 504> 222 55<35.2817 74.749 479.251 518.718 923.282 969.937> 300 11<493 504> 333 55<35.2817 74.749 479.251 518.718 923.282 970.062> 410 12<493 504> 444 55<35.2817 74.749 479.251 518.718 923.282 969.937> 522 10<493 504> 555 55<35.2817 74.749 479.251 518.718 923.282 970.062> 632 12<493 504> 666 55<35.2817 74.749 479.251 518.718 923.282 969.937> 744 10<493 504> 777 55<35.2817 74.749 479.251 518.718 923.282 970.062> 854 12<493 504> 888 55<35.2817 74.749 479.251 518.718 590.282 636.436 701.282 747.937 812.282 851.749 923.282 969.937> 965 12<493 504> 1021 11<493 504> 1077 11<493 504> 1132 11<493 504>
LayerCount: 2
Fore
SplineSet
0 971 m 1,0,-1
 0 998 l 1,1,-1
 1165 998 l 1,2,-1
 1165 971 l 1,3,-1
 916 971 l 1,4,5
 927 971 927 971 935 962 c 0,6,7
 943 954 943 954 943 943 c 128,-1,8
 943 932 943 932 935 923 c 0,9,10
 927 915 927 915 915.5 915 c 128,-1,11
 904 915 904 915 896 923 c 128,-1,12
 888 931 888 931 888 943 c 0,13,14
 888 954 888 954 896 962 c 128,-1,15
 904 970 904 970 916 971 c 1,16,-1
 804 971 l 1,17,18
 816 971 816 971 824 962 c 0,19,20
 832 954 832 954 832 943 c 128,-1,21
 832 932 832 932 824 923 c 0,22,23
 816 915 816 915 804 915 c 0,24,25
 793 915 793 915 785 923 c 128,-1,26
 777 931 777 931 777 943 c 0,27,28
 777 954 777 954 785 962 c 128,-1,29
 793 970 793 970 804 971 c 1,30,-1
 694 971 l 1,31,32
 705 971 705 971 713 962 c 0,33,34
 721 954 721 954 721 943 c 128,-1,35
 721 932 721 932 713 923 c 0,36,37
 705 915 705 915 693.5 915 c 128,-1,38
 682 915 682 915 674 923 c 128,-1,39
 666 931 666 931 666 943 c 0,40,41
 666 954 666 954 674 962 c 128,-1,42
 682 970 682 970 694 971 c 1,43,-1
 582 971 l 1,44,45
 594 971 594 971 602 962 c 0,46,47
 610 954 610 954 610 943 c 128,-1,48
 610 932 610 932 602 923 c 0,49,50
 594 915 594 915 582 915 c 0,51,52
 571 915 571 915 563 923 c 128,-1,53
 555 931 555 931 555 943 c 0,54,55
 555 954 555 954 563 962 c 128,-1,56
 571 970 571 970 582 971 c 1,57,-1
 472 971 l 1,58,59
 483 971 483 971 491 962 c 0,60,61
 499 954 499 954 499 943 c 128,-1,62
 499 932 499 932 491 923 c 0,63,64
 483 915 483 915 472 915 c 0,65,66
 460 915 460 915 452 923 c 128,-1,67
 444 931 444 931 444 943 c 0,68,69
 444 954 444 954 452 962 c 128,-1,70
 460 970 460 970 472 971 c 1,71,-1
 360 971 l 1,72,73
 371 971 371 971 380 962 c 0,74,75
 388 954 388 954 388 943 c 128,-1,76
 388 932 388 932 380 923 c 0,77,78
 372 915 372 915 360.5 915 c 128,-1,79
 349 915 349 915 341 923 c 128,-1,80
 333 931 333 931 333 943 c 0,81,82
 333 954 333 954 341 962 c 128,-1,83
 349 970 349 970 360 971 c 1,84,-1
 250 971 l 1,85,86
 261 971 261 971 269 962 c 0,87,88
 277 954 277 954 277 943 c 128,-1,89
 277 932 277 932 269 923 c 0,90,91
 261 915 261 915 250 915 c 0,92,93
 238 915 238 915 230 923 c 128,-1,94
 222 931 222 931 222 943 c 0,95,96
 222 954 222 954 230 962 c 128,-1,97
 238 970 238 970 250 971 c 1,98,-1
 0 971 l 1,0,-1
915.5 804 m 128,-1,100
 904 804 904 804 896 812 c 128,-1,101
 888 820 888 820 888 832 c 128,-1,102
 888 844 888 844 896 852 c 128,-1,103
 904 860 904 860 916 859 c 0,104,105
 927 859 927 859 935 852 c 0,106,107
 943 844 943 844 943 832 c 0,108,109
 943 821 943 821 935 812 c 0,110,99
 927 804 927 804 915.5 804 c 128,-1,100
915.5 693 m 128,-1,112
 904 693 904 693 896 701 c 128,-1,113
 888 709 888 709 888 721 c 0,114,115
 888 732 888 732 896 740 c 128,-1,116
 904 748 904 748 916 749 c 0,117,118
 927 749 927 749 935 740 c 0,119,120
 943 732 943 732 943 721 c 128,-1,121
 943 710 943 710 935 701 c 0,122,111
 927 693 927 693 915.5 693 c 128,-1,112
915.5 582 m 128,-1,124
 904 582 904 582 896 590 c 128,-1,125
 888 598 888 598 888 610 c 128,-1,126
 888 622 888 622 896 629 c 0,127,128
 904 637 904 637 916 637 c 0,129,130
 927 637 927 637 935 629 c 128,-1,131
 943 621 943 621 943 610 c 128,-1,132
 943 599 943 599 935 590 c 0,133,123
 927 582 927 582 915.5 582 c 128,-1,124
915.5 471 m 128,-1,135
 904 471 904 471 896 479 c 128,-1,136
 888 487 888 487 888 499 c 0,137,138
 888 510 888 510 896 519 c 0,139,140
 904 527 904 527 916 527 c 0,141,142
 927 527 927 527 935 519 c 128,-1,143
 943 511 943 511 943 499 c 128,-1,144
 943 487 943 487 935 479 c 128,-1,134
 927 471 927 471 915.5 471 c 128,-1,135
804 471 m 0,145,146
 793 471 793 471 785 479 c 128,-1,147
 777 487 777 487 777 499 c 0,148,149
 777 510 777 510 785 519 c 0,150,151
 793 527 793 527 804 527 c 0,152,153
 816 527 816 527 824 519 c 128,-1,154
 832 511 832 511 832 499 c 128,-1,155
 832 487 832 487 824 479 c 128,-1,156
 816 471 816 471 804 471 c 0,145,146
693.5 471 m 128,-1,158
 682 471 682 471 674 479 c 128,-1,159
 666 487 666 487 666 499 c 0,160,161
 666 510 666 510 674 519 c 0,162,163
 682 527 682 527 694 527 c 0,164,165
 705 527 705 527 713 519 c 128,-1,166
 721 511 721 511 721 499 c 128,-1,167
 721 487 721 487 713 479 c 128,-1,157
 705 471 705 471 693.5 471 c 128,-1,158
582 471 m 0,168,169
 571 471 571 471 563 479 c 128,-1,170
 555 487 555 487 555 499 c 0,171,172
 555 510 555 510 563 519 c 0,173,174
 571 527 571 527 582 527 c 0,175,176
 594 527 594 527 602 519 c 128,-1,177
 610 511 610 511 610 499 c 128,-1,178
 610 487 610 487 602 479 c 128,-1,179
 594 471 594 471 582 471 c 0,168,169
472 471 m 0,180,181
 460 471 460 471 452 479 c 128,-1,182
 444 487 444 487 444 499 c 0,183,184
 444 510 444 510 452 519 c 0,185,186
 460 527 460 527 472 527 c 0,187,188
 483 527 483 527 491 519 c 128,-1,189
 499 511 499 511 499 499 c 128,-1,190
 499 487 499 487 491 479 c 128,-1,191
 483 471 483 471 472 471 c 0,180,181
360.5 471 m 128,-1,193
 349 471 349 471 341 479 c 128,-1,194
 333 487 333 487 333 499 c 0,195,196
 333 510 333 510 341 519 c 0,197,198
 349 527 349 527 360 527 c 128,-1,199
 371 527 371 527 380 519 c 0,200,201
 388 511 388 511 388 499 c 128,-1,202
 388 487 388 487 380 479 c 128,-1,192
 372 471 372 471 360.5 471 c 128,-1,193
250 471 m 0,203,204
 238 471 238 471 230 479 c 128,-1,205
 222 487 222 487 222 499 c 0,206,207
 222 510 222 510 230 519 c 0,208,209
 238 527 238 527 250 527 c 0,210,211
 261 527 261 527 269 519 c 128,-1,212
 277 511 277 511 277 499 c 128,-1,213
 277 487 277 487 269 479 c 128,-1,214
 261 471 261 471 250 471 c 0,203,204
1132 493 m 1,215,-1
 1132 504 l 1,216,-1
 1143 504 l 1,217,-1
 1143 493 l 1,218,-1
 1132 493 l 1,215,-1
1077 493 m 1,219,-1
 1077 504 l 1,220,-1
 1088 504 l 1,221,-1
 1088 493 l 1,222,-1
 1077 493 l 1,219,-1
1021 493 m 1,223,-1
 1021 504 l 1,224,-1
 1032 504 l 1,225,-1
 1032 493 l 1,226,-1
 1021 493 l 1,223,-1
965 493 m 1,227,-1
 965 504 l 1,228,-1
 977 504 l 1,229,-1
 977 493 l 1,230,-1
 965 493 l 1,227,-1
854 493 m 1,231,-1
 854 504 l 1,232,-1
 866 504 l 1,233,-1
 866 493 l 1,234,-1
 854 493 l 1,231,-1
744 493 m 1,235,-1
 744 504 l 1,236,-1
 754 504 l 1,237,-1
 754 493 l 1,238,-1
 744 493 l 1,235,-1
632 493 m 1,239,-1
 632 504 l 1,240,-1
 644 504 l 1,241,-1
 644 493 l 1,242,-1
 632 493 l 1,239,-1
522 493 m 1,243,-1
 522 504 l 1,244,-1
 532 504 l 1,245,-1
 532 493 l 1,246,-1
 522 493 l 1,243,-1
410 493 m 1,247,-1
 410 504 l 1,248,-1
 422 504 l 1,249,-1
 422 493 l 1,250,-1
 410 493 l 1,247,-1
300 493 m 1,251,-1
 300 504 l 1,252,-1
 311 504 l 1,253,-1
 311 493 l 1,254,-1
 300 493 l 1,251,-1
188 493 m 1,255,-1
 188 504 l 1,256,-1
 200 504 l 1,257,-1
 200 493 l 1,258,-1
 188 493 l 1,255,-1
133 493 m 1,259,-1
 133 504 l 1,260,-1
 144 504 l 1,261,-1
 144 493 l 1,262,-1
 133 493 l 1,259,-1
77 493 m 1,263,-1
 77 504 l 1,264,-1
 89 504 l 1,265,-1
 89 493 l 1,266,-1
 77 493 l 1,263,-1
22 493 m 1,267,-1
 22 504 l 1,268,-1
 33 504 l 1,269,-1
 33 493 l 1,270,-1
 22 493 l 1,267,-1
0 0 m 1,271,-1
 0 27 l 1,272,-1
 250 27 l 1,273,274
 238 27 238 27 230 35 c 128,-1,275
 222 43 222 43 222 55 c 128,-1,276
 222 67 222 67 230 75 c 128,-1,277
 238 83 238 83 250 82 c 0,278,279
 261 82 261 82 269 75 c 0,280,281
 277 67 277 67 277 55 c 0,282,283
 277 44 277 44 269 35 c 0,284,285
 261 27 261 27 250 27 c 1,286,-1
 360.5 27 l 1,287,288
 349 27 349 27 341 35 c 128,-1,289
 333 43 333 43 333 55 c 128,-1,290
 333 67 333 67 341 75 c 128,-1,291
 349 83 349 83 360 82 c 0,292,293
 371 82 371 82 380 75 c 0,294,295
 388 67 388 67 388 55 c 0,296,297
 388 44 388 44 380 35 c 0,298,299
 372 27 372 27 360.5 27 c 1,300,-1
 472 27 l 1,301,302
 460 27 460 27 452 35 c 128,-1,303
 444 43 444 43 444 55 c 128,-1,304
 444 67 444 67 452 75 c 128,-1,305
 460 83 460 83 472 82 c 0,306,307
 483 82 483 82 491 75 c 0,308,309
 499 67 499 67 499 55 c 0,310,311
 499 44 499 44 491 35 c 0,312,313
 483 27 483 27 472 27 c 1,314,-1
 582 27 l 1,315,316
 571 27 571 27 563 35 c 128,-1,317
 555 43 555 43 555 55 c 128,-1,318
 555 67 555 67 563 75 c 128,-1,319
 571 83 571 83 582 82 c 0,320,321
 594 82 594 82 602 75 c 0,322,323
 610 67 610 67 610 55 c 0,324,325
 610 44 610 44 602 35 c 0,326,327
 594 27 594 27 582 27 c 1,328,-1
 693.5 27 l 1,329,330
 682 27 682 27 674 35 c 128,-1,331
 666 43 666 43 666 55 c 128,-1,332
 666 67 666 67 674 75 c 128,-1,333
 682 83 682 83 694 82 c 0,334,335
 705 82 705 82 713 75 c 0,336,337
 721 67 721 67 721 55 c 0,338,339
 721 44 721 44 713 35 c 0,340,341
 705 27 705 27 693.5 27 c 1,342,-1
 804 27 l 1,343,344
 793 27 793 27 785 35 c 128,-1,345
 777 43 777 43 777 55 c 128,-1,346
 777 67 777 67 785 75 c 128,-1,347
 793 83 793 83 804 82 c 0,348,349
 816 82 816 82 824 75 c 0,350,351
 832 67 832 67 832 55 c 0,352,353
 832 44 832 44 824 35 c 0,354,355
 816 27 816 27 804 27 c 1,356,-1
 915.5 27 l 1,357,358
 904 27 904 27 896 35 c 128,-1,359
 888 43 888 43 888 55 c 128,-1,360
 888 67 888 67 896 75 c 128,-1,361
 904 83 904 83 916 82 c 0,362,363
 927 82 927 82 935 75 c 0,364,365
 943 67 943 67 943 55 c 0,366,367
 943 44 943 44 935 35 c 0,368,369
 927 27 927 27 915.5 27 c 1,370,-1
 1165 27 l 1,371,-1
 1165 0 l 1,372,-1
 0 0 l 1,271,-1
EndSplineSet
Validated: 8912901
EndChar

StartChar: three
Encoding: 51 51 13
Width: 1165
VWidth: 1081
Flags: W
HStem: 0 27<0 1165> 138 56<896.251 934.749> 249 55<896.251 934.749> 360 56<896.251 934.749> 471 56<230.251 268.749 341.251 379.718 452.251 490.749 563.251 601.749 674.251 712.749 896.251 934.749> 493 11<22 33 77 89 133 144 188 200 300 311 410 422 522 532 632 644 744 754 799 810 854 866 965 977 1021 1032 1077 1088 1132 1143> 582 55<896.251 934.749> 693 56<896.251 934.749> 804 55<896.251 934.749> 971 27<0 1165>
VStem: 22 11<493 504> 77 12<493 504> 133 11<493 504> 188 12<493 504> 222 55<35.2817 74.749 479.251 518.718 923.282 969.937> 300 11<493 504> 333 55<35.2817 74.749 479.251 518.718 923.282 970.062> 410 12<493 504> 444 55<35.2817 74.749 479.251 518.718 923.282 969.937> 522 10<493 504> 555 55<35.2817 74.749 479.251 518.718 923.282 970.062> 632 12<493 504> 666 55<35.2817 74.749 479.251 518.718 923.282 969.937> 744 10<493 504> 777 55<35.2817 74.749 923.282 970.062> 799 11<493 504> 854 12<493 504> 888 55<35.2817 74.749 146.282 192.937 257.251 296.718 368.282 414.937 479.251 518.718 590.282 636.436 701.282 747.937 812.282 851.749 923.282 969.937> 965 12<493 504> 1021 11<493 504> 1077 11<493 504> 1132 11<493 504>
LayerCount: 2
Fore
SplineSet
0 971 m 1,0,-1
 0 998 l 1,1,-1
 1165 998 l 1,2,-1
 1165 971 l 1,3,-1
 916 971 l 1,4,5
 927 971 927 971 935 962 c 0,6,7
 943 954 943 954 943 943 c 128,-1,8
 943 932 943 932 935 923 c 0,9,10
 927 915 927 915 915.5 915 c 128,-1,11
 904 915 904 915 896 923 c 128,-1,12
 888 931 888 931 888 943 c 0,13,14
 888 954 888 954 896 962 c 128,-1,15
 904 970 904 970 916 971 c 1,16,-1
 804 971 l 1,17,18
 816 971 816 971 824 962 c 0,19,20
 832 954 832 954 832 943 c 128,-1,21
 832 932 832 932 824 923 c 0,22,23
 816 915 816 915 804 915 c 0,24,25
 793 915 793 915 785 923 c 128,-1,26
 777 931 777 931 777 943 c 0,27,28
 777 954 777 954 785 962 c 128,-1,29
 793 970 793 970 804 971 c 1,30,-1
 694 971 l 1,31,32
 705 971 705 971 713 962 c 0,33,34
 721 954 721 954 721 943 c 128,-1,35
 721 932 721 932 713 923 c 0,36,37
 705 915 705 915 693.5 915 c 128,-1,38
 682 915 682 915 674 923 c 128,-1,39
 666 931 666 931 666 943 c 0,40,41
 666 954 666 954 674 962 c 128,-1,42
 682 970 682 970 694 971 c 1,43,-1
 582 971 l 1,44,45
 594 971 594 971 602 962 c 0,46,47
 610 954 610 954 610 943 c 128,-1,48
 610 932 610 932 602 923 c 0,49,50
 594 915 594 915 582 915 c 0,51,52
 571 915 571 915 563 923 c 128,-1,53
 555 931 555 931 555 943 c 0,54,55
 555 954 555 954 563 962 c 128,-1,56
 571 970 571 970 582 971 c 1,57,-1
 472 971 l 1,58,59
 483 971 483 971 491 962 c 0,60,61
 499 954 499 954 499 943 c 128,-1,62
 499 932 499 932 491 923 c 0,63,64
 483 915 483 915 472 915 c 0,65,66
 460 915 460 915 452 923 c 128,-1,67
 444 931 444 931 444 943 c 0,68,69
 444 954 444 954 452 962 c 128,-1,70
 460 970 460 970 472 971 c 1,71,-1
 360 971 l 1,72,73
 371 971 371 971 380 962 c 0,74,75
 388 954 388 954 388 943 c 128,-1,76
 388 932 388 932 380 923 c 0,77,78
 372 915 372 915 360.5 915 c 128,-1,79
 349 915 349 915 341 923 c 128,-1,80
 333 931 333 931 333 943 c 0,81,82
 333 954 333 954 341 962 c 128,-1,83
 349 970 349 970 360 971 c 1,84,-1
 250 971 l 1,85,86
 261 971 261 971 269 962 c 0,87,88
 277 954 277 954 277 943 c 128,-1,89
 277 932 277 932 269 923 c 0,90,91
 261 915 261 915 250 915 c 0,92,93
 238 915 238 915 230 923 c 128,-1,94
 222 931 222 931 222 943 c 0,95,96
 222 954 222 954 230 962 c 128,-1,97
 238 970 238 970 250 971 c 1,98,-1
 0 971 l 1,0,-1
915.5 804 m 128,-1,100
 904 804 904 804 896 812 c 128,-1,101
 888 820 888 820 888 832 c 128,-1,102
 888 844 888 844 896 852 c 128,-1,103
 904 860 904 860 916 859 c 0,104,105
 927 859 927 859 935 852 c 0,106,107
 943 844 943 844 943 832 c 0,108,109
 943 821 943 821 935 812 c 0,110,99
 927 804 927 804 915.5 804 c 128,-1,100
915.5 693 m 128,-1,112
 904 693 904 693 896 701 c 128,-1,113
 888 709 888 709 888 721 c 0,114,115
 888 732 888 732 896 740 c 128,-1,116
 904 748 904 748 916 749 c 0,117,118
 927 749 927 749 935 740 c 0,119,120
 943 732 943 732 943 721 c 128,-1,121
 943 710 943 710 935 701 c 0,122,111
 927 693 927 693 915.5 693 c 128,-1,112
915.5 582 m 128,-1,124
 904 582 904 582 896 590 c 128,-1,125
 888 598 888 598 888 610 c 128,-1,126
 888 622 888 622 896 629 c 0,127,128
 904 637 904 637 916 637 c 0,129,130
 927 637 927 637 935 629 c 128,-1,131
 943 621 943 621 943 610 c 128,-1,132
 943 599 943 599 935 590 c 0,133,123
 927 582 927 582 915.5 582 c 128,-1,124
915.5 471 m 128,-1,135
 904 471 904 471 896 479 c 128,-1,136
 888 487 888 487 888 499 c 0,137,138
 888 510 888 510 896 519 c 0,139,140
 904 527 904 527 916 527 c 0,141,142
 927 527 927 527 935 519 c 128,-1,143
 943 511 943 511 943 499 c 128,-1,144
 943 487 943 487 935 479 c 128,-1,134
 927 471 927 471 915.5 471 c 128,-1,135
693.5 471 m 128,-1,146
 682 471 682 471 674 479 c 128,-1,147
 666 487 666 487 666 499 c 0,148,149
 666 510 666 510 674 519 c 0,150,151
 682 527 682 527 694 527 c 0,152,153
 705 527 705 527 713 519 c 128,-1,154
 721 511 721 511 721 499 c 128,-1,155
 721 487 721 487 713 479 c 128,-1,145
 705 471 705 471 693.5 471 c 128,-1,146
582 471 m 0,156,157
 571 471 571 471 563 479 c 128,-1,158
 555 487 555 487 555 499 c 0,159,160
 555 510 555 510 563 519 c 0,161,162
 571 527 571 527 582 527 c 0,163,164
 594 527 594 527 602 519 c 128,-1,165
 610 511 610 511 610 499 c 128,-1,166
 610 487 610 487 602 479 c 128,-1,167
 594 471 594 471 582 471 c 0,156,157
472 471 m 0,168,169
 460 471 460 471 452 479 c 128,-1,170
 444 487 444 487 444 499 c 0,171,172
 444 510 444 510 452 519 c 0,173,174
 460 527 460 527 472 527 c 0,175,176
 483 527 483 527 491 519 c 128,-1,177
 499 511 499 511 499 499 c 128,-1,178
 499 487 499 487 491 479 c 128,-1,179
 483 471 483 471 472 471 c 0,168,169
360.5 471 m 128,-1,181
 349 471 349 471 341 479 c 128,-1,182
 333 487 333 487 333 499 c 0,183,184
 333 510 333 510 341 519 c 0,185,186
 349 527 349 527 360 527 c 128,-1,187
 371 527 371 527 380 519 c 0,188,189
 388 511 388 511 388 499 c 128,-1,190
 388 487 388 487 380 479 c 128,-1,180
 372 471 372 471 360.5 471 c 128,-1,181
250 471 m 0,191,192
 238 471 238 471 230 479 c 128,-1,193
 222 487 222 487 222 499 c 0,194,195
 222 510 222 510 230 519 c 0,196,197
 238 527 238 527 250 527 c 0,198,199
 261 527 261 527 269 519 c 128,-1,200
 277 511 277 511 277 499 c 128,-1,201
 277 487 277 487 269 479 c 128,-1,202
 261 471 261 471 250 471 c 0,191,192
1132 493 m 1,203,-1
 1132 504 l 1,204,-1
 1143 504 l 1,205,-1
 1143 493 l 1,206,-1
 1132 493 l 1,203,-1
1077 493 m 1,207,-1
 1077 504 l 1,208,-1
 1088 504 l 1,209,-1
 1088 493 l 1,210,-1
 1077 493 l 1,207,-1
1021 493 m 1,211,-1
 1021 504 l 1,212,-1
 1032 504 l 1,213,-1
 1032 493 l 1,214,-1
 1021 493 l 1,211,-1
965 493 m 1,215,-1
 965 504 l 1,216,-1
 977 504 l 1,217,-1
 977 493 l 1,218,-1
 965 493 l 1,215,-1
854 493 m 1,219,-1
 854 504 l 1,220,-1
 866 504 l 1,221,-1
 866 493 l 1,222,-1
 854 493 l 1,219,-1
799 493 m 1,223,-1
 799 504 l 1,224,-1
 810 504 l 1,225,-1
 810 493 l 1,226,-1
 799 493 l 1,223,-1
744 493 m 1,227,-1
 744 504 l 1,228,-1
 754 504 l 1,229,-1
 754 493 l 1,230,-1
 744 493 l 1,227,-1
632 493 m 1,231,-1
 632 504 l 1,232,-1
 644 504 l 1,233,-1
 644 493 l 1,234,-1
 632 493 l 1,231,-1
522 493 m 1,235,-1
 522 504 l 1,236,-1
 532 504 l 1,237,-1
 532 493 l 1,238,-1
 522 493 l 1,235,-1
410 493 m 1,239,-1
 410 504 l 1,240,-1
 422 504 l 1,241,-1
 422 493 l 1,242,-1
 410 493 l 1,239,-1
300 493 m 1,243,-1
 300 504 l 1,244,-1
 311 504 l 1,245,-1
 311 493 l 1,246,-1
 300 493 l 1,243,-1
188 493 m 1,247,-1
 188 504 l 1,248,-1
 200 504 l 1,249,-1
 200 493 l 1,250,-1
 188 493 l 1,247,-1
133 493 m 1,251,-1
 133 504 l 1,252,-1
 144 504 l 1,253,-1
 144 493 l 1,254,-1
 133 493 l 1,251,-1
77 493 m 1,255,-1
 77 504 l 1,256,-1
 89 504 l 1,257,-1
 89 493 l 1,258,-1
 77 493 l 1,255,-1
22 493 m 1,259,-1
 22 504 l 1,260,-1
 33 504 l 1,261,-1
 33 493 l 1,262,-1
 22 493 l 1,259,-1
915.5 360 m 128,-1,264
 904 360 904 360 896 368 c 128,-1,265
 888 376 888 376 888 388 c 0,266,267
 888 399 888 399 896 407 c 128,-1,268
 904 415 904 415 916 416 c 0,269,270
 927 416 927 416 935 407 c 0,271,272
 943 399 943 399 943 388 c 128,-1,273
 943 377 943 377 935 368 c 0,274,263
 927 360 927 360 915.5 360 c 128,-1,264
915.5 249 m 128,-1,276
 904 249 904 249 896 257 c 128,-1,277
 888 265 888 265 888 277 c 0,278,279
 888 288 888 288 896 297 c 0,280,281
 904 305 904 305 916 304 c 0,282,283
 927 304 927 304 935 297 c 0,284,285
 943 289 943 289 943 277 c 128,-1,286
 943 265 943 265 935 257 c 128,-1,275
 927 249 927 249 915.5 249 c 128,-1,276
915.5 138 m 128,-1,288
 904 138 904 138 896 146 c 128,-1,289
 888 154 888 154 888 166 c 0,290,291
 888 177 888 177 896 185 c 128,-1,292
 904 193 904 193 916 194 c 0,293,294
 927 194 927 194 935 185 c 0,295,296
 943 177 943 177 943 166 c 128,-1,297
 943 155 943 155 935 146 c 0,298,287
 927 138 927 138 915.5 138 c 128,-1,288
0 0 m 1,299,-1
 0 27 l 1,300,-1
 250 27 l 1,301,302
 238 27 238 27 230 35 c 128,-1,303
 222 43 222 43 222 55 c 128,-1,304
 222 67 222 67 230 75 c 128,-1,305
 238 83 238 83 250 82 c 0,306,307
 261 82 261 82 269 75 c 0,308,309
 277 67 277 67 277 55 c 0,310,311
 277 44 277 44 269 35 c 0,312,313
 261 27 261 27 250 27 c 1,314,-1
 360.5 27 l 1,315,316
 349 27 349 27 341 35 c 128,-1,317
 333 43 333 43 333 55 c 128,-1,318
 333 67 333 67 341 75 c 128,-1,319
 349 83 349 83 360 82 c 0,320,321
 371 82 371 82 380 75 c 0,322,323
 388 67 388 67 388 55 c 0,324,325
 388 44 388 44 380 35 c 0,326,327
 372 27 372 27 360.5 27 c 1,328,-1
 472 27 l 1,329,330
 460 27 460 27 452 35 c 128,-1,331
 444 43 444 43 444 55 c 128,-1,332
 444 67 444 67 452 75 c 128,-1,333
 460 83 460 83 472 82 c 0,334,335
 483 82 483 82 491 75 c 0,336,337
 499 67 499 67 499 55 c 0,338,339
 499 44 499 44 491 35 c 0,340,341
 483 27 483 27 472 27 c 1,342,-1
 582 27 l 1,343,344
 571 27 571 27 563 35 c 128,-1,345
 555 43 555 43 555 55 c 128,-1,346
 555 67 555 67 563 75 c 128,-1,347
 571 83 571 83 582 82 c 0,348,349
 594 82 594 82 602 75 c 0,350,351
 610 67 610 67 610 55 c 0,352,353
 610 44 610 44 602 35 c 0,354,355
 594 27 594 27 582 27 c 1,356,-1
 693.5 27 l 1,357,358
 682 27 682 27 674 35 c 128,-1,359
 666 43 666 43 666 55 c 128,-1,360
 666 67 666 67 674 75 c 128,-1,361
 682 83 682 83 694 82 c 0,362,363
 705 82 705 82 713 75 c 0,364,365
 721 67 721 67 721 55 c 0,366,367
 721 44 721 44 713 35 c 0,368,369
 705 27 705 27 693.5 27 c 1,370,-1
 804 27 l 1,371,372
 793 27 793 27 785 35 c 128,-1,373
 777 43 777 43 777 55 c 128,-1,374
 777 67 777 67 785 75 c 128,-1,375
 793 83 793 83 804 82 c 0,376,377
 816 82 816 82 824 75 c 0,378,379
 832 67 832 67 832 55 c 0,380,381
 832 44 832 44 824 35 c 0,382,383
 816 27 816 27 804 27 c 1,384,-1
 915.5 27 l 1,385,386
 904 27 904 27 896 35 c 128,-1,387
 888 43 888 43 888 55 c 128,-1,388
 888 67 888 67 896 75 c 128,-1,389
 904 83 904 83 916 82 c 0,390,391
 927 82 927 82 935 75 c 0,392,393
 943 67 943 67 943 55 c 0,394,395
 943 44 943 44 935 35 c 0,396,397
 927 27 927 27 915.5 27 c 1,398,-1
 1165 27 l 1,399,-1
 1165 0 l 1,400,-1
 0 0 l 1,299,-1
EndSplineSet
Validated: 8912901
EndChar

StartChar: four
Encoding: 52 52 14
Width: 1165
VWidth: 1081
Flags: W
HStem: 0 27<0 1165> 138 56<896.251 934.749> 249 55<896.251 934.749> 360 56<896.251 934.749> 471 56<230.251 268.749 341.251 379.718 452.251 490.749 563.251 601.749 674.251 712.749 785.251 823.749 896.251 934.749> 493 11<22 33 77 89 133 144 188 200 300 311 410 422 522 532 632 644 744 754 854 866 965 977 1021 1032 1077 1088 1132 1143> 582 55<230.251 268.749 896.251 934.749> 693 56<230.251 268.749 896.251 934.749> 701 48<250.343 276.295 915.859 942.295> 804 55<230.251 268.749 896.251 934.749> 971 27<0 1165>
VStem: 22 11<493 504> 77 12<493 504> 133 11<493 504> 188 12<493 504> 222 55<479.251 518.718 590.282 636.436 701.282 747.937 812.282 851.749 923.282 969.937> 300 11<493 504> 333 55<479.251 518.718> 410 12<493 504> 444 55<479.251 518.718> 522 10<493 504> 555 55<479.251 518.718> 632 12<493 504> 666 55<479.251 518.718> 744 10<493 504> 777 55<479.251 518.718> 854 12<493 504> 888 55<35.2817 74.749 146.282 192.937 257.251 296.718 368.282 414.937 479.251 518.718 590.282 636.436 701.282 747.937 812.282 851.749 923.282 969.937> 965 12<493 504> 1021 11<493 504> 1077 11<493 504> 1132 11<493 504>
LayerCount: 2
Fore
SplineSet
0 971 m 1,0,-1
 0 998 l 1,1,-1
 1165 998 l 1,2,-1
 1165 971 l 1,3,-1
 916 971 l 1,4,5
 927 971 927 971 935 962 c 0,6,7
 943 954 943 954 943 943 c 128,-1,8
 943 932 943 932 935 923 c 0,9,10
 927 915 927 915 915.5 915 c 128,-1,11
 904 915 904 915 896 923 c 128,-1,12
 888 931 888 931 888 943 c 0,13,14
 888 954 888 954 896 962 c 128,-1,15
 904 970 904 970 916 971 c 1,16,-1
 250 971 l 1,17,18
 261 971 261 971 269 962 c 0,19,20
 277 954 277 954 277 943 c 128,-1,21
 277 932 277 932 269 923 c 0,22,23
 261 915 261 915 250 915 c 0,24,25
 238 915 238 915 230 923 c 128,-1,26
 222 931 222 931 222 943 c 0,27,28
 222 954 222 954 230 962 c 128,-1,29
 238 970 238 970 250 971 c 1,30,-1
 0 971 l 1,0,-1
915.5 804 m 128,-1,32
 904 804 904 804 896 812 c 128,-1,33
 888 820 888 820 888 832 c 128,-1,34
 888 844 888 844 896 852 c 128,-1,35
 904 860 904 860 916 859 c 0,36,37
 927 859 927 859 935 852 c 0,38,39
 943 844 943 844 943 832 c 0,40,41
 943 821 943 821 935 812 c 0,42,31
 927 804 927 804 915.5 804 c 128,-1,32
250 804 m 0,43,44
 238 804 238 804 230 812 c 128,-1,45
 222 820 222 820 222 832 c 128,-1,46
 222 844 222 844 230 852 c 128,-1,47
 238 860 238 860 250 859 c 0,48,49
 261 859 261 859 269 852 c 0,50,51
 277 844 277 844 277 832 c 0,52,53
 277 821 277 821 269 812 c 0,54,55
 261 804 261 804 250 804 c 0,43,44
915.5 693 m 128,-1,57
 904 693 904 693 896 701 c 128,-1,58
 888 709 888 709 888 721 c 0,59,60
 888 732 888 732 896 740 c 128,-1,61
 904 748 904 748 916 749 c 0,62,63
 927 749 927 749 935 740 c 0,64,65
 943 732 943 732 943 721 c 128,-1,66
 943 710 943 710 935 701 c 0,67,56
 927 693 927 693 915.5 693 c 128,-1,57
250 693 m 0,68,69
 238 693 238 693 230 701 c 128,-1,70
 222 709 222 709 222 721 c 0,71,72
 222 732 222 732 230 740 c 128,-1,73
 238 748 238 748 250 749 c 0,74,75
 261 749 261 749 269 740 c 0,76,77
 277 732 277 732 277 721 c 128,-1,78
 277 710 277 710 269 701 c 0,79,80
 261 693 261 693 250 693 c 0,68,69
915.5 582 m 128,-1,82
 904 582 904 582 896 590 c 128,-1,83
 888 598 888 598 888 610 c 128,-1,84
 888 622 888 622 896 629 c 0,85,86
 904 637 904 637 916 637 c 0,87,88
 927 637 927 637 935 629 c 128,-1,89
 943 621 943 621 943 610 c 128,-1,90
 943 599 943 599 935 590 c 0,91,81
 927 582 927 582 915.5 582 c 128,-1,82
250 582 m 0,92,93
 238 582 238 582 230 590 c 128,-1,94
 222 598 222 598 222 610 c 128,-1,95
 222 622 222 622 230 629 c 0,96,97
 238 637 238 637 250 637 c 0,98,99
 261 637 261 637 269 629 c 128,-1,100
 277 621 277 621 277 610 c 128,-1,101
 277 599 277 599 269 590 c 0,102,103
 261 582 261 582 250 582 c 0,92,93
915.5 471 m 128,-1,105
 904 471 904 471 896 479 c 128,-1,106
 888 487 888 487 888 499 c 0,107,108
 888 510 888 510 896 519 c 0,109,110
 904 527 904 527 916 527 c 0,111,112
 927 527 927 527 935 519 c 128,-1,113
 943 511 943 511 943 499 c 128,-1,114
 943 487 943 487 935 479 c 128,-1,104
 927 471 927 471 915.5 471 c 128,-1,105
804 471 m 0,115,116
 793 471 793 471 785 479 c 128,-1,117
 777 487 777 487 777 499 c 0,118,119
 777 510 777 510 785 519 c 0,120,121
 793 527 793 527 804 527 c 0,122,123
 816 527 816 527 824 519 c 128,-1,124
 832 511 832 511 832 499 c 128,-1,125
 832 487 832 487 824 479 c 128,-1,126
 816 471 816 471 804 471 c 0,115,116
693.5 471 m 128,-1,128
 682 471 682 471 674 479 c 128,-1,129
 666 487 666 487 666 499 c 0,130,131
 666 510 666 510 674 519 c 0,132,133
 682 527 682 527 694 527 c 0,134,135
 705 527 705 527 713 519 c 128,-1,136
 721 511 721 511 721 499 c 128,-1,137
 721 487 721 487 713 479 c 128,-1,127
 705 471 705 471 693.5 471 c 128,-1,128
582 471 m 0,138,139
 571 471 571 471 563 479 c 128,-1,140
 555 487 555 487 555 499 c 0,141,142
 555 510 555 510 563 519 c 0,143,144
 571 527 571 527 582 527 c 0,145,146
 594 527 594 527 602 519 c 128,-1,147
 610 511 610 511 610 499 c 128,-1,148
 610 487 610 487 602 479 c 128,-1,149
 594 471 594 471 582 471 c 0,138,139
472 471 m 0,150,151
 460 471 460 471 452 479 c 128,-1,152
 444 487 444 487 444 499 c 0,153,154
 444 510 444 510 452 519 c 0,155,156
 460 527 460 527 472 527 c 0,157,158
 483 527 483 527 491 519 c 128,-1,159
 499 511 499 511 499 499 c 128,-1,160
 499 487 499 487 491 479 c 128,-1,161
 483 471 483 471 472 471 c 0,150,151
360.5 471 m 128,-1,163
 349 471 349 471 341 479 c 128,-1,164
 333 487 333 487 333 499 c 0,165,166
 333 510 333 510 341 519 c 0,167,168
 349 527 349 527 360 527 c 128,-1,169
 371 527 371 527 380 519 c 0,170,171
 388 511 388 511 388 499 c 128,-1,172
 388 487 388 487 380 479 c 128,-1,162
 372 471 372 471 360.5 471 c 128,-1,163
250 471 m 0,173,174
 238 471 238 471 230 479 c 128,-1,175
 222 487 222 487 222 499 c 0,176,177
 222 510 222 510 230 519 c 0,178,179
 238 527 238 527 250 527 c 0,180,181
 261 527 261 527 269 519 c 128,-1,182
 277 511 277 511 277 499 c 128,-1,183
 277 487 277 487 269 479 c 128,-1,184
 261 471 261 471 250 471 c 0,173,174
1132 493 m 1,185,-1
 1132 504 l 1,186,-1
 1143 504 l 1,187,-1
 1143 493 l 1,188,-1
 1132 493 l 1,185,-1
1077 493 m 1,189,-1
 1077 504 l 1,190,-1
 1088 504 l 1,191,-1
 1088 493 l 1,192,-1
 1077 493 l 1,189,-1
1021 493 m 1,193,-1
 1021 504 l 1,194,-1
 1032 504 l 1,195,-1
 1032 493 l 1,196,-1
 1021 493 l 1,193,-1
965 493 m 1,197,-1
 965 504 l 1,198,-1
 977 504 l 1,199,-1
 977 493 l 1,200,-1
 965 493 l 1,197,-1
854 493 m 1,201,-1
 854 504 l 1,202,-1
 866 504 l 1,203,-1
 866 493 l 1,204,-1
 854 493 l 1,201,-1
744 493 m 1,205,-1
 744 504 l 1,206,-1
 754 504 l 1,207,-1
 754 493 l 1,208,-1
 744 493 l 1,205,-1
632 493 m 1,209,-1
 632 504 l 1,210,-1
 644 504 l 1,211,-1
 644 493 l 1,212,-1
 632 493 l 1,209,-1
522 493 m 1,213,-1
 522 504 l 1,214,-1
 532 504 l 1,215,-1
 532 493 l 1,216,-1
 522 493 l 1,213,-1
410 493 m 1,217,-1
 410 504 l 1,218,-1
 422 504 l 1,219,-1
 422 493 l 1,220,-1
 410 493 l 1,217,-1
300 493 m 1,221,-1
 300 504 l 1,222,-1
 311 504 l 1,223,-1
 311 493 l 1,224,-1
 300 493 l 1,221,-1
188 493 m 1,225,-1
 188 504 l 1,226,-1
 200 504 l 1,227,-1
 200 493 l 1,228,-1
 188 493 l 1,225,-1
133 493 m 1,229,-1
 133 504 l 1,230,-1
 144 504 l 1,231,-1
 144 493 l 1,232,-1
 133 493 l 1,229,-1
77 493 m 1,233,-1
 77 504 l 1,234,-1
 89 504 l 1,235,-1
 89 493 l 1,236,-1
 77 493 l 1,233,-1
22 493 m 1,237,-1
 22 504 l 1,238,-1
 33 504 l 1,239,-1
 33 493 l 1,240,-1
 22 493 l 1,237,-1
915.5 360 m 128,-1,242
 904 360 904 360 896 368 c 128,-1,243
 888 376 888 376 888 388 c 0,244,245
 888 399 888 399 896 407 c 128,-1,246
 904 415 904 415 916 416 c 0,247,248
 927 416 927 416 935 407 c 0,249,250
 943 399 943 399 943 388 c 128,-1,251
 943 377 943 377 935 368 c 0,252,241
 927 360 927 360 915.5 360 c 128,-1,242
915.5 249 m 128,-1,254
 904 249 904 249 896 257 c 128,-1,255
 888 265 888 265 888 277 c 0,256,257
 888 288 888 288 896 297 c 0,258,259
 904 305 904 305 916 304 c 0,260,261
 927 304 927 304 935 297 c 0,262,263
 943 289 943 289 943 277 c 128,-1,264
 943 265 943 265 935 257 c 128,-1,253
 927 249 927 249 915.5 249 c 128,-1,254
915.5 138 m 128,-1,266
 904 138 904 138 896 146 c 128,-1,267
 888 154 888 154 888 166 c 0,268,269
 888 177 888 177 896 185 c 128,-1,270
 904 193 904 193 916 194 c 0,271,272
 927 194 927 194 935 185 c 0,273,274
 943 177 943 177 943 166 c 128,-1,275
 943 155 943 155 935 146 c 0,276,265
 927 138 927 138 915.5 138 c 128,-1,266
0 0 m 1,277,-1
 0 27 l 1,278,-1
 915.5 27 l 1,279,280
 904 27 904 27 896 35 c 128,-1,281
 888 43 888 43 888 55 c 128,-1,282
 888 67 888 67 896 75 c 128,-1,283
 904 83 904 83 916 82 c 0,284,285
 927 82 927 82 935 75 c 0,286,287
 943 67 943 67 943 55 c 0,288,289
 943 44 943 44 935 35 c 0,290,291
 927 27 927 27 915.5 27 c 1,292,-1
 1165 27 l 1,293,-1
 1165 0 l 1,294,-1
 0 0 l 1,277,-1
EndSplineSet
Validated: 8912901
EndChar

StartChar: five
Encoding: 53 53 15
Width: 1165
VWidth: 1081
Flags: W
HStem: 0 27<0 1165> 138 56<896.251 934.749> 249 55<896.251 934.749> 360 56<896.251 934.749> 471 56<230.251 268.749 341.251 379.718 452.251 490.749 563.251 601.749 674.251 712.749 785.251 823.749 896.251 934.749> 493 11<22 33 77 89 133 144 188 200 300 311 410 422 522 532 632 644 744 754 854 866 965 977 1021 1032 1077 1088 1132 1143> 971 27<0 1165>
VStem: 22 11<493 504> 77 12<493 504> 133 11<493 504> 188 12<493 504> 222 55<35.2817 74.749 479.251 518.718 923.282 969.937> 300 11<493 504> 333 55<35.2817 74.749 479.251 518.718 923.282 970.062> 410 12<493 504> 444 55<35.2817 74.749 479.251 518.718 923.282 969.937> 522 10<493 504> 555 55<35.2817 74.749 479.251 518.718 923.282 970.062> 632 12<493 504> 666 55<35.2817 74.749 479.251 518.718 923.282 969.937> 744 10<493 504> 777 55<35.2817 74.749 479.251 518.718 923.282 970.062> 854 12<493 504> 888 55<35.2817 74.749 146.282 192.937 257.251 296.718 368.282 414.937 479.251 518.718 923.282 969.937> 965 12<493 504> 1021 11<493 504> 1077 11<493 504> 1132 11<493 504>
LayerCount: 2
Fore
SplineSet
0 971 m 1,0,-1
 0 998 l 1,1,-1
 1165 998 l 1,2,-1
 1165 971 l 1,3,-1
 916 971 l 1,4,5
 927 971 927 971 935 962 c 0,6,7
 943 954 943 954 943 943 c 128,-1,8
 943 932 943 932 935 923 c 0,9,10
 927 915 927 915 915.5 915 c 128,-1,11
 904 915 904 915 896 923 c 128,-1,12
 888 931 888 931 888 943 c 0,13,14
 888 954 888 954 896 962 c 128,-1,15
 904 970 904 970 916 971 c 1,16,-1
 804 971 l 1,17,18
 816 971 816 971 824 962 c 0,19,20
 832 954 832 954 832 943 c 128,-1,21
 832 932 832 932 824 923 c 0,22,23
 816 915 816 915 804 915 c 0,24,25
 793 915 793 915 785 923 c 128,-1,26
 777 931 777 931 777 943 c 0,27,28
 777 954 777 954 785 962 c 128,-1,29
 793 970 793 970 804 971 c 1,30,-1
 694 971 l 1,31,32
 705 971 705 971 713 962 c 0,33,34
 721 954 721 954 721 943 c 128,-1,35
 721 932 721 932 713 923 c 0,36,37
 705 915 705 915 693.5 915 c 128,-1,38
 682 915 682 915 674 923 c 128,-1,39
 666 931 666 931 666 943 c 0,40,41
 666 954 666 954 674 962 c 128,-1,42
 682 970 682 970 694 971 c 1,43,-1
 582 971 l 1,44,45
 594 971 594 971 602 962 c 0,46,47
 610 954 610 954 610 943 c 128,-1,48
 610 932 610 932 602 923 c 0,49,50
 594 915 594 915 582 915 c 0,51,52
 571 915 571 915 563 923 c 128,-1,53
 555 931 555 931 555 943 c 0,54,55
 555 954 555 954 563 962 c 128,-1,56
 571 970 571 970 582 971 c 1,57,-1
 472 971 l 1,58,59
 483 971 483 971 491 962 c 0,60,61
 499 954 499 954 499 943 c 128,-1,62
 499 932 499 932 491 923 c 0,63,64
 483 915 483 915 472 915 c 0,65,66
 460 915 460 915 452 923 c 128,-1,67
 444 931 444 931 444 943 c 0,68,69
 444 954 444 954 452 962 c 128,-1,70
 460 970 460 970 472 971 c 1,71,-1
 360 971 l 1,72,73
 371 971 371 971 380 962 c 0,74,75
 388 954 388 954 388 943 c 128,-1,76
 388 932 388 932 380 923 c 0,77,78
 372 915 372 915 360.5 915 c 128,-1,79
 349 915 349 915 341 923 c 128,-1,80
 333 931 333 931 333 943 c 0,81,82
 333 954 333 954 341 962 c 128,-1,83
 349 970 349 970 360 971 c 1,84,-1
 250 971 l 1,85,86
 261 971 261 971 269 962 c 0,87,88
 277 954 277 954 277 943 c 128,-1,89
 277 932 277 932 269 923 c 0,90,91
 261 915 261 915 250 915 c 0,92,93
 238 915 238 915 230 923 c 128,-1,94
 222 931 222 931 222 943 c 0,95,96
 222 954 222 954 230 962 c 128,-1,97
 238 970 238 970 250 971 c 1,98,-1
 0 971 l 1,0,-1
915.5 471 m 128,-1,100
 904 471 904 471 896 479 c 128,-1,101
 888 487 888 487 888 499 c 0,102,103
 888 510 888 510 896 519 c 0,104,105
 904 527 904 527 916 527 c 0,106,107
 927 527 927 527 935 519 c 128,-1,108
 943 511 943 511 943 499 c 128,-1,109
 943 487 943 487 935 479 c 128,-1,99
 927 471 927 471 915.5 471 c 128,-1,100
804 471 m 0,110,111
 793 471 793 471 785 479 c 128,-1,112
 777 487 777 487 777 499 c 0,113,114
 777 510 777 510 785 519 c 0,115,116
 793 527 793 527 804 527 c 0,117,118
 816 527 816 527 824 519 c 128,-1,119
 832 511 832 511 832 499 c 128,-1,120
 832 487 832 487 824 479 c 128,-1,121
 816 471 816 471 804 471 c 0,110,111
693.5 471 m 128,-1,123
 682 471 682 471 674 479 c 128,-1,124
 666 487 666 487 666 499 c 0,125,126
 666 510 666 510 674 519 c 0,127,128
 682 527 682 527 694 527 c 0,129,130
 705 527 705 527 713 519 c 128,-1,131
 721 511 721 511 721 499 c 128,-1,132
 721 487 721 487 713 479 c 128,-1,122
 705 471 705 471 693.5 471 c 128,-1,123
582 471 m 0,133,134
 571 471 571 471 563 479 c 128,-1,135
 555 487 555 487 555 499 c 0,136,137
 555 510 555 510 563 519 c 0,138,139
 571 527 571 527 582 527 c 0,140,141
 594 527 594 527 602 519 c 128,-1,142
 610 511 610 511 610 499 c 128,-1,143
 610 487 610 487 602 479 c 128,-1,144
 594 471 594 471 582 471 c 0,133,134
472 471 m 0,145,146
 460 471 460 471 452 479 c 128,-1,147
 444 487 444 487 444 499 c 0,148,149
 444 510 444 510 452 519 c 0,150,151
 460 527 460 527 472 527 c 0,152,153
 483 527 483 527 491 519 c 128,-1,154
 499 511 499 511 499 499 c 128,-1,155
 499 487 499 487 491 479 c 128,-1,156
 483 471 483 471 472 471 c 0,145,146
360.5 471 m 128,-1,158
 349 471 349 471 341 479 c 128,-1,159
 333 487 333 487 333 499 c 0,160,161
 333 510 333 510 341 519 c 0,162,163
 349 527 349 527 360 527 c 128,-1,164
 371 527 371 527 380 519 c 0,165,166
 388 511 388 511 388 499 c 128,-1,167
 388 487 388 487 380 479 c 128,-1,157
 372 471 372 471 360.5 471 c 128,-1,158
250 471 m 0,168,169
 238 471 238 471 230 479 c 128,-1,170
 222 487 222 487 222 499 c 0,171,172
 222 510 222 510 230 519 c 0,173,174
 238 527 238 527 250 527 c 0,175,176
 261 527 261 527 269 519 c 128,-1,177
 277 511 277 511 277 499 c 128,-1,178
 277 487 277 487 269 479 c 128,-1,179
 261 471 261 471 250 471 c 0,168,169
1132 493 m 1,180,-1
 1132 504 l 1,181,-1
 1143 504 l 1,182,-1
 1143 493 l 1,183,-1
 1132 493 l 1,180,-1
1077 493 m 1,184,-1
 1077 504 l 1,185,-1
 1088 504 l 1,186,-1
 1088 493 l 1,187,-1
 1077 493 l 1,184,-1
1021 493 m 1,188,-1
 1021 504 l 1,189,-1
 1032 504 l 1,190,-1
 1032 493 l 1,191,-1
 1021 493 l 1,188,-1
965 493 m 1,192,-1
 965 504 l 1,193,-1
 977 504 l 1,194,-1
 977 493 l 1,195,-1
 965 493 l 1,192,-1
854 493 m 1,196,-1
 854 504 l 1,197,-1
 866 504 l 1,198,-1
 866 493 l 1,199,-1
 854 493 l 1,196,-1
744 493 m 1,200,-1
 744 504 l 1,201,-1
 754 504 l 1,202,-1
 754 493 l 1,203,-1
 744 493 l 1,200,-1
632 493 m 1,204,-1
 632 504 l 1,205,-1
 644 504 l 1,206,-1
 644 493 l 1,207,-1
 632 493 l 1,204,-1
522 493 m 1,208,-1
 522 504 l 1,209,-1
 532 504 l 1,210,-1
 532 493 l 1,211,-1
 522 493 l 1,208,-1
410 493 m 1,212,-1
 410 504 l 1,213,-1
 422 504 l 1,214,-1
 422 493 l 1,215,-1
 410 493 l 1,212,-1
300 493 m 1,216,-1
 300 504 l 1,217,-1
 311 504 l 1,218,-1
 311 493 l 1,219,-1
 300 493 l 1,216,-1
188 493 m 1,220,-1
 188 504 l 1,221,-1
 200 504 l 1,222,-1
 200 493 l 1,223,-1
 188 493 l 1,220,-1
133 493 m 1,224,-1
 133 504 l 1,225,-1
 144 504 l 1,226,-1
 144 493 l 1,227,-1
 133 493 l 1,224,-1
77 493 m 1,228,-1
 77 504 l 1,229,-1
 89 504 l 1,230,-1
 89 493 l 1,231,-1
 77 493 l 1,228,-1
22 493 m 1,232,-1
 22 504 l 1,233,-1
 33 504 l 1,234,-1
 33 493 l 1,235,-1
 22 493 l 1,232,-1
915.5 360 m 128,-1,237
 904 360 904 360 896 368 c 128,-1,238
 888 376 888 376 888 388 c 0,239,240
 888 399 888 399 896 407 c 128,-1,241
 904 415 904 415 916 416 c 0,242,243
 927 416 927 416 935 407 c 0,244,245
 943 399 943 399 943 388 c 128,-1,246
 943 377 943 377 935 368 c 0,247,236
 927 360 927 360 915.5 360 c 128,-1,237
915.5 249 m 128,-1,249
 904 249 904 249 896 257 c 128,-1,250
 888 265 888 265 888 277 c 0,251,252
 888 288 888 288 896 297 c 0,253,254
 904 305 904 305 916 304 c 0,255,256
 927 304 927 304 935 297 c 0,257,258
 943 289 943 289 943 277 c 128,-1,259
 943 265 943 265 935 257 c 128,-1,248
 927 249 927 249 915.5 249 c 128,-1,249
915.5 138 m 128,-1,261
 904 138 904 138 896 146 c 128,-1,262
 888 154 888 154 888 166 c 0,263,264
 888 177 888 177 896 185 c 128,-1,265
 904 193 904 193 916 194 c 0,266,267
 927 194 927 194 935 185 c 0,268,269
 943 177 943 177 943 166 c 128,-1,270
 943 155 943 155 935 146 c 0,271,260
 927 138 927 138 915.5 138 c 128,-1,261
0 0 m 1,272,-1
 0 27 l 1,273,-1
 250 27 l 1,274,275
 238 27 238 27 230 35 c 128,-1,276
 222 43 222 43 222 55 c 128,-1,277
 222 67 222 67 230 75 c 128,-1,278
 238 83 238 83 250 82 c 0,279,280
 261 82 261 82 269 75 c 0,281,282
 277 67 277 67 277 55 c 0,283,284
 277 44 277 44 269 35 c 0,285,286
 261 27 261 27 250 27 c 1,287,-1
 360.5 27 l 1,288,289
 349 27 349 27 341 35 c 128,-1,290
 333 43 333 43 333 55 c 128,-1,291
 333 67 333 67 341 75 c 128,-1,292
 349 83 349 83 360 82 c 0,293,294
 371 82 371 82 380 75 c 0,295,296
 388 67 388 67 388 55 c 0,297,298
 388 44 388 44 380 35 c 0,299,300
 372 27 372 27 360.5 27 c 1,301,-1
 472 27 l 1,302,303
 460 27 460 27 452 35 c 128,-1,304
 444 43 444 43 444 55 c 128,-1,305
 444 67 444 67 452 75 c 128,-1,306
 460 83 460 83 472 82 c 0,307,308
 483 82 483 82 491 75 c 0,309,310
 499 67 499 67 499 55 c 0,311,312
 499 44 499 44 491 35 c 0,313,314
 483 27 483 27 472 27 c 1,315,-1
 582 27 l 1,316,317
 571 27 571 27 563 35 c 128,-1,318
 555 43 555 43 555 55 c 128,-1,319
 555 67 555 67 563 75 c 128,-1,320
 571 83 571 83 582 82 c 0,321,322
 594 82 594 82 602 75 c 0,323,324
 610 67 610 67 610 55 c 0,325,326
 610 44 610 44 602 35 c 0,327,328
 594 27 594 27 582 27 c 1,329,-1
 693.5 27 l 1,330,331
 682 27 682 27 674 35 c 128,-1,332
 666 43 666 43 666 55 c 128,-1,333
 666 67 666 67 674 75 c 128,-1,334
 682 83 682 83 694 82 c 0,335,336
 705 82 705 82 713 75 c 0,337,338
 721 67 721 67 721 55 c 0,339,340
 721 44 721 44 713 35 c 0,341,342
 705 27 705 27 693.5 27 c 1,343,-1
 804 27 l 1,344,345
 793 27 793 27 785 35 c 128,-1,346
 777 43 777 43 777 55 c 128,-1,347
 777 67 777 67 785 75 c 128,-1,348
 793 83 793 83 804 82 c 0,349,350
 816 82 816 82 824 75 c 0,351,352
 832 67 832 67 832 55 c 0,353,354
 832 44 832 44 824 35 c 0,355,356
 816 27 816 27 804 27 c 1,357,-1
 915.5 27 l 1,358,359
 904 27 904 27 896 35 c 128,-1,360
 888 43 888 43 888 55 c 128,-1,361
 888 67 888 67 896 75 c 128,-1,362
 904 83 904 83 916 82 c 0,363,364
 927 82 927 82 935 75 c 0,365,366
 943 67 943 67 943 55 c 0,367,368
 943 44 943 44 935 35 c 0,369,370
 927 27 927 27 915.5 27 c 1,371,-1
 1165 27 l 1,372,-1
 1165 0 l 1,373,-1
 0 0 l 1,272,-1
EndSplineSet
Validated: 8912901
EndChar

StartChar: six
Encoding: 54 54 16
Width: 1165
VWidth: 1081
Flags: W
HStem: 0 27<0 1165> 138 56<230.251 268.749 896.251 934.749> 146 48<250.343 276.295 915.859 942.295> 249 55<230.251 268.749 896.251 934.749> 360 56<230.251 268.749 896.251 934.749> 368 48<250.343 276.295 915.859 942.295> 471 56<230.251 268.749 341.251 379.718 452.251 490.749 563.251 601.749 674.251 712.749 785.251 823.749 896.251 934.749> 493 11<22 33 77 89 133 144 188 200 300 311 410 422 522 532 632 644 744 754 854 866 965 977 1021 1032 1077 1088 1132 1143> 971 27<0 1165>
VStem: 22 11<493 504> 77 12<493 504> 133 11<493 504> 188 12<493 504> 222 55<35.2817 74.749 146.282 192.937 257.251 296.718 368.282 414.937 479.251 518.718 923.282 969.937> 300 11<493 504> 333 55<35.2817 74.749 479.251 518.718 923.282 970.062> 410 12<493 504> 444 55<35.2817 74.749 479.251 518.718 923.282 969.937> 522 10<493 504> 555 55<35.2817 74.749 479.251 518.718 923.282 970.062> 632 12<493 504> 666 55<35.2817 74.749 479.251 518.718 923.282 969.937> 744 10<493 504> 777 55<35.2817 74.749 479.251 518.718 923.282 970.062> 854 12<493 504> 888 55<35.2817 74.749 146.282 192.937 257.251 296.718 368.282 414.937 479.251 518.718 923.282 969.937> 965 12<493 504> 1021 11<493 504> 1077 11<493 504> 1132 11<493 504>
LayerCount: 2
Fore
SplineSet
0 971 m 1,0,-1
 0 998 l 1,1,-1
 1165 998 l 1,2,-1
 1165 971 l 1,3,-1
 916 971 l 1,4,5
 927 971 927 971 935 962 c 0,6,7
 943 954 943 954 943 943 c 128,-1,8
 943 932 943 932 935 923 c 0,9,10
 927 915 927 915 915.5 915 c 128,-1,11
 904 915 904 915 896 923 c 128,-1,12
 888 931 888 931 888 943 c 0,13,14
 888 954 888 954 896 962 c 128,-1,15
 904 970 904 970 916 971 c 1,16,-1
 804 971 l 1,17,18
 816 971 816 971 824 962 c 0,19,20
 832 954 832 954 832 943 c 128,-1,21
 832 932 832 932 824 923 c 0,22,23
 816 915 816 915 804 915 c 0,24,25
 793 915 793 915 785 923 c 128,-1,26
 777 931 777 931 777 943 c 0,27,28
 777 954 777 954 785 962 c 128,-1,29
 793 970 793 970 804 971 c 1,30,-1
 694 971 l 1,31,32
 705 971 705 971 713 962 c 0,33,34
 721 954 721 954 721 943 c 128,-1,35
 721 932 721 932 713 923 c 0,36,37
 705 915 705 915 693.5 915 c 128,-1,38
 682 915 682 915 674 923 c 128,-1,39
 666 931 666 931 666 943 c 0,40,41
 666 954 666 954 674 962 c 128,-1,42
 682 970 682 970 694 971 c 1,43,-1
 582 971 l 1,44,45
 594 971 594 971 602 962 c 0,46,47
 610 954 610 954 610 943 c 128,-1,48
 610 932 610 932 602 923 c 0,49,50
 594 915 594 915 582 915 c 0,51,52
 571 915 571 915 563 923 c 128,-1,53
 555 931 555 931 555 943 c 0,54,55
 555 954 555 954 563 962 c 128,-1,56
 571 970 571 970 582 971 c 1,57,-1
 472 971 l 1,58,59
 483 971 483 971 491 962 c 0,60,61
 499 954 499 954 499 943 c 128,-1,62
 499 932 499 932 491 923 c 0,63,64
 483 915 483 915 472 915 c 0,65,66
 460 915 460 915 452 923 c 128,-1,67
 444 931 444 931 444 943 c 0,68,69
 444 954 444 954 452 962 c 128,-1,70
 460 970 460 970 472 971 c 1,71,-1
 360 971 l 1,72,73
 371 971 371 971 380 962 c 0,74,75
 388 954 388 954 388 943 c 128,-1,76
 388 932 388 932 380 923 c 0,77,78
 372 915 372 915 360.5 915 c 128,-1,79
 349 915 349 915 341 923 c 128,-1,80
 333 931 333 931 333 943 c 0,81,82
 333 954 333 954 341 962 c 128,-1,83
 349 970 349 970 360 971 c 1,84,-1
 250 971 l 1,85,86
 261 971 261 971 269 962 c 0,87,88
 277 954 277 954 277 943 c 128,-1,89
 277 932 277 932 269 923 c 0,90,91
 261 915 261 915 250 915 c 0,92,93
 238 915 238 915 230 923 c 128,-1,94
 222 931 222 931 222 943 c 0,95,96
 222 954 222 954 230 962 c 128,-1,97
 238 970 238 970 250 971 c 1,98,-1
 0 971 l 1,0,-1
915.5 471 m 128,-1,100
 904 471 904 471 896 479 c 128,-1,101
 888 487 888 487 888 499 c 0,102,103
 888 510 888 510 896 519 c 0,104,105
 904 527 904 527 916 527 c 0,106,107
 927 527 927 527 935 519 c 128,-1,108
 943 511 943 511 943 499 c 128,-1,109
 943 487 943 487 935 479 c 128,-1,99
 927 471 927 471 915.5 471 c 128,-1,100
804 471 m 0,110,111
 793 471 793 471 785 479 c 128,-1,112
 777 487 777 487 777 499 c 0,113,114
 777 510 777 510 785 519 c 0,115,116
 793 527 793 527 804 527 c 0,117,118
 816 527 816 527 824 519 c 128,-1,119
 832 511 832 511 832 499 c 128,-1,120
 832 487 832 487 824 479 c 128,-1,121
 816 471 816 471 804 471 c 0,110,111
693.5 471 m 128,-1,123
 682 471 682 471 674 479 c 128,-1,124
 666 487 666 487 666 499 c 0,125,126
 666 510 666 510 674 519 c 0,127,128
 682 527 682 527 694 527 c 0,129,130
 705 527 705 527 713 519 c 128,-1,131
 721 511 721 511 721 499 c 128,-1,132
 721 487 721 487 713 479 c 128,-1,122
 705 471 705 471 693.5 471 c 128,-1,123
582 471 m 0,133,134
 571 471 571 471 563 479 c 128,-1,135
 555 487 555 487 555 499 c 0,136,137
 555 510 555 510 563 519 c 0,138,139
 571 527 571 527 582 527 c 0,140,141
 594 527 594 527 602 519 c 128,-1,142
 610 511 610 511 610 499 c 128,-1,143
 610 487 610 487 602 479 c 128,-1,144
 594 471 594 471 582 471 c 0,133,134
472 471 m 0,145,146
 460 471 460 471 452 479 c 128,-1,147
 444 487 444 487 444 499 c 0,148,149
 444 510 444 510 452 519 c 0,150,151
 460 527 460 527 472 527 c 0,152,153
 483 527 483 527 491 519 c 128,-1,154
 499 511 499 511 499 499 c 128,-1,155
 499 487 499 487 491 479 c 128,-1,156
 483 471 483 471 472 471 c 0,145,146
360.5 471 m 128,-1,158
 349 471 349 471 341 479 c 128,-1,159
 333 487 333 487 333 499 c 0,160,161
 333 510 333 510 341 519 c 0,162,163
 349 527 349 527 360 527 c 128,-1,164
 371 527 371 527 380 519 c 0,165,166
 388 511 388 511 388 499 c 128,-1,167
 388 487 388 487 380 479 c 128,-1,157
 372 471 372 471 360.5 471 c 128,-1,158
250 471 m 0,168,169
 238 471 238 471 230 479 c 128,-1,170
 222 487 222 487 222 499 c 0,171,172
 222 510 222 510 230 519 c 0,173,174
 238 527 238 527 250 527 c 0,175,176
 261 527 261 527 269 519 c 128,-1,177
 277 511 277 511 277 499 c 128,-1,178
 277 487 277 487 269 479 c 128,-1,179
 261 471 261 471 250 471 c 0,168,169
1132 493 m 1,180,-1
 1132 504 l 1,181,-1
 1143 504 l 1,182,-1
 1143 493 l 1,183,-1
 1132 493 l 1,180,-1
1077 493 m 1,184,-1
 1077 504 l 1,185,-1
 1088 504 l 1,186,-1
 1088 493 l 1,187,-1
 1077 493 l 1,184,-1
1021 493 m 1,188,-1
 1021 504 l 1,189,-1
 1032 504 l 1,190,-1
 1032 493 l 1,191,-1
 1021 493 l 1,188,-1
965 493 m 1,192,-1
 965 504 l 1,193,-1
 977 504 l 1,194,-1
 977 493 l 1,195,-1
 965 493 l 1,192,-1
854 493 m 1,196,-1
 854 504 l 1,197,-1
 866 504 l 1,198,-1
 866 493 l 1,199,-1
 854 493 l 1,196,-1
744 493 m 1,200,-1
 744 504 l 1,201,-1
 754 504 l 1,202,-1
 754 493 l 1,203,-1
 744 493 l 1,200,-1
632 493 m 1,204,-1
 632 504 l 1,205,-1
 644 504 l 1,206,-1
 644 493 l 1,207,-1
 632 493 l 1,204,-1
522 493 m 1,208,-1
 522 504 l 1,209,-1
 532 504 l 1,210,-1
 532 493 l 1,211,-1
 522 493 l 1,208,-1
410 493 m 1,212,-1
 410 504 l 1,213,-1
 422 504 l 1,214,-1
 422 493 l 1,215,-1
 410 493 l 1,212,-1
300 493 m 1,216,-1
 300 504 l 1,217,-1
 311 504 l 1,218,-1
 311 493 l 1,219,-1
 300 493 l 1,216,-1
188 493 m 1,220,-1
 188 504 l 1,221,-1
 200 504 l 1,222,-1
 200 493 l 1,223,-1
 188 493 l 1,220,-1
133 493 m 1,224,-1
 133 504 l 1,225,-1
 144 504 l 1,226,-1
 144 493 l 1,227,-1
 133 493 l 1,224,-1
77 493 m 1,228,-1
 77 504 l 1,229,-1
 89 504 l 1,230,-1
 89 493 l 1,231,-1
 77 493 l 1,228,-1
22 493 m 1,232,-1
 22 504 l 1,233,-1
 33 504 l 1,234,-1
 33 493 l 1,235,-1
 22 493 l 1,232,-1
915.5 360 m 128,-1,237
 904 360 904 360 896 368 c 128,-1,238
 888 376 888 376 888 388 c 0,239,240
 888 399 888 399 896 407 c 128,-1,241
 904 415 904 415 916 416 c 0,242,243
 927 416 927 416 935 407 c 0,244,245
 943 399 943 399 943 388 c 128,-1,246
 943 377 943 377 935 368 c 0,247,236
 927 360 927 360 915.5 360 c 128,-1,237
250 360 m 0,248,249
 238 360 238 360 230 368 c 128,-1,250
 222 376 222 376 222 388 c 0,251,252
 222 399 222 399 230 407 c 128,-1,253
 238 415 238 415 250 416 c 0,254,255
 261 416 261 416 269 407 c 0,256,257
 277 399 277 399 277 388 c 128,-1,258
 277 377 277 377 269 368 c 0,259,260
 261 360 261 360 250 360 c 0,248,249
915.5 249 m 128,-1,262
 904 249 904 249 896 257 c 128,-1,263
 888 265 888 265 888 277 c 0,264,265
 888 288 888 288 896 297 c 0,266,267
 904 305 904 305 916 304 c 0,268,269
 927 304 927 304 935 297 c 0,270,271
 943 289 943 289 943 277 c 128,-1,272
 943 265 943 265 935 257 c 128,-1,261
 927 249 927 249 915.5 249 c 128,-1,262
250 249 m 0,273,274
 238 249 238 249 230 257 c 128,-1,275
 222 265 222 265 222 277 c 0,276,277
 222 288 222 288 230 297 c 0,278,279
 238 305 238 305 250 304 c 0,280,281
 261 304 261 304 269 297 c 0,282,283
 277 289 277 289 277 277 c 128,-1,284
 277 265 277 265 269 257 c 128,-1,285
 261 249 261 249 250 249 c 0,273,274
915.5 138 m 128,-1,287
 904 138 904 138 896 146 c 128,-1,288
 888 154 888 154 888 166 c 0,289,290
 888 177 888 177 896 185 c 128,-1,291
 904 193 904 193 916 194 c 0,292,293
 927 194 927 194 935 185 c 0,294,295
 943 177 943 177 943 166 c 128,-1,296
 943 155 943 155 935 146 c 0,297,286
 927 138 927 138 915.5 138 c 128,-1,287
250 138 m 0,298,299
 238 138 238 138 230 146 c 128,-1,300
 222 154 222 154 222 166 c 0,301,302
 222 177 222 177 230 185 c 128,-1,303
 238 193 238 193 250 194 c 0,304,305
 261 194 261 194 269 185 c 0,306,307
 277 177 277 177 277 166 c 128,-1,308
 277 155 277 155 269 146 c 0,309,310
 261 138 261 138 250 138 c 0,298,299
0 0 m 1,311,-1
 0 27 l 1,312,-1
 250 27 l 1,313,314
 238 27 238 27 230 35 c 128,-1,315
 222 43 222 43 222 55 c 128,-1,316
 222 67 222 67 230 75 c 128,-1,317
 238 83 238 83 250 82 c 0,318,319
 261 82 261 82 269 75 c 0,320,321
 277 67 277 67 277 55 c 0,322,323
 277 44 277 44 269 35 c 0,324,325
 261 27 261 27 250 27 c 1,326,-1
 360.5 27 l 1,327,328
 349 27 349 27 341 35 c 128,-1,329
 333 43 333 43 333 55 c 128,-1,330
 333 67 333 67 341 75 c 128,-1,331
 349 83 349 83 360 82 c 0,332,333
 371 82 371 82 380 75 c 0,334,335
 388 67 388 67 388 55 c 0,336,337
 388 44 388 44 380 35 c 0,338,339
 372 27 372 27 360.5 27 c 1,340,-1
 472 27 l 1,341,342
 460 27 460 27 452 35 c 128,-1,343
 444 43 444 43 444 55 c 128,-1,344
 444 67 444 67 452 75 c 128,-1,345
 460 83 460 83 472 82 c 0,346,347
 483 82 483 82 491 75 c 0,348,349
 499 67 499 67 499 55 c 0,350,351
 499 44 499 44 491 35 c 0,352,353
 483 27 483 27 472 27 c 1,354,-1
 582 27 l 1,355,356
 571 27 571 27 563 35 c 128,-1,357
 555 43 555 43 555 55 c 128,-1,358
 555 67 555 67 563 75 c 128,-1,359
 571 83 571 83 582 82 c 0,360,361
 594 82 594 82 602 75 c 0,362,363
 610 67 610 67 610 55 c 0,364,365
 610 44 610 44 602 35 c 0,366,367
 594 27 594 27 582 27 c 1,368,-1
 693.5 27 l 1,369,370
 682 27 682 27 674 35 c 128,-1,371
 666 43 666 43 666 55 c 128,-1,372
 666 67 666 67 674 75 c 128,-1,373
 682 83 682 83 694 82 c 0,374,375
 705 82 705 82 713 75 c 0,376,377
 721 67 721 67 721 55 c 0,378,379
 721 44 721 44 713 35 c 0,380,381
 705 27 705 27 693.5 27 c 1,382,-1
 804 27 l 1,383,384
 793 27 793 27 785 35 c 128,-1,385
 777 43 777 43 777 55 c 128,-1,386
 777 67 777 67 785 75 c 128,-1,387
 793 83 793 83 804 82 c 0,388,389
 816 82 816 82 824 75 c 0,390,391
 832 67 832 67 832 55 c 0,392,393
 832 44 832 44 824 35 c 0,394,395
 816 27 816 27 804 27 c 1,396,-1
 915.5 27 l 1,397,398
 904 27 904 27 896 35 c 128,-1,399
 888 43 888 43 888 55 c 128,-1,400
 888 67 888 67 896 75 c 128,-1,401
 904 83 904 83 916 82 c 0,402,403
 927 82 927 82 935 75 c 0,404,405
 943 67 943 67 943 55 c 0,406,407
 943 44 943 44 935 35 c 0,408,409
 927 27 927 27 915.5 27 c 1,410,-1
 1165 27 l 1,411,-1
 1165 0 l 1,412,-1
 0 0 l 1,311,-1
EndSplineSet
Validated: 8912901
EndChar

StartChar: seven
Encoding: 55 55 17
Width: 1165
VWidth: 1081
Flags: W
HStem: 0 27<0 1165> 138 56<896.251 934.749> 249 55<896.251 934.749> 360 56<896.251 934.749> 471 56<896.251 934.749> 493 11<22 33 77 89 133 144 188 200 244 255 300 311 355 366 410 422 466 477 522 532 577 588 632 644 688 699 744 754 799 810 854 866 965 977 1021 1032 1077 1088 1132 1143> 582 55<896.251 934.749> 693 56<896.251 934.749> 804 55<896.251 934.749> 971 27<0 1165>
VStem: 22 11<493 504> 77 12<493 504> 133 11<493 504> 188 12<493 504> 222 55<923.282 969.937> 244 11<493 504> 300 11<493 504> 333 55<923.282 970.062> 355 11<493 504> 410 12<493 504> 444 55<923.282 969.937> 466 11<493 504> 522 10<493 504> 555 55<923.282 970.062> 577 11<493 504> 632 12<493 504> 666 55<923.282 969.937> 688 11<493 504> 744 10<493 504> 777 55<923.282 970.062> 799 11<493 504> 854 12<493 504> 888 55<35.2817 74.749 146.282 192.937 257.251 296.718 368.282 414.937 479.251 518.718 590.282 636.436 701.282 747.937 812.282 851.749 923.282 969.937> 965 12<493 504> 1021 11<493 504> 1077 11<493 504> 1132 11<493 504>
LayerCount: 2
Fore
SplineSet
0 971 m 1,0,-1
 0 998 l 1,1,-1
 1165 998 l 1,2,-1
 1165 971 l 1,3,-1
 916 971 l 1,4,5
 927 971 927 971 935 962 c 0,6,7
 943 954 943 954 943 943 c 128,-1,8
 943 932 943 932 935 923 c 0,9,10
 927 915 927 915 915.5 915 c 128,-1,11
 904 915 904 915 896 923 c 128,-1,12
 888 931 888 931 888 943 c 0,13,14
 888 954 888 954 896 962 c 128,-1,15
 904 970 904 970 916 971 c 1,16,-1
 804 971 l 1,17,18
 816 971 816 971 824 962 c 0,19,20
 832 954 832 954 832 943 c 128,-1,21
 832 932 832 932 824 923 c 0,22,23
 816 915 816 915 804 915 c 0,24,25
 793 915 793 915 785 923 c 128,-1,26
 777 931 777 931 777 943 c 0,27,28
 777 954 777 954 785 962 c 128,-1,29
 793 970 793 970 804 971 c 1,30,-1
 694 971 l 1,31,32
 705 971 705 971 713 962 c 0,33,34
 721 954 721 954 721 943 c 128,-1,35
 721 932 721 932 713 923 c 0,36,37
 705 915 705 915 693.5 915 c 128,-1,38
 682 915 682 915 674 923 c 128,-1,39
 666 931 666 931 666 943 c 0,40,41
 666 954 666 954 674 962 c 128,-1,42
 682 970 682 970 694 971 c 1,43,-1
 582 971 l 1,44,45
 594 971 594 971 602 962 c 0,46,47
 610 954 610 954 610 943 c 128,-1,48
 610 932 610 932 602 923 c 0,49,50
 594 915 594 915 582 915 c 0,51,52
 571 915 571 915 563 923 c 128,-1,53
 555 931 555 931 555 943 c 0,54,55
 555 954 555 954 563 962 c 128,-1,56
 571 970 571 970 582 971 c 1,57,-1
 472 971 l 1,58,59
 483 971 483 971 491 962 c 0,60,61
 499 954 499 954 499 943 c 128,-1,62
 499 932 499 932 491 923 c 0,63,64
 483 915 483 915 472 915 c 0,65,66
 460 915 460 915 452 923 c 128,-1,67
 444 931 444 931 444 943 c 0,68,69
 444 954 444 954 452 962 c 128,-1,70
 460 970 460 970 472 971 c 1,71,-1
 360 971 l 1,72,73
 371 971 371 971 380 962 c 0,74,75
 388 954 388 954 388 943 c 128,-1,76
 388 932 388 932 380 923 c 0,77,78
 372 915 372 915 360.5 915 c 128,-1,79
 349 915 349 915 341 923 c 128,-1,80
 333 931 333 931 333 943 c 0,81,82
 333 954 333 954 341 962 c 128,-1,83
 349 970 349 970 360 971 c 1,84,-1
 250 971 l 1,85,86
 261 971 261 971 269 962 c 0,87,88
 277 954 277 954 277 943 c 128,-1,89
 277 932 277 932 269 923 c 0,90,91
 261 915 261 915 250 915 c 0,92,93
 238 915 238 915 230 923 c 128,-1,94
 222 931 222 931 222 943 c 0,95,96
 222 954 222 954 230 962 c 128,-1,97
 238 970 238 970 250 971 c 1,98,-1
 0 971 l 1,0,-1
915.5 804 m 128,-1,100
 904 804 904 804 896 812 c 128,-1,101
 888 820 888 820 888 832 c 128,-1,102
 888 844 888 844 896 852 c 128,-1,103
 904 860 904 860 916 859 c 0,104,105
 927 859 927 859 935 852 c 0,106,107
 943 844 943 844 943 832 c 0,108,109
 943 821 943 821 935 812 c 0,110,99
 927 804 927 804 915.5 804 c 128,-1,100
915.5 693 m 128,-1,112
 904 693 904 693 896 701 c 128,-1,113
 888 709 888 709 888 721 c 0,114,115
 888 732 888 732 896 740 c 128,-1,116
 904 748 904 748 916 749 c 0,117,118
 927 749 927 749 935 740 c 0,119,120
 943 732 943 732 943 721 c 128,-1,121
 943 710 943 710 935 701 c 0,122,111
 927 693 927 693 915.5 693 c 128,-1,112
915.5 582 m 128,-1,124
 904 582 904 582 896 590 c 128,-1,125
 888 598 888 598 888 610 c 128,-1,126
 888 622 888 622 896 629 c 0,127,128
 904 637 904 637 916 637 c 0,129,130
 927 637 927 637 935 629 c 128,-1,131
 943 621 943 621 943 610 c 128,-1,132
 943 599 943 599 935 590 c 0,133,123
 927 582 927 582 915.5 582 c 128,-1,124
915.5 471 m 128,-1,135
 904 471 904 471 896 479 c 128,-1,136
 888 487 888 487 888 499 c 0,137,138
 888 510 888 510 896 519 c 0,139,140
 904 527 904 527 916 527 c 0,141,142
 927 527 927 527 935 519 c 128,-1,143
 943 511 943 511 943 499 c 128,-1,144
 943 487 943 487 935 479 c 128,-1,134
 927 471 927 471 915.5 471 c 128,-1,135
1132 493 m 1,145,-1
 1132 504 l 1,146,-1
 1143 504 l 1,147,-1
 1143 493 l 1,148,-1
 1132 493 l 1,145,-1
1077 493 m 1,149,-1
 1077 504 l 1,150,-1
 1088 504 l 1,151,-1
 1088 493 l 1,152,-1
 1077 493 l 1,149,-1
1021 493 m 1,153,-1
 1021 504 l 1,154,-1
 1032 504 l 1,155,-1
 1032 493 l 1,156,-1
 1021 493 l 1,153,-1
965 493 m 1,157,-1
 965 504 l 1,158,-1
 977 504 l 1,159,-1
 977 493 l 1,160,-1
 965 493 l 1,157,-1
854 493 m 1,161,-1
 854 504 l 1,162,-1
 866 504 l 1,163,-1
 866 493 l 1,164,-1
 854 493 l 1,161,-1
799 493 m 1,165,-1
 799 504 l 1,166,-1
 810 504 l 1,167,-1
 810 493 l 1,168,-1
 799 493 l 1,165,-1
744 493 m 1,169,-1
 744 504 l 1,170,-1
 754 504 l 1,171,-1
 754 493 l 1,172,-1
 744 493 l 1,169,-1
688 493 m 1,173,-1
 688 504 l 1,174,-1
 699 504 l 1,175,-1
 699 493 l 1,176,-1
 688 493 l 1,173,-1
632 493 m 1,177,-1
 632 504 l 1,178,-1
 644 504 l 1,179,-1
 644 493 l 1,180,-1
 632 493 l 1,177,-1
577 493 m 1,181,-1
 577 504 l 1,182,-1
 588 504 l 1,183,-1
 588 493 l 1,184,-1
 577 493 l 1,181,-1
522 493 m 1,185,-1
 522 504 l 1,186,-1
 532 504 l 1,187,-1
 532 493 l 1,188,-1
 522 493 l 1,185,-1
466 493 m 1,189,-1
 466 504 l 1,190,-1
 477 504 l 1,191,-1
 477 493 l 1,192,-1
 466 493 l 1,189,-1
410 493 m 1,193,-1
 410 504 l 1,194,-1
 422 504 l 1,195,-1
 422 493 l 1,196,-1
 410 493 l 1,193,-1
355 493 m 1,197,-1
 355 504 l 1,198,-1
 366 504 l 1,199,-1
 366 493 l 1,200,-1
 355 493 l 1,197,-1
300 493 m 1,201,-1
 300 504 l 1,202,-1
 311 504 l 1,203,-1
 311 493 l 1,204,-1
 300 493 l 1,201,-1
244 493 m 1,205,-1
 244 504 l 1,206,-1
 255 504 l 1,207,-1
 255 493 l 1,208,-1
 244 493 l 1,205,-1
188 493 m 1,209,-1
 188 504 l 1,210,-1
 200 504 l 1,211,-1
 200 493 l 1,212,-1
 188 493 l 1,209,-1
133 493 m 1,213,-1
 133 504 l 1,214,-1
 144 504 l 1,215,-1
 144 493 l 1,216,-1
 133 493 l 1,213,-1
77 493 m 1,217,-1
 77 504 l 1,218,-1
 89 504 l 1,219,-1
 89 493 l 1,220,-1
 77 493 l 1,217,-1
22 493 m 1,221,-1
 22 504 l 1,222,-1
 33 504 l 1,223,-1
 33 493 l 1,224,-1
 22 493 l 1,221,-1
915.5 360 m 128,-1,226
 904 360 904 360 896 368 c 128,-1,227
 888 376 888 376 888 388 c 0,228,229
 888 399 888 399 896 407 c 128,-1,230
 904 415 904 415 916 416 c 0,231,232
 927 416 927 416 935 407 c 0,233,234
 943 399 943 399 943 388 c 128,-1,235
 943 377 943 377 935 368 c 0,236,225
 927 360 927 360 915.5 360 c 128,-1,226
915.5 249 m 128,-1,238
 904 249 904 249 896 257 c 128,-1,239
 888 265 888 265 888 277 c 0,240,241
 888 288 888 288 896 297 c 0,242,243
 904 305 904 305 916 304 c 0,244,245
 927 304 927 304 935 297 c 0,246,247
 943 289 943 289 943 277 c 128,-1,248
 943 265 943 265 935 257 c 128,-1,237
 927 249 927 249 915.5 249 c 128,-1,238
915.5 138 m 128,-1,250
 904 138 904 138 896 146 c 128,-1,251
 888 154 888 154 888 166 c 0,252,253
 888 177 888 177 896 185 c 128,-1,254
 904 193 904 193 916 194 c 0,255,256
 927 194 927 194 935 185 c 0,257,258
 943 177 943 177 943 166 c 128,-1,259
 943 155 943 155 935 146 c 0,260,249
 927 138 927 138 915.5 138 c 128,-1,250
0 0 m 1,261,-1
 0 27 l 1,262,-1
 915.5 27 l 1,263,264
 904 27 904 27 896 35 c 128,-1,265
 888 43 888 43 888 55 c 128,-1,266
 888 67 888 67 896 75 c 128,-1,267
 904 83 904 83 916 82 c 0,268,269
 927 82 927 82 935 75 c 0,270,271
 943 67 943 67 943 55 c 0,272,273
 943 44 943 44 935 35 c 0,274,275
 927 27 927 27 915.5 27 c 1,276,-1
 1165 27 l 1,277,-1
 1165 0 l 1,278,-1
 0 0 l 1,261,-1
EndSplineSet
Validated: 8912901
EndChar

StartChar: eight
Encoding: 56 56 18
Width: 1165
VWidth: 1081
Flags: W
HStem: 0 27<0 1165> 138 56<230.251 268.749 896.251 934.749> 146 48<250.343 276.295 915.859 942.295> 249 55<230.251 268.749 896.251 934.749> 360 56<230.251 268.749 896.251 934.749> 368 48<250.343 276.295 915.859 942.295> 471 56<230.251 268.749 341.251 379.718 452.251 490.749 563.251 601.749 674.251 712.749 785.251 823.749 896.251 934.749> 493 11<22 33 77 89 133 144 188 200 300 311 410 422 522 532 632 644 744 754 854 866 965 977 1021 1032 1077 1088 1132 1143> 582 55<230.251 268.749 896.251 934.749> 693 56<230.251 268.749 896.251 934.749> 701 48<250.343 276.295 915.859 942.295> 804 55<230.251 268.749 896.251 934.749> 971 27<0 1165>
VStem: 22 11<493 504> 77 12<493 504> 133 11<493 504> 188 12<493 504> 222 55<35.2817 74.749 146.282 192.937 257.251 296.718 368.282 414.937 479.251 518.718 590.282 636.436 701.282 747.937 812.282 851.749 923.282 969.937> 300 11<493 504> 333 55<35.2817 74.749 479.251 518.718 923.282 970.062> 410 12<493 504> 444 55<35.2817 74.749 479.251 518.718 923.282 969.937> 522 10<493 504> 555 55<35.2817 74.749 479.251 518.718 923.282 970.062> 632 12<493 504> 666 55<35.2817 74.749 479.251 518.718 923.282 969.937> 744 10<493 504> 777 55<35.2817 74.749 479.251 518.718 923.282 970.062> 854 12<493 504> 888 55<35.2817 74.749 146.282 192.937 257.251 296.718 368.282 414.937 479.251 518.718 590.282 636.436 701.282 747.937 812.282 851.749 923.282 969.937> 965 12<493 504> 1021 11<493 504> 1077 11<493 504> 1132 11<493 504>
LayerCount: 2
Fore
SplineSet
0 971 m 1,0,-1
 0 998 l 1,1,-1
 1165 998 l 1,2,-1
 1165 971 l 1,3,-1
 916 971 l 1,4,5
 927 971 927 971 935 962 c 0,6,7
 943 954 943 954 943 943 c 128,-1,8
 943 932 943 932 935 923 c 0,9,10
 927 915 927 915 915.5 915 c 128,-1,11
 904 915 904 915 896 923 c 128,-1,12
 888 931 888 931 888 943 c 0,13,14
 888 954 888 954 896 962 c 128,-1,15
 904 970 904 970 916 971 c 1,16,-1
 804 971 l 1,17,18
 816 971 816 971 824 962 c 0,19,20
 832 954 832 954 832 943 c 128,-1,21
 832 932 832 932 824 923 c 0,22,23
 816 915 816 915 804 915 c 0,24,25
 793 915 793 915 785 923 c 128,-1,26
 777 931 777 931 777 943 c 0,27,28
 777 954 777 954 785 962 c 128,-1,29
 793 970 793 970 804 971 c 1,30,-1
 694 971 l 1,31,32
 705 971 705 971 713 962 c 0,33,34
 721 954 721 954 721 943 c 128,-1,35
 721 932 721 932 713 923 c 0,36,37
 705 915 705 915 693.5 915 c 128,-1,38
 682 915 682 915 674 923 c 128,-1,39
 666 931 666 931 666 943 c 0,40,41
 666 954 666 954 674 962 c 128,-1,42
 682 970 682 970 694 971 c 1,43,-1
 582 971 l 1,44,45
 594 971 594 971 602 962 c 0,46,47
 610 954 610 954 610 943 c 128,-1,48
 610 932 610 932 602 923 c 0,49,50
 594 915 594 915 582 915 c 0,51,52
 571 915 571 915 563 923 c 128,-1,53
 555 931 555 931 555 943 c 0,54,55
 555 954 555 954 563 962 c 128,-1,56
 571 970 571 970 582 971 c 1,57,-1
 472 971 l 1,58,59
 483 971 483 971 491 962 c 0,60,61
 499 954 499 954 499 943 c 128,-1,62
 499 932 499 932 491 923 c 0,63,64
 483 915 483 915 472 915 c 0,65,66
 460 915 460 915 452 923 c 128,-1,67
 444 931 444 931 444 943 c 0,68,69
 444 954 444 954 452 962 c 128,-1,70
 460 970 460 970 472 971 c 1,71,-1
 360 971 l 1,72,73
 371 971 371 971 380 962 c 0,74,75
 388 954 388 954 388 943 c 128,-1,76
 388 932 388 932 380 923 c 0,77,78
 372 915 372 915 360.5 915 c 128,-1,79
 349 915 349 915 341 923 c 128,-1,80
 333 931 333 931 333 943 c 0,81,82
 333 954 333 954 341 962 c 128,-1,83
 349 970 349 970 360 971 c 1,84,-1
 250 971 l 1,85,86
 261 971 261 971 269 962 c 0,87,88
 277 954 277 954 277 943 c 128,-1,89
 277 932 277 932 269 923 c 0,90,91
 261 915 261 915 250 915 c 0,92,93
 238 915 238 915 230 923 c 128,-1,94
 222 931 222 931 222 943 c 0,95,96
 222 954 222 954 230 962 c 128,-1,97
 238 970 238 970 250 971 c 1,98,-1
 0 971 l 1,0,-1
915.5 804 m 128,-1,100
 904 804 904 804 896 812 c 128,-1,101
 888 820 888 820 888 832 c 128,-1,102
 888 844 888 844 896 852 c 128,-1,103
 904 860 904 860 916 859 c 0,104,105
 927 859 927 859 935 852 c 0,106,107
 943 844 943 844 943 832 c 0,108,109
 943 821 943 821 935 812 c 0,110,99
 927 804 927 804 915.5 804 c 128,-1,100
250 804 m 0,111,112
 238 804 238 804 230 812 c 128,-1,113
 222 820 222 820 222 832 c 128,-1,114
 222 844 222 844 230 852 c 128,-1,115
 238 860 238 860 250 859 c 0,116,117
 261 859 261 859 269 852 c 0,118,119
 277 844 277 844 277 832 c 0,120,121
 277 821 277 821 269 812 c 0,122,123
 261 804 261 804 250 804 c 0,111,112
915.5 693 m 128,-1,125
 904 693 904 693 896 701 c 128,-1,126
 888 709 888 709 888 721 c 0,127,128
 888 732 888 732 896 740 c 128,-1,129
 904 748 904 748 916 749 c 0,130,131
 927 749 927 749 935 740 c 0,132,133
 943 732 943 732 943 721 c 128,-1,134
 943 710 943 710 935 701 c 0,135,124
 927 693 927 693 915.5 693 c 128,-1,125
250 693 m 0,136,137
 238 693 238 693 230 701 c 128,-1,138
 222 709 222 709 222 721 c 0,139,140
 222 732 222 732 230 740 c 128,-1,141
 238 748 238 748 250 749 c 0,142,143
 261 749 261 749 269 740 c 0,144,145
 277 732 277 732 277 721 c 128,-1,146
 277 710 277 710 269 701 c 0,147,148
 261 693 261 693 250 693 c 0,136,137
915.5 582 m 128,-1,150
 904 582 904 582 896 590 c 128,-1,151
 888 598 888 598 888 610 c 128,-1,152
 888 622 888 622 896 629 c 0,153,154
 904 637 904 637 916 637 c 0,155,156
 927 637 927 637 935 629 c 128,-1,157
 943 621 943 621 943 610 c 128,-1,158
 943 599 943 599 935 590 c 0,159,149
 927 582 927 582 915.5 582 c 128,-1,150
250 582 m 0,160,161
 238 582 238 582 230 590 c 128,-1,162
 222 598 222 598 222 610 c 128,-1,163
 222 622 222 622 230 629 c 0,164,165
 238 637 238 637 250 637 c 0,166,167
 261 637 261 637 269 629 c 128,-1,168
 277 621 277 621 277 610 c 128,-1,169
 277 599 277 599 269 590 c 0,170,171
 261 582 261 582 250 582 c 0,160,161
915.5 471 m 128,-1,173
 904 471 904 471 896 479 c 128,-1,174
 888 487 888 487 888 499 c 0,175,176
 888 510 888 510 896 519 c 0,177,178
 904 527 904 527 916 527 c 0,179,180
 927 527 927 527 935 519 c 128,-1,181
 943 511 943 511 943 499 c 128,-1,182
 943 487 943 487 935 479 c 128,-1,172
 927 471 927 471 915.5 471 c 128,-1,173
804 471 m 0,183,184
 793 471 793 471 785 479 c 128,-1,185
 777 487 777 487 777 499 c 0,186,187
 777 510 777 510 785 519 c 0,188,189
 793 527 793 527 804 527 c 0,190,191
 816 527 816 527 824 519 c 128,-1,192
 832 511 832 511 832 499 c 128,-1,193
 832 487 832 487 824 479 c 128,-1,194
 816 471 816 471 804 471 c 0,183,184
693.5 471 m 128,-1,196
 682 471 682 471 674 479 c 128,-1,197
 666 487 666 487 666 499 c 0,198,199
 666 510 666 510 674 519 c 0,200,201
 682 527 682 527 694 527 c 0,202,203
 705 527 705 527 713 519 c 128,-1,204
 721 511 721 511 721 499 c 128,-1,205
 721 487 721 487 713 479 c 128,-1,195
 705 471 705 471 693.5 471 c 128,-1,196
582 471 m 0,206,207
 571 471 571 471 563 479 c 128,-1,208
 555 487 555 487 555 499 c 0,209,210
 555 510 555 510 563 519 c 0,211,212
 571 527 571 527 582 527 c 0,213,214
 594 527 594 527 602 519 c 128,-1,215
 610 511 610 511 610 499 c 128,-1,216
 610 487 610 487 602 479 c 128,-1,217
 594 471 594 471 582 471 c 0,206,207
472 471 m 0,218,219
 460 471 460 471 452 479 c 128,-1,220
 444 487 444 487 444 499 c 0,221,222
 444 510 444 510 452 519 c 0,223,224
 460 527 460 527 472 527 c 0,225,226
 483 527 483 527 491 519 c 128,-1,227
 499 511 499 511 499 499 c 128,-1,228
 499 487 499 487 491 479 c 128,-1,229
 483 471 483 471 472 471 c 0,218,219
360.5 471 m 128,-1,231
 349 471 349 471 341 479 c 128,-1,232
 333 487 333 487 333 499 c 0,233,234
 333 510 333 510 341 519 c 0,235,236
 349 527 349 527 360 527 c 128,-1,237
 371 527 371 527 380 519 c 0,238,239
 388 511 388 511 388 499 c 128,-1,240
 388 487 388 487 380 479 c 128,-1,230
 372 471 372 471 360.5 471 c 128,-1,231
250 471 m 0,241,242
 238 471 238 471 230 479 c 128,-1,243
 222 487 222 487 222 499 c 0,244,245
 222 510 222 510 230 519 c 0,246,247
 238 527 238 527 250 527 c 0,248,249
 261 527 261 527 269 519 c 128,-1,250
 277 511 277 511 277 499 c 128,-1,251
 277 487 277 487 269 479 c 128,-1,252
 261 471 261 471 250 471 c 0,241,242
1132 493 m 1,253,-1
 1132 504 l 1,254,-1
 1143 504 l 1,255,-1
 1143 493 l 1,256,-1
 1132 493 l 1,253,-1
1077 493 m 1,257,-1
 1077 504 l 1,258,-1
 1088 504 l 1,259,-1
 1088 493 l 1,260,-1
 1077 493 l 1,257,-1
1021 493 m 1,261,-1
 1021 504 l 1,262,-1
 1032 504 l 1,263,-1
 1032 493 l 1,264,-1
 1021 493 l 1,261,-1
965 493 m 1,265,-1
 965 504 l 1,266,-1
 977 504 l 1,267,-1
 977 493 l 1,268,-1
 965 493 l 1,265,-1
854 493 m 1,269,-1
 854 504 l 1,270,-1
 866 504 l 1,271,-1
 866 493 l 1,272,-1
 854 493 l 1,269,-1
744 493 m 1,273,-1
 744 504 l 1,274,-1
 754 504 l 1,275,-1
 754 493 l 1,276,-1
 744 493 l 1,273,-1
632 493 m 1,277,-1
 632 504 l 1,278,-1
 644 504 l 1,279,-1
 644 493 l 1,280,-1
 632 493 l 1,277,-1
522 493 m 1,281,-1
 522 504 l 1,282,-1
 532 504 l 1,283,-1
 532 493 l 1,284,-1
 522 493 l 1,281,-1
410 493 m 1,285,-1
 410 504 l 1,286,-1
 422 504 l 1,287,-1
 422 493 l 1,288,-1
 410 493 l 1,285,-1
300 493 m 1,289,-1
 300 504 l 1,290,-1
 311 504 l 1,291,-1
 311 493 l 1,292,-1
 300 493 l 1,289,-1
188 493 m 1,293,-1
 188 504 l 1,294,-1
 200 504 l 1,295,-1
 200 493 l 1,296,-1
 188 493 l 1,293,-1
133 493 m 1,297,-1
 133 504 l 1,298,-1
 144 504 l 1,299,-1
 144 493 l 1,300,-1
 133 493 l 1,297,-1
77 493 m 1,301,-1
 77 504 l 1,302,-1
 89 504 l 1,303,-1
 89 493 l 1,304,-1
 77 493 l 1,301,-1
22 493 m 1,305,-1
 22 504 l 1,306,-1
 33 504 l 1,307,-1
 33 493 l 1,308,-1
 22 493 l 1,305,-1
915.5 360 m 128,-1,310
 904 360 904 360 896 368 c 128,-1,311
 888 376 888 376 888 388 c 0,312,313
 888 399 888 399 896 407 c 128,-1,314
 904 415 904 415 916 416 c 0,315,316
 927 416 927 416 935 407 c 0,317,318
 943 399 943 399 943 388 c 128,-1,319
 943 377 943 377 935 368 c 0,320,309
 927 360 927 360 915.5 360 c 128,-1,310
250 360 m 0,321,322
 238 360 238 360 230 368 c 128,-1,323
 222 376 222 376 222 388 c 0,324,325
 222 399 222 399 230 407 c 128,-1,326
 238 415 238 415 250 416 c 0,327,328
 261 416 261 416 269 407 c 0,329,330
 277 399 277 399 277 388 c 128,-1,331
 277 377 277 377 269 368 c 0,332,333
 261 360 261 360 250 360 c 0,321,322
915.5 249 m 128,-1,335
 904 249 904 249 896 257 c 128,-1,336
 888 265 888 265 888 277 c 0,337,338
 888 288 888 288 896 297 c 0,339,340
 904 305 904 305 916 304 c 0,341,342
 927 304 927 304 935 297 c 0,343,344
 943 289 943 289 943 277 c 128,-1,345
 943 265 943 265 935 257 c 128,-1,334
 927 249 927 249 915.5 249 c 128,-1,335
250 249 m 0,346,347
 238 249 238 249 230 257 c 128,-1,348
 222 265 222 265 222 277 c 0,349,350
 222 288 222 288 230 297 c 0,351,352
 238 305 238 305 250 304 c 0,353,354
 261 304 261 304 269 297 c 0,355,356
 277 289 277 289 277 277 c 128,-1,357
 277 265 277 265 269 257 c 128,-1,358
 261 249 261 249 250 249 c 0,346,347
915.5 138 m 128,-1,360
 904 138 904 138 896 146 c 128,-1,361
 888 154 888 154 888 166 c 0,362,363
 888 177 888 177 896 185 c 128,-1,364
 904 193 904 193 916 194 c 0,365,366
 927 194 927 194 935 185 c 0,367,368
 943 177 943 177 943 166 c 128,-1,369
 943 155 943 155 935 146 c 0,370,359
 927 138 927 138 915.5 138 c 128,-1,360
250 138 m 0,371,372
 238 138 238 138 230 146 c 128,-1,373
 222 154 222 154 222 166 c 0,374,375
 222 177 222 177 230 185 c 128,-1,376
 238 193 238 193 250 194 c 0,377,378
 261 194 261 194 269 185 c 0,379,380
 277 177 277 177 277 166 c 128,-1,381
 277 155 277 155 269 146 c 0,382,383
 261 138 261 138 250 138 c 0,371,372
0 0 m 1,384,-1
 0 27 l 1,385,-1
 250 27 l 1,386,387
 238 27 238 27 230 35 c 128,-1,388
 222 43 222 43 222 55 c 128,-1,389
 222 67 222 67 230 75 c 128,-1,390
 238 83 238 83 250 82 c 0,391,392
 261 82 261 82 269 75 c 0,393,394
 277 67 277 67 277 55 c 0,395,396
 277 44 277 44 269 35 c 0,397,398
 261 27 261 27 250 27 c 1,399,-1
 360.5 27 l 1,400,401
 349 27 349 27 341 35 c 128,-1,402
 333 43 333 43 333 55 c 128,-1,403
 333 67 333 67 341 75 c 128,-1,404
 349 83 349 83 360 82 c 0,405,406
 371 82 371 82 380 75 c 0,407,408
 388 67 388 67 388 55 c 0,409,410
 388 44 388 44 380 35 c 0,411,412
 372 27 372 27 360.5 27 c 1,413,-1
 472 27 l 1,414,415
 460 27 460 27 452 35 c 128,-1,416
 444 43 444 43 444 55 c 128,-1,417
 444 67 444 67 452 75 c 128,-1,418
 460 83 460 83 472 82 c 0,419,420
 483 82 483 82 491 75 c 0,421,422
 499 67 499 67 499 55 c 0,423,424
 499 44 499 44 491 35 c 0,425,426
 483 27 483 27 472 27 c 1,427,-1
 582 27 l 1,428,429
 571 27 571 27 563 35 c 128,-1,430
 555 43 555 43 555 55 c 128,-1,431
 555 67 555 67 563 75 c 128,-1,432
 571 83 571 83 582 82 c 0,433,434
 594 82 594 82 602 75 c 0,435,436
 610 67 610 67 610 55 c 0,437,438
 610 44 610 44 602 35 c 0,439,440
 594 27 594 27 582 27 c 1,441,-1
 693.5 27 l 1,442,443
 682 27 682 27 674 35 c 128,-1,444
 666 43 666 43 666 55 c 128,-1,445
 666 67 666 67 674 75 c 128,-1,446
 682 83 682 83 694 82 c 0,447,448
 705 82 705 82 713 75 c 0,449,450
 721 67 721 67 721 55 c 0,451,452
 721 44 721 44 713 35 c 0,453,454
 705 27 705 27 693.5 27 c 1,455,-1
 804 27 l 1,456,457
 793 27 793 27 785 35 c 128,-1,458
 777 43 777 43 777 55 c 128,-1,459
 777 67 777 67 785 75 c 128,-1,460
 793 83 793 83 804 82 c 0,461,462
 816 82 816 82 824 75 c 0,463,464
 832 67 832 67 832 55 c 0,465,466
 832 44 832 44 824 35 c 0,467,468
 816 27 816 27 804 27 c 1,469,-1
 915.5 27 l 1,470,471
 904 27 904 27 896 35 c 128,-1,472
 888 43 888 43 888 55 c 128,-1,473
 888 67 888 67 896 75 c 128,-1,474
 904 83 904 83 916 82 c 0,475,476
 927 82 927 82 935 75 c 0,477,478
 943 67 943 67 943 55 c 0,479,480
 943 44 943 44 935 35 c 0,481,482
 927 27 927 27 915.5 27 c 1,483,-1
 1165 27 l 1,484,-1
 1165 0 l 1,485,-1
 0 0 l 1,384,-1
EndSplineSet
Validated: 8912901
EndChar

StartChar: nine
Encoding: 57 57 19
Width: 1165
VWidth: 1081
Flags: W
HStem: 0 27<0 1165> 471 56<230.251 268.749 341.251 379.718 452.251 490.749 563.251 601.749 674.251 712.749 785.251 823.749 896.251 934.749> 493 11<22 33 77 89 133 144 188 200 300 311 410 422 522 532 632 644 744 754 854 866 965 977 1021 1032 1077 1088 1132 1143> 582 55<230.251 268.749 896.251 934.749> 693 56<230.251 268.749 896.251 934.749> 701 48<250.343 276.295 915.859 942.295> 804 55<230.251 268.749 896.251 934.749> 971 27<0 1165>
VStem: 22 11<493 504> 77 12<493 504> 133 11<493 504> 188 12<493 504> 222 55<35.2817 74.749 479.251 518.718 590.282 636.436 701.282 747.937 812.282 851.749 923.282 969.937> 300 11<493 504> 333 55<35.2817 74.749 479.251 518.718 923.282 970.062> 410 12<493 504> 444 55<35.2817 74.749 479.251 518.718 923.282 969.937> 522 10<493 504> 555 55<35.2817 74.749 479.251 518.718 923.282 970.062> 632 12<493 504> 666 55<35.2817 74.749 479.251 518.718 923.282 969.937> 744 10<493 504> 777 55<35.2817 74.749 479.251 518.718 923.282 970.062> 854 12<493 504> 888 55<35.2817 74.749 479.251 518.718 590.282 636.436 701.282 747.937 812.282 851.749 923.282 969.937> 965 12<493 504> 1021 11<493 504> 1077 11<493 504> 1132 11<493 504>
LayerCount: 2
Fore
SplineSet
0 971 m 1,0,-1
 0 998 l 1,1,-1
 1165 998 l 1,2,-1
 1165 971 l 1,3,-1
 916 971 l 1,4,5
 927 971 927 971 935 962 c 0,6,7
 943 954 943 954 943 943 c 128,-1,8
 943 932 943 932 935 923 c 0,9,10
 927 915 927 915 915.5 915 c 128,-1,11
 904 915 904 915 896 923 c 128,-1,12
 888 931 888 931 888 943 c 0,13,14
 888 954 888 954 896 962 c 128,-1,15
 904 970 904 970 916 971 c 1,16,-1
 804 971 l 1,17,18
 816 971 816 971 824 962 c 0,19,20
 832 954 832 954 832 943 c 128,-1,21
 832 932 832 932 824 923 c 0,22,23
 816 915 816 915 804 915 c 0,24,25
 793 915 793 915 785 923 c 128,-1,26
 777 931 777 931 777 943 c 0,27,28
 777 954 777 954 785 962 c 128,-1,29
 793 970 793 970 804 971 c 1,30,-1
 694 971 l 1,31,32
 705 971 705 971 713 962 c 0,33,34
 721 954 721 954 721 943 c 128,-1,35
 721 932 721 932 713 923 c 0,36,37
 705 915 705 915 693.5 915 c 128,-1,38
 682 915 682 915 674 923 c 128,-1,39
 666 931 666 931 666 943 c 0,40,41
 666 954 666 954 674 962 c 128,-1,42
 682 970 682 970 694 971 c 1,43,-1
 582 971 l 1,44,45
 594 971 594 971 602 962 c 0,46,47
 610 954 610 954 610 943 c 128,-1,48
 610 932 610 932 602 923 c 0,49,50
 594 915 594 915 582 915 c 0,51,52
 571 915 571 915 563 923 c 128,-1,53
 555 931 555 931 555 943 c 0,54,55
 555 954 555 954 563 962 c 128,-1,56
 571 970 571 970 582 971 c 1,57,-1
 472 971 l 1,58,59
 483 971 483 971 491 962 c 0,60,61
 499 954 499 954 499 943 c 128,-1,62
 499 932 499 932 491 923 c 0,63,64
 483 915 483 915 472 915 c 0,65,66
 460 915 460 915 452 923 c 128,-1,67
 444 931 444 931 444 943 c 0,68,69
 444 954 444 954 452 962 c 128,-1,70
 460 970 460 970 472 971 c 1,71,-1
 360 971 l 1,72,73
 371 971 371 971 380 962 c 0,74,75
 388 954 388 954 388 943 c 128,-1,76
 388 932 388 932 380 923 c 0,77,78
 372 915 372 915 360.5 915 c 128,-1,79
 349 915 349 915 341 923 c 128,-1,80
 333 931 333 931 333 943 c 0,81,82
 333 954 333 954 341 962 c 128,-1,83
 349 970 349 970 360 971 c 1,84,-1
 250 971 l 1,85,86
 261 971 261 971 269 962 c 0,87,88
 277 954 277 954 277 943 c 128,-1,89
 277 932 277 932 269 923 c 0,90,91
 261 915 261 915 250 915 c 0,92,93
 238 915 238 915 230 923 c 128,-1,94
 222 931 222 931 222 943 c 0,95,96
 222 954 222 954 230 962 c 128,-1,97
 238 970 238 970 250 971 c 1,98,-1
 0 971 l 1,0,-1
915.5 804 m 128,-1,100
 904 804 904 804 896 812 c 128,-1,101
 888 820 888 820 888 832 c 128,-1,102
 888 844 888 844 896 852 c 128,-1,103
 904 860 904 860 916 859 c 0,104,105
 927 859 927 859 935 852 c 0,106,107
 943 844 943 844 943 832 c 0,108,109
 943 821 943 821 935 812 c 0,110,99
 927 804 927 804 915.5 804 c 128,-1,100
250 804 m 0,111,112
 238 804 238 804 230 812 c 128,-1,113
 222 820 222 820 222 832 c 128,-1,114
 222 844 222 844 230 852 c 128,-1,115
 238 860 238 860 250 859 c 0,116,117
 261 859 261 859 269 852 c 0,118,119
 277 844 277 844 277 832 c 0,120,121
 277 821 277 821 269 812 c 0,122,123
 261 804 261 804 250 804 c 0,111,112
915.5 693 m 128,-1,125
 904 693 904 693 896 701 c 128,-1,126
 888 709 888 709 888 721 c 0,127,128
 888 732 888 732 896 740 c 128,-1,129
 904 748 904 748 916 749 c 0,130,131
 927 749 927 749 935 740 c 0,132,133
 943 732 943 732 943 721 c 128,-1,134
 943 710 943 710 935 701 c 0,135,124
 927 693 927 693 915.5 693 c 128,-1,125
250 693 m 0,136,137
 238 693 238 693 230 701 c 128,-1,138
 222 709 222 709 222 721 c 0,139,140
 222 732 222 732 230 740 c 128,-1,141
 238 748 238 748 250 749 c 0,142,143
 261 749 261 749 269 740 c 0,144,145
 277 732 277 732 277 721 c 128,-1,146
 277 710 277 710 269 701 c 0,147,148
 261 693 261 693 250 693 c 0,136,137
915.5 582 m 128,-1,150
 904 582 904 582 896 590 c 128,-1,151
 888 598 888 598 888 610 c 128,-1,152
 888 622 888 622 896 629 c 0,153,154
 904 637 904 637 916 637 c 0,155,156
 927 637 927 637 935 629 c 128,-1,157
 943 621 943 621 943 610 c 128,-1,158
 943 599 943 599 935 590 c 0,159,149
 927 582 927 582 915.5 582 c 128,-1,150
250 582 m 0,160,161
 238 582 238 582 230 590 c 128,-1,162
 222 598 222 598 222 610 c 128,-1,163
 222 622 222 622 230 629 c 0,164,165
 238 637 238 637 250 637 c 0,166,167
 261 637 261 637 269 629 c 128,-1,168
 277 621 277 621 277 610 c 128,-1,169
 277 599 277 599 269 590 c 0,170,171
 261 582 261 582 250 582 c 0,160,161
915.5 471 m 128,-1,173
 904 471 904 471 896 479 c 128,-1,174
 888 487 888 487 888 499 c 0,175,176
 888 510 888 510 896 519 c 0,177,178
 904 527 904 527 916 527 c 0,179,180
 927 527 927 527 935 519 c 128,-1,181
 943 511 943 511 943 499 c 128,-1,182
 943 487 943 487 935 479 c 128,-1,172
 927 471 927 471 915.5 471 c 128,-1,173
804 471 m 0,183,184
 793 471 793 471 785 479 c 128,-1,185
 777 487 777 487 777 499 c 0,186,187
 777 510 777 510 785 519 c 0,188,189
 793 527 793 527 804 527 c 0,190,191
 816 527 816 527 824 519 c 128,-1,192
 832 511 832 511 832 499 c 128,-1,193
 832 487 832 487 824 479 c 128,-1,194
 816 471 816 471 804 471 c 0,183,184
693.5 471 m 128,-1,196
 682 471 682 471 674 479 c 128,-1,197
 666 487 666 487 666 499 c 0,198,199
 666 510 666 510 674 519 c 0,200,201
 682 527 682 527 694 527 c 0,202,203
 705 527 705 527 713 519 c 128,-1,204
 721 511 721 511 721 499 c 128,-1,205
 721 487 721 487 713 479 c 128,-1,195
 705 471 705 471 693.5 471 c 128,-1,196
582 471 m 0,206,207
 571 471 571 471 563 479 c 128,-1,208
 555 487 555 487 555 499 c 0,209,210
 555 510 555 510 563 519 c 0,211,212
 571 527 571 527 582 527 c 0,213,214
 594 527 594 527 602 519 c 128,-1,215
 610 511 610 511 610 499 c 128,-1,216
 610 487 610 487 602 479 c 128,-1,217
 594 471 594 471 582 471 c 0,206,207
472 471 m 0,218,219
 460 471 460 471 452 479 c 128,-1,220
 444 487 444 487 444 499 c 0,221,222
 444 510 444 510 452 519 c 0,223,224
 460 527 460 527 472 527 c 0,225,226
 483 527 483 527 491 519 c 128,-1,227
 499 511 499 511 499 499 c 128,-1,228
 499 487 499 487 491 479 c 128,-1,229
 483 471 483 471 472 471 c 0,218,219
360.5 471 m 128,-1,231
 349 471 349 471 341 479 c 128,-1,232
 333 487 333 487 333 499 c 0,233,234
 333 510 333 510 341 519 c 0,235,236
 349 527 349 527 360 527 c 128,-1,237
 371 527 371 527 380 519 c 0,238,239
 388 511 388 511 388 499 c 128,-1,240
 388 487 388 487 380 479 c 128,-1,230
 372 471 372 471 360.5 471 c 128,-1,231
250 471 m 0,241,242
 238 471 238 471 230 479 c 128,-1,243
 222 487 222 487 222 499 c 0,244,245
 222 510 222 510 230 519 c 0,246,247
 238 527 238 527 250 527 c 0,248,249
 261 527 261 527 269 519 c 128,-1,250
 277 511 277 511 277 499 c 128,-1,251
 277 487 277 487 269 479 c 128,-1,252
 261 471 261 471 250 471 c 0,241,242
1132 493 m 1,253,-1
 1132 504 l 1,254,-1
 1143 504 l 1,255,-1
 1143 493 l 1,256,-1
 1132 493 l 1,253,-1
1077 493 m 1,257,-1
 1077 504 l 1,258,-1
 1088 504 l 1,259,-1
 1088 493 l 1,260,-1
 1077 493 l 1,257,-1
1021 493 m 1,261,-1
 1021 504 l 1,262,-1
 1032 504 l 1,263,-1
 1032 493 l 1,264,-1
 1021 493 l 1,261,-1
965 493 m 1,265,-1
 965 504 l 1,266,-1
 977 504 l 1,267,-1
 977 493 l 1,268,-1
 965 493 l 1,265,-1
854 493 m 1,269,-1
 854 504 l 1,270,-1
 866 504 l 1,271,-1
 866 493 l 1,272,-1
 854 493 l 1,269,-1
744 493 m 1,273,-1
 744 504 l 1,274,-1
 754 504 l 1,275,-1
 754 493 l 1,276,-1
 744 493 l 1,273,-1
632 493 m 1,277,-1
 632 504 l 1,278,-1
 644 504 l 1,279,-1
 644 493 l 1,280,-1
 632 493 l 1,277,-1
522 493 m 1,281,-1
 522 504 l 1,282,-1
 532 504 l 1,283,-1
 532 493 l 1,284,-1
 522 493 l 1,281,-1
410 493 m 1,285,-1
 410 504 l 1,286,-1
 422 504 l 1,287,-1
 422 493 l 1,288,-1
 410 493 l 1,285,-1
300 493 m 1,289,-1
 300 504 l 1,290,-1
 311 504 l 1,291,-1
 311 493 l 1,292,-1
 300 493 l 1,289,-1
188 493 m 1,293,-1
 188 504 l 1,294,-1
 200 504 l 1,295,-1
 200 493 l 1,296,-1
 188 493 l 1,293,-1
133 493 m 1,297,-1
 133 504 l 1,298,-1
 144 504 l 1,299,-1
 144 493 l 1,300,-1
 133 493 l 1,297,-1
77 493 m 1,301,-1
 77 504 l 1,302,-1
 89 504 l 1,303,-1
 89 493 l 1,304,-1
 77 493 l 1,301,-1
22 493 m 1,305,-1
 22 504 l 1,306,-1
 33 504 l 1,307,-1
 33 493 l 1,308,-1
 22 493 l 1,305,-1
0 0 m 1,309,-1
 0 27 l 1,310,-1
 250 27 l 1,311,312
 238 27 238 27 230 35 c 128,-1,313
 222 43 222 43 222 55 c 128,-1,314
 222 67 222 67 230 75 c 128,-1,315
 238 83 238 83 250 82 c 0,316,317
 261 82 261 82 269 75 c 0,318,319
 277 67 277 67 277 55 c 0,320,321
 277 44 277 44 269 35 c 0,322,323
 261 27 261 27 250 27 c 1,324,-1
 360.5 27 l 1,325,326
 349 27 349 27 341 35 c 128,-1,327
 333 43 333 43 333 55 c 128,-1,328
 333 67 333 67 341 75 c 128,-1,329
 349 83 349 83 360 82 c 0,330,331
 371 82 371 82 380 75 c 0,332,333
 388 67 388 67 388 55 c 0,334,335
 388 44 388 44 380 35 c 0,336,337
 372 27 372 27 360.5 27 c 1,338,-1
 472 27 l 1,339,340
 460 27 460 27 452 35 c 128,-1,341
 444 43 444 43 444 55 c 128,-1,342
 444 67 444 67 452 75 c 128,-1,343
 460 83 460 83 472 82 c 0,344,345
 483 82 483 82 491 75 c 0,346,347
 499 67 499 67 499 55 c 0,348,349
 499 44 499 44 491 35 c 0,350,351
 483 27 483 27 472 27 c 1,352,-1
 582 27 l 1,353,354
 571 27 571 27 563 35 c 128,-1,355
 555 43 555 43 555 55 c 128,-1,356
 555 67 555 67 563 75 c 128,-1,357
 571 83 571 83 582 82 c 0,358,359
 594 82 594 82 602 75 c 0,360,361
 610 67 610 67 610 55 c 0,362,363
 610 44 610 44 602 35 c 0,364,365
 594 27 594 27 582 27 c 1,366,-1
 693.5 27 l 1,367,368
 682 27 682 27 674 35 c 128,-1,369
 666 43 666 43 666 55 c 128,-1,370
 666 67 666 67 674 75 c 128,-1,371
 682 83 682 83 694 82 c 0,372,373
 705 82 705 82 713 75 c 0,374,375
 721 67 721 67 721 55 c 0,376,377
 721 44 721 44 713 35 c 0,378,379
 705 27 705 27 693.5 27 c 1,380,-1
 804 27 l 1,381,382
 793 27 793 27 785 35 c 128,-1,383
 777 43 777 43 777 55 c 128,-1,384
 777 67 777 67 785 75 c 128,-1,385
 793 83 793 83 804 82 c 0,386,387
 816 82 816 82 824 75 c 0,388,389
 832 67 832 67 832 55 c 0,390,391
 832 44 832 44 824 35 c 0,392,393
 816 27 816 27 804 27 c 1,394,-1
 915.5 27 l 1,395,396
 904 27 904 27 896 35 c 128,-1,397
 888 43 888 43 888 55 c 128,-1,398
 888 67 888 67 896 75 c 128,-1,399
 904 83 904 83 916 82 c 0,400,401
 927 82 927 82 935 75 c 0,402,403
 943 67 943 67 943 55 c 0,404,405
 943 44 943 44 935 35 c 0,406,407
 927 27 927 27 915.5 27 c 1,408,-1
 1165 27 l 1,409,-1
 1165 0 l 1,410,-1
 0 0 l 1,309,-1
EndSplineSet
Validated: 8912901
EndChar

StartChar: colon
Encoding: 58 58 20
Width: 887
VWidth: 1081
Flags: W
HStem: 0 27<0 888> 110 56<535.282 574.749> 194 55<452.251 490.749> 277 55<360.938 407.718> 360 56<285.282 331.789> 443 56<202.251 241.718 244 249.295> 493 11<22 33 77 89 133 144 244 255 300 311 355 366 410 422 466 477 522 532 577 588 632 644 688 699 744 754 799 810 854 866> 971 27<0 888>
VStem: 22 11<493 504> 77 12<493 504> 133 11<493 504> 166 56<35.2817 74.749> 194 56<443.712 490.718> 244 11<493 504> 277 56<35.251 74.749 368.251 414.937> 300 11<493 504> 355 11<493 504> 388 56<35.2817 74.749> 410 12<493 504> 444 55<202.251 240.718> 466 11<493 504> 499 56<35.2817 74.749> 522 10<493 504> 577 11<493 504> 610 56<35.2817 74.749> 632 12<493 504> 688 11<493 504> 744 10<493 504> 799 11<493 504> 854 12<493 504>
LayerCount: 2
Fore
SplineSet
0 971 m 1,0,-1
 0 998 l 1,1,-1
 888 998 l 1,2,-1
 888 971 l 1,3,-1
 0 971 l 1,0,-1
854 493 m 1,4,-1
 854 504 l 1,5,-1
 866 504 l 1,6,-1
 866 493 l 1,7,-1
 854 493 l 1,4,-1
799 493 m 1,8,-1
 799 504 l 1,9,-1
 810 504 l 1,10,-1
 810 493 l 1,11,-1
 799 493 l 1,8,-1
744 493 m 1,12,-1
 744 504 l 1,13,-1
 754 504 l 1,14,-1
 754 493 l 1,15,-1
 744 493 l 1,12,-1
688 493 m 1,16,-1
 688 504 l 1,17,-1
 699 504 l 1,18,-1
 699 493 l 1,19,-1
 688 493 l 1,16,-1
632 493 m 1,20,-1
 632 504 l 1,21,-1
 644 504 l 1,22,-1
 644 493 l 1,23,-1
 632 493 l 1,20,-1
577 493 m 1,24,-1
 577 504 l 1,25,-1
 588 504 l 1,26,-1
 588 493 l 1,27,-1
 577 493 l 1,24,-1
522 493 m 1,28,-1
 522 504 l 1,29,-1
 532 504 l 1,30,-1
 532 493 l 1,31,-1
 522 493 l 1,28,-1
466 493 m 1,32,-1
 466 504 l 1,33,-1
 477 504 l 1,34,-1
 477 493 l 1,35,-1
 466 493 l 1,32,-1
410 493 m 1,36,-1
 410 504 l 1,37,-1
 422 504 l 1,38,-1
 422 493 l 1,39,-1
 410 493 l 1,36,-1
355 493 m 1,40,-1
 355 504 l 1,41,-1
 366 504 l 1,42,-1
 366 493 l 1,43,-1
 355 493 l 1,40,-1
300 493 m 1,44,-1
 300 504 l 1,45,-1
 311 504 l 1,46,-1
 311 493 l 1,47,-1
 300 493 l 1,44,-1
244 493 m 1,48,-1
 244 504 l 1,49,-1
 255 504 l 1,50,-1
 255 493 l 1,51,-1
 244 493 l 1,48,-1
133 493 m 1,52,-1
 133 504 l 1,53,-1
 144 504 l 1,54,-1
 144 493 l 1,55,-1
 133 493 l 1,52,-1
77 493 m 1,56,-1
 77 504 l 1,57,-1
 89 504 l 1,58,-1
 89 493 l 1,59,-1
 77 493 l 1,56,-1
22 493 m 1,60,-1
 22 504 l 1,61,-1
 33 504 l 1,62,-1
 33 493 l 1,63,-1
 22 493 l 1,60,-1
222 443 m 0,64,65
 210 443 210 443 202 452 c 0,66,67
 194 460 194 460 194 471 c 128,-1,68
 194 482 194 482 202 491 c 0,69,70
 210 499 210 499 222 499 c 0,71,72
 233 499 233 499 242 491 c 0,73,74
 250 483 250 483 250 471 c 0,75,76
 250 460 250 460 242 452 c 0,77,78
 233 443 233 443 222 443 c 0,64,65
305 360 m 0,79,80
 294 360 294 360 285 368 c 0,81,82
 277 376 277 376 277 388 c 0,83,84
 277 399 277 399 285 407 c 128,-1,85
 293 415 293 415 305 416 c 0,86,87
 317 416 317 416 324 407 c 0,88,89
 332 399 332 399 333 388 c 0,90,91
 333 377 333 377 324 368 c 0,92,93
 317 360 317 360 305 360 c 0,79,80
388.5 277 m 128,-1,95
 377 277 377 277 369 285 c 128,-1,96
 361 293 361 293 360 304 c 0,97,98
 360 316 360 316 369 324 c 0,99,100
 377 332 377 332 388 332 c 128,-1,101
 399 332 399 332 408 324 c 0,102,103
 416 316 416 316 416 304 c 0,104,105
 416 293 416 293 408 285 c 128,-1,94
 400 277 400 277 388.5 277 c 128,-1,95
472 194 m 0,106,107
 460 194 460 194 452 202 c 128,-1,108
 444 210 444 210 444 221 c 128,-1,109
 444 232 444 232 452 241 c 0,110,111
 460 249 460 249 472 249 c 0,112,113
 483 249 483 249 491 241 c 128,-1,114
 499 233 499 233 499 221 c 128,-1,115
 499 209 499 209 491 202 c 0,116,117
 483 194 483 194 472 194 c 0,106,107
555 110 m 0,118,119
 544 110 544 110 535 118 c 0,120,121
 527 126 527 126 527 138 c 0,122,123
 527 149 527 149 535 158 c 0,124,125
 543 166 543 166 555 166 c 128,-1,126
 567 166 567 166 575 158 c 128,-1,127
 583 150 583 150 582 138 c 0,128,129
 582 127 582 127 575 118 c 0,130,131
 567 110 567 110 555 110 c 0,118,119
0 0 m 1,132,-1
 0 27 l 1,133,-1
 194 27 l 1,134,135
 182 27 182 27 175 35 c 0,136,137
 167 43 167 43 166 55 c 0,138,139
 166 67 166 67 175 75 c 0,140,141
 183 83 183 83 194 82 c 0,142,143
 205 82 205 82 214 75 c 0,144,145
 222 67 222 67 222 55 c 0,146,147
 222 44 222 44 214 35 c 0,148,149
 205 27 205 27 194 27 c 1,150,-1
 305 27 l 1,151,152
 294 27 294 27 285 35 c 0,153,154
 277 43 277 43 277 55 c 128,-1,155
 277 67 277 67 285 75 c 128,-1,156
 293 83 293 83 305 82 c 0,157,158
 317 82 317 82 324 75 c 0,159,160
 332 67 332 67 333 55 c 0,161,162
 333 44 333 44 324 35 c 0,163,164
 317 27 317 27 305 27 c 1,165,-1
 416 27 l 1,166,167
 405 27 405 27 396 35 c 0,168,169
 388 43 388 43 388 55 c 128,-1,170
 388 67 388 67 396 75 c 128,-1,171
 404 83 404 83 416 82 c 0,172,173
 427 82 427 82 436 75 c 0,174,175
 444 67 444 67 444 55 c 0,176,177
 444 44 444 44 436 35 c 0,178,179
 427 27 427 27 416 27 c 1,180,-1
 527 27 l 1,181,182
 515 27 515 27 507 35 c 128,-1,183
 499 43 499 43 499 55 c 128,-1,184
 499 67 499 67 507 75 c 128,-1,185
 515 83 515 83 527 82 c 0,186,187
 538 82 538 82 547 75 c 0,188,189
 555 67 555 67 555 55 c 0,190,191
 555 44 555 44 547 35 c 0,192,193
 538 27 538 27 527 27 c 1,194,-1
 638 27 l 1,195,196
 627 27 627 27 618 35 c 0,197,198
 610 43 610 43 610 55 c 128,-1,199
 610 67 610 67 618 75 c 128,-1,200
 626 83 626 83 638 82 c 0,201,202
 649 82 649 82 658 75 c 0,203,204
 666 67 666 67 666 55 c 0,205,206
 666 44 666 44 658 35 c 0,207,208
 649 27 649 27 638 27 c 1,209,-1
 888 27 l 1,210,-1
 888 0 l 1,211,-1
 0 0 l 1,132,-1
EndSplineSet
Validated: 8388613
EndChar

StartChar: semicolon
Encoding: 59 59 21
Width: 499
VWidth: 1081
Flags: W
HStem: 0 27<0 499> 138 56<230.251 268.749> 249 55<230.251 268.749> 360 56<230.251 268.749> 471 56<230.251 268.749> 493 11<22 33 77 89 133 144 188 200 300 311 355 366 410 422 466 477> 582 55<230.251 268.749> 693 56<230.251 268.749> 804 55<230.251 268.749> 971 27<0 499>
VStem: 22 11<493 504> 77 12<493 504> 133 11<493 504> 188 12<493 504> 222 55<35.2817 74.749 146.282 192.937 257.251 296.718 368.282 414.937 479.251 518.718 590.282 636.436 701.282 747.937 812.282 851.749 923.282 969.937> 300 11<493 504> 355 11<493 504> 410 12<493 504> 466 11<493 504>
LayerCount: 2
Fore
SplineSet
0 971 m 1,0,-1
 0 998 l 1,1,-1
 499 998 l 1,2,-1
 499 971 l 1,3,-1
 250 971 l 1,4,5
 261 971 261 971 269 962 c 0,6,7
 277 954 277 954 277 943 c 128,-1,8
 277 932 277 932 269 923 c 0,9,10
 261 915 261 915 250 915 c 0,11,12
 238 915 238 915 230 923 c 128,-1,13
 222 931 222 931 222 943 c 0,14,15
 222 954 222 954 230 962 c 128,-1,16
 238 970 238 970 250 971 c 1,17,-1
 0 971 l 1,0,-1
250 804 m 0,18,19
 238 804 238 804 230 812 c 128,-1,20
 222 820 222 820 222 832 c 128,-1,21
 222 844 222 844 230 852 c 128,-1,22
 238 860 238 860 250 859 c 0,23,24
 261 859 261 859 269 852 c 0,25,26
 277 844 277 844 277 832 c 0,27,28
 277 821 277 821 269 812 c 0,29,30
 261 804 261 804 250 804 c 0,18,19
250 693 m 0,31,32
 238 693 238 693 230 701 c 128,-1,33
 222 709 222 709 222 721 c 0,34,35
 222 732 222 732 230 740 c 128,-1,36
 238 748 238 748 250 749 c 0,37,38
 261 749 261 749 269 740 c 0,39,40
 277 732 277 732 277 721 c 128,-1,41
 277 710 277 710 269 701 c 0,42,43
 261 693 261 693 250 693 c 0,31,32
250 582 m 0,44,45
 238 582 238 582 230 590 c 128,-1,46
 222 598 222 598 222 610 c 128,-1,47
 222 622 222 622 230 629 c 0,48,49
 238 637 238 637 250 637 c 0,50,51
 261 637 261 637 269 629 c 128,-1,52
 277 621 277 621 277 610 c 128,-1,53
 277 599 277 599 269 590 c 0,54,55
 261 582 261 582 250 582 c 0,44,45
250 471 m 0,56,57
 238 471 238 471 230 479 c 128,-1,58
 222 487 222 487 222 499 c 0,59,60
 222 510 222 510 230 519 c 0,61,62
 238 527 238 527 250 527 c 0,63,64
 261 527 261 527 269 519 c 128,-1,65
 277 511 277 511 277 499 c 128,-1,66
 277 487 277 487 269 479 c 128,-1,67
 261 471 261 471 250 471 c 0,56,57
466 493 m 1,68,-1
 466 504 l 1,69,-1
 477 504 l 1,70,-1
 477 493 l 1,71,-1
 466 493 l 1,68,-1
410 493 m 1,72,-1
 410 504 l 1,73,-1
 422 504 l 1,74,-1
 422 493 l 1,75,-1
 410 493 l 1,72,-1
355 493 m 1,76,-1
 355 504 l 1,77,-1
 366 504 l 1,78,-1
 366 493 l 1,79,-1
 355 493 l 1,76,-1
300 493 m 1,80,-1
 300 504 l 1,81,-1
 311 504 l 1,82,-1
 311 493 l 1,83,-1
 300 493 l 1,80,-1
188 493 m 1,84,-1
 188 504 l 1,85,-1
 200 504 l 1,86,-1
 200 493 l 1,87,-1
 188 493 l 1,84,-1
133 493 m 1,88,-1
 133 504 l 1,89,-1
 144 504 l 1,90,-1
 144 493 l 1,91,-1
 133 493 l 1,88,-1
77 493 m 1,92,-1
 77 504 l 1,93,-1
 89 504 l 1,94,-1
 89 493 l 1,95,-1
 77 493 l 1,92,-1
22 493 m 1,96,-1
 22 504 l 1,97,-1
 33 504 l 1,98,-1
 33 493 l 1,99,-1
 22 493 l 1,96,-1
250 360 m 0,100,101
 238 360 238 360 230 368 c 128,-1,102
 222 376 222 376 222 388 c 0,103,104
 222 399 222 399 230 407 c 128,-1,105
 238 415 238 415 250 416 c 0,106,107
 261 416 261 416 269 407 c 0,108,109
 277 399 277 399 277 388 c 128,-1,110
 277 377 277 377 269 368 c 0,111,112
 261 360 261 360 250 360 c 0,100,101
250 249 m 0,113,114
 238 249 238 249 230 257 c 128,-1,115
 222 265 222 265 222 277 c 0,116,117
 222 288 222 288 230 297 c 0,118,119
 238 305 238 305 250 304 c 0,120,121
 261 304 261 304 269 297 c 0,122,123
 277 289 277 289 277 277 c 128,-1,124
 277 265 277 265 269 257 c 128,-1,125
 261 249 261 249 250 249 c 0,113,114
250 138 m 0,126,127
 238 138 238 138 230 146 c 128,-1,128
 222 154 222 154 222 166 c 0,129,130
 222 177 222 177 230 185 c 128,-1,131
 238 193 238 193 250 194 c 0,132,133
 261 194 261 194 269 185 c 0,134,135
 277 177 277 177 277 166 c 128,-1,136
 277 155 277 155 269 146 c 0,137,138
 261 138 261 138 250 138 c 0,126,127
0 0 m 1,139,-1
 0 27 l 1,140,-1
 250 27 l 1,141,142
 238 27 238 27 230 35 c 128,-1,143
 222 43 222 43 222 55 c 128,-1,144
 222 67 222 67 230 75 c 128,-1,145
 238 83 238 83 250 82 c 0,146,147
 261 82 261 82 269 75 c 0,148,149
 277 67 277 67 277 55 c 0,150,151
 277 44 277 44 269 35 c 0,152,153
 261 27 261 27 250 27 c 1,154,-1
 499 27 l 1,155,-1
 499 0 l 1,156,-1
 0 0 l 1,139,-1
EndSplineSet
Validated: 8388613
EndChar

StartChar: question
Encoding: 63 63 22
Width: 832
VWidth: 1081
Flags: W
HStem: 0 27<0 832> 96 56<438.251 484.937> 194 55<507.251 546.718> 304 56<563.251 601.749> 416 55<584.251 622.749> 493 11<22 33 77 89 133 144 188 200 244 255 300 311 355 366 410 422 466 477 522 532 577 588 632 644 688 699 744 754 799 810> 527 55<584.251 622.749> 637 56<563.251 601.749> 693 56<230.251 268.749> 749 55<507.251 546.718> 804 55<230.251 268.749> 846 55<438.251 484.937> 971 27<0 832>
VStem: 22 11<493 504> 77 12<493 504> 133 11<493 504> 188 12<493 504> 222 55<701.282 747.937 812.282 851.749 923.282 969.937> 244 11<493 504> 300 11<493 504> 333 55<35.2817 74.749 923.282 970.062> 355 11<493 504> 410 12<493 504> 430 56<96.7932 143.718 854.251 892.749> 438 48<96.7932 123.657 846.705 872.657> 466 11<493 504> 499 56<202.251 240.718 757.251 795.749> 522 10<493 504> 555 55<304.635 351.749 637.635 684.718> 576 55<424.251 462.718 535.251 573.749> 577 11<493 504> 632 12<493 504> 688 11<493 504> 744 10<493 504> 799 11<493 504>
LayerCount: 2
Fore
SplineSet
0 971 m 1,0,-1
 0 998 l 1,1,-1
 832 998 l 1,2,-1
 832 971 l 1,3,-1
 360 971 l 1,4,5
 371 971 371 971 380 962 c 0,6,7
 388 954 388 954 388 943 c 128,-1,8
 388 932 388 932 380 923 c 0,9,10
 372 915 372 915 360.5 915 c 128,-1,11
 349 915 349 915 341 923 c 128,-1,12
 333 931 333 931 333 943 c 0,13,14
 333 954 333 954 341 962 c 128,-1,15
 349 970 349 970 360 971 c 1,16,-1
 250 971 l 1,17,18
 261 971 261 971 269 962 c 0,19,20
 277 954 277 954 277 943 c 128,-1,21
 277 932 277 932 269 923 c 0,22,23
 261 915 261 915 250 915 c 0,24,25
 238 915 238 915 230 923 c 128,-1,26
 222 931 222 931 222 943 c 0,27,28
 222 954 222 954 230 962 c 128,-1,29
 238 970 238 970 250 971 c 1,30,-1
 0 971 l 1,0,-1
458 846 m 0,31,32
 446 846 446 846 438 854 c 128,-1,33
 430 862 430 862 430 873 c 0,34,35
 430 885 430 885 438 893 c 128,-1,36
 446 901 446 901 458 901 c 0,37,38
 469 901 469 901 477 893 c 128,-1,39
 485 885 485 885 486 873 c 0,40,41
 486 862 486 862 477 854 c 0,42,43
 469 846 469 846 458 846 c 0,31,32
250 804 m 0,44,45
 238 804 238 804 230 812 c 128,-1,46
 222 820 222 820 222 832 c 128,-1,47
 222 844 222 844 230 852 c 128,-1,48
 238 860 238 860 250 859 c 0,49,50
 261 859 261 859 269 852 c 0,51,52
 277 844 277 844 277 832 c 0,53,54
 277 821 277 821 269 812 c 0,55,56
 261 804 261 804 250 804 c 0,44,45
527 749 m 0,57,58
 515 749 515 749 507 757 c 128,-1,59
 499 765 499 765 499 777 c 0,60,61
 499 788 499 788 507 796 c 128,-1,62
 515 804 515 804 527 804 c 0,63,64
 538 804 538 804 547 796 c 0,65,66
 555 788 555 788 555 777 c 0,67,68
 555 765 555 765 547 757 c 0,69,70
 538 749 538 749 527 749 c 0,57,58
250 693 m 0,71,72
 238 693 238 693 230 701 c 128,-1,73
 222 709 222 709 222 721 c 0,74,75
 222 732 222 732 230 740 c 128,-1,76
 238 748 238 748 250 749 c 0,77,78
 261 749 261 749 269 740 c 0,79,80
 277 732 277 732 277 721 c 128,-1,81
 277 710 277 710 269 701 c 0,82,83
 261 693 261 693 250 693 c 0,71,72
582 637 m 0,84,85
 571 637 571 637 563 646 c 0,86,87
 555 654 555 654 555 665 c 128,-1,88
 555 676 555 676 563 685 c 0,89,90
 571 693 571 693 582 693 c 0,91,92
 594 693 594 693 602 685 c 128,-1,93
 610 677 610 677 610 665 c 0,94,95
 610 654 610 654 602 646 c 0,96,97
 594 637 594 637 582 637 c 0,84,85
604 527 m 0,98,99
 592 527 592 527 584 535 c 128,-1,100
 576 543 576 543 576 555 c 0,101,102
 576 566 576 566 584 574 c 128,-1,103
 592 582 592 582 604 582 c 0,104,105
 615 582 615 582 623 574 c 128,-1,106
 631 566 631 566 631 555 c 0,107,108
 631 543 631 543 623 535 c 128,-1,109
 615 527 615 527 604 527 c 0,98,99
799 493 m 1,110,-1
 799 504 l 1,111,-1
 810 504 l 1,112,-1
 810 493 l 1,113,-1
 799 493 l 1,110,-1
744 493 m 1,114,-1
 744 504 l 1,115,-1
 754 504 l 1,116,-1
 754 493 l 1,117,-1
 744 493 l 1,114,-1
688 493 m 1,118,-1
 688 504 l 1,119,-1
 699 504 l 1,120,-1
 699 493 l 1,121,-1
 688 493 l 1,118,-1
632 493 m 1,122,-1
 632 504 l 1,123,-1
 644 504 l 1,124,-1
 644 493 l 1,125,-1
 632 493 l 1,122,-1
577 493 m 1,126,-1
 577 504 l 1,127,-1
 588 504 l 1,128,-1
 588 493 l 1,129,-1
 577 493 l 1,126,-1
522 493 m 1,130,-1
 522 504 l 1,131,-1
 532 504 l 1,132,-1
 532 493 l 1,133,-1
 522 493 l 1,130,-1
466 493 m 1,134,-1
 466 504 l 1,135,-1
 477 504 l 1,136,-1
 477 493 l 1,137,-1
 466 493 l 1,134,-1
410 493 m 1,138,-1
 410 504 l 1,139,-1
 422 504 l 1,140,-1
 422 493 l 1,141,-1
 410 493 l 1,138,-1
355 493 m 1,142,-1
 355 504 l 1,143,-1
 366 504 l 1,144,-1
 366 493 l 1,145,-1
 355 493 l 1,142,-1
300 493 m 1,146,-1
 300 504 l 1,147,-1
 311 504 l 1,148,-1
 311 493 l 1,149,-1
 300 493 l 1,146,-1
244 493 m 1,150,-1
 244 504 l 1,151,-1
 255 504 l 1,152,-1
 255 493 l 1,153,-1
 244 493 l 1,150,-1
188 493 m 1,154,-1
 188 504 l 1,155,-1
 200 504 l 1,156,-1
 200 493 l 1,157,-1
 188 493 l 1,154,-1
133 493 m 1,158,-1
 133 504 l 1,159,-1
 144 504 l 1,160,-1
 144 493 l 1,161,-1
 133 493 l 1,158,-1
77 493 m 1,162,-1
 77 504 l 1,163,-1
 89 504 l 1,164,-1
 89 493 l 1,165,-1
 77 493 l 1,162,-1
22 493 m 1,166,-1
 22 504 l 1,167,-1
 33 504 l 1,168,-1
 33 493 l 1,169,-1
 22 493 l 1,166,-1
604 416 m 0,170,171
 592 416 592 416 584 424 c 128,-1,172
 576 432 576 432 576 443 c 128,-1,173
 576 454 576 454 584 463 c 0,174,175
 592 471 592 471 604 471 c 0,176,177
 615 471 615 471 623 463 c 128,-1,178
 631 455 631 455 631 443 c 0,179,180
 631 432 631 432 623 424 c 128,-1,181
 615 416 615 416 604 416 c 0,170,171
582 304 m 0,182,183
 571 304 571 304 563 313 c 0,184,185
 555 321 555 321 555 332 c 0,186,187
 555 344 555 344 563 352 c 128,-1,188
 571 360 571 360 582 360 c 0,189,190
 594 360 594 360 602 352 c 128,-1,191
 610 344 610 344 610 332 c 0,192,193
 610 321 610 321 602 313 c 0,194,195
 594 304 594 304 582 304 c 0,182,183
527 194 m 0,196,197
 515 194 515 194 507 202 c 128,-1,198
 499 210 499 210 499 221 c 128,-1,199
 499 232 499 232 507 241 c 0,200,201
 515 249 515 249 527 249 c 0,202,203
 538 249 538 249 547 241 c 0,204,205
 555 233 555 233 555 221 c 128,-1,206
 555 209 555 209 547 202 c 0,207,208
 538 194 538 194 527 194 c 0,196,197
458 96 m 0,209,210
 446 96 446 96 438 105 c 0,211,212
 430 113 430 113 430 124 c 128,-1,213
 430 135 430 135 438 144 c 0,214,215
 446 152 446 152 458 152 c 0,216,217
 469 152 469 152 477 144 c 128,-1,218
 485 136 485 136 486 124 c 0,219,220
 486 113 486 113 477 105 c 0,221,222
 469 96 469 96 458 96 c 0,209,210
0 0 m 1,223,-1
 0 27 l 1,224,-1
 360.5 27 l 1,225,226
 349 27 349 27 341 35 c 128,-1,227
 333 43 333 43 333 55 c 128,-1,228
 333 67 333 67 341 75 c 128,-1,229
 349 83 349 83 360 82 c 0,230,231
 371 82 371 82 380 75 c 0,232,233
 388 67 388 67 388 55 c 0,234,235
 388 44 388 44 380 35 c 0,236,237
 372 27 372 27 360.5 27 c 1,238,-1
 832 27 l 1,239,-1
 832 0 l 1,240,-1
 0 0 l 1,223,-1
EndSplineSet
Validated: 8912901
EndChar

StartChar: A
Encoding: 65 65 23
Width: 1276
VWidth: 1081
Flags: W
HStem: 0 27<0 1277> 138 56<230.251 268.749 1007.25 1053.79> 146 48<250.343 276.295 1027.34 1053.79> 249 55<230.251 268.749 952.251 990.718> 360 56<230.251 268.749 341.251 379.749 452.251 490.749 563.251 601.749 674.251 712.749 785.251 823.749 896.251 934.749> 493 11<22 33 77 89 133 144 188 200 244 255 300 311 355 366 410 422 466 477 522 532 577 588 632 644 688 699 744 754 799 810 854 866 910 921 965 977 1021 1032 1077 1088 1132 1143 1187 1199 1243 1254> 582 55<230.251 268.749 341.251 379.718 452.251 490.749 563.251 601.749 674.251 712.749 785.251 823.749 896.251 934.749> 693 56<230.251 268.749 944.063 990.718> 701 48<250.343 276.295 971.343 998.295> 804 55<230.251 268.749 1007.25 1045.75> 971 27<0 1277>
VStem: 22 11<493 504> 77 12<493 504> 133 11<493 504> 188 12<493 504> 222 55<35.2817 74.749 146.282 192.937 257.251 296.718 368.282 414.937 590.282 636.436 701.282 747.937 812.282 851.749 923.282 969.937> 244 11<493 504> 300 11<493 504> 333 55<368.282 415.062 590.282 628.749> 355 11<493 504> 410 12<493 504> 444 55<368.282 414.937 590.282 636.436> 466 11<493 504> 522 10<493 504> 555 55<368.282 415.062 590.282 628.749> 577 11<493 504> 632 12<493 504> 666 55<368.282 414.937 590.282 636.436> 688 11<493 504> 744 10<493 504> 777 55<368.282 415.062 590.282 628.749> 799 11<493 504> 854 12<493 504> 888 55<368.282 414.937 590.282 636.436> 910 11<493 504> 943 56<257.251 296.718 701.282 747.789> 943 48<277.374 296.718 721.343 747.789> 965 12<493 504> 999 56<146.251 192.937 812.251 851.749> 1007 48<138.705 165.626 804.705 831.626> 1021 11<493 504> 1055 55<35.2817 74.749 923.282 961.749> 1077 11<493 504> 1132 11<493 504> 1187 12<493 504> 1243 11<493 504>
LayerCount: 2
Fore
SplineSet
0 971 m 1,0,-1
 0 998 l 1,1,-1
 1277 998 l 1,2,-1
 1277 971 l 1,3,-1
 1082 971 l 1,4,5
 1094 971 1094 971 1102 962 c 0,6,7
 1110 954 1110 954 1110 943 c 128,-1,8
 1110 932 1110 932 1102 923 c 0,9,10
 1094 915 1094 915 1082 915 c 0,11,12
 1071 915 1071 915 1062 923 c 0,13,14
 1054 931 1054 931 1055 943 c 0,15,16
 1055 954 1055 954 1062 962 c 0,17,18
 1070 970 1070 970 1082 971 c 1,19,-1
 250 971 l 1,20,21
 261 971 261 971 269 962 c 0,22,23
 277 954 277 954 277 943 c 128,-1,24
 277 932 277 932 269 923 c 0,25,26
 261 915 261 915 250 915 c 0,27,28
 238 915 238 915 230 923 c 128,-1,29
 222 931 222 931 222 943 c 0,30,31
 222 954 222 954 230 962 c 128,-1,32
 238 970 238 970 250 971 c 1,33,-1
 0 971 l 1,0,-1
1027 804 m 0,34,35
 1015 804 1015 804 1007 812 c 128,-1,36
 999 820 999 820 999 832 c 128,-1,37
 999 844 999 844 1007 852 c 128,-1,38
 1015 860 1015 860 1027 859 c 0,39,40
 1038 859 1038 859 1046 852 c 0,41,42
 1054 844 1054 844 1055 832 c 0,43,44
 1055 821 1055 821 1046 812 c 0,45,46
 1038 804 1038 804 1027 804 c 0,34,35
250 804 m 0,47,48
 238 804 238 804 230 812 c 128,-1,49
 222 820 222 820 222 832 c 128,-1,50
 222 844 222 844 230 852 c 128,-1,51
 238 860 238 860 250 859 c 0,52,53
 261 859 261 859 269 852 c 0,54,55
 277 844 277 844 277 832 c 0,56,57
 277 821 277 821 269 812 c 0,58,59
 261 804 261 804 250 804 c 0,47,48
971 693 m 128,-1,61
 960 693 960 693 952 701 c 128,-1,62
 944 709 944 709 943 721 c 0,63,64
 943 732 943 732 952 740 c 0,65,66
 960 748 960 748 971 749 c 0,67,68
 982 749 982 749 991 740 c 0,69,70
 999 732 999 732 999 721 c 128,-1,71
 999 710 999 710 991 701 c 0,72,60
 982 693 982 693 971 693 c 128,-1,61
250 693 m 0,73,74
 238 693 238 693 230 701 c 128,-1,75
 222 709 222 709 222 721 c 0,76,77
 222 732 222 732 230 740 c 128,-1,78
 238 748 238 748 250 749 c 0,79,80
 261 749 261 749 269 740 c 0,81,82
 277 732 277 732 277 721 c 128,-1,83
 277 710 277 710 269 701 c 0,84,85
 261 693 261 693 250 693 c 0,73,74
915.5 582 m 128,-1,87
 904 582 904 582 896 590 c 128,-1,88
 888 598 888 598 888 610 c 128,-1,89
 888 622 888 622 896 629 c 0,90,91
 904 637 904 637 916 637 c 0,92,93
 927 637 927 637 935 629 c 128,-1,94
 943 621 943 621 943 610 c 128,-1,95
 943 599 943 599 935 590 c 0,96,86
 927 582 927 582 915.5 582 c 128,-1,87
804 582 m 0,97,98
 793 582 793 582 785 590 c 128,-1,99
 777 598 777 598 777 610 c 128,-1,100
 777 622 777 622 785 629 c 0,101,102
 793 637 793 637 804 637 c 0,103,104
 816 637 816 637 824 629 c 128,-1,105
 832 621 832 621 832 610 c 128,-1,106
 832 599 832 599 824 590 c 0,107,108
 816 582 816 582 804 582 c 0,97,98
693.5 582 m 128,-1,110
 682 582 682 582 674 590 c 128,-1,111
 666 598 666 598 666 610 c 128,-1,112
 666 622 666 622 674 629 c 0,113,114
 682 637 682 637 694 637 c 0,115,116
 705 637 705 637 713 629 c 128,-1,117
 721 621 721 621 721 610 c 128,-1,118
 721 599 721 599 713 590 c 0,119,109
 705 582 705 582 693.5 582 c 128,-1,110
582 582 m 0,120,121
 571 582 571 582 563 590 c 128,-1,122
 555 598 555 598 555 610 c 128,-1,123
 555 622 555 622 563 629 c 0,124,125
 571 637 571 637 582 637 c 0,126,127
 594 637 594 637 602 629 c 128,-1,128
 610 621 610 621 610 610 c 128,-1,129
 610 599 610 599 602 590 c 0,130,131
 594 582 594 582 582 582 c 0,120,121
472 582 m 0,132,133
 460 582 460 582 452 590 c 128,-1,134
 444 598 444 598 444 610 c 128,-1,135
 444 622 444 622 452 629 c 0,136,137
 460 637 460 637 472 637 c 0,138,139
 483 637 483 637 491 629 c 128,-1,140
 499 621 499 621 499 610 c 128,-1,141
 499 599 499 599 491 590 c 0,142,143
 483 582 483 582 472 582 c 0,132,133
360.5 582 m 128,-1,145
 349 582 349 582 341 590 c 128,-1,146
 333 598 333 598 333 610 c 128,-1,147
 333 622 333 622 341 629 c 0,148,149
 349 637 349 637 360 637 c 128,-1,150
 371 637 371 637 380 629 c 0,151,152
 388 621 388 621 388 610 c 128,-1,153
 388 599 388 599 380 590 c 0,154,144
 372 582 372 582 360.5 582 c 128,-1,145
250 582 m 0,155,156
 238 582 238 582 230 590 c 128,-1,157
 222 598 222 598 222 610 c 128,-1,158
 222 622 222 622 230 629 c 0,159,160
 238 637 238 637 250 637 c 0,161,162
 261 637 261 637 269 629 c 128,-1,163
 277 621 277 621 277 610 c 128,-1,164
 277 599 277 599 269 590 c 0,165,166
 261 582 261 582 250 582 c 0,155,156
1243 493 m 1,167,-1
 1243 504 l 1,168,-1
 1254 504 l 1,169,-1
 1254 493 l 1,170,-1
 1243 493 l 1,167,-1
1187 493 m 1,171,-1
 1187 504 l 1,172,-1
 1199 504 l 1,173,-1
 1199 493 l 1,174,-1
 1187 493 l 1,171,-1
1132 493 m 1,175,-1
 1132 504 l 1,176,-1
 1143 504 l 1,177,-1
 1143 493 l 1,178,-1
 1132 493 l 1,175,-1
1077 493 m 1,179,-1
 1077 504 l 1,180,-1
 1088 504 l 1,181,-1
 1088 493 l 1,182,-1
 1077 493 l 1,179,-1
1021 493 m 1,183,-1
 1021 504 l 1,184,-1
 1032 504 l 1,185,-1
 1032 493 l 1,186,-1
 1021 493 l 1,183,-1
965 493 m 1,187,-1
 965 504 l 1,188,-1
 977 504 l 1,189,-1
 977 493 l 1,190,-1
 965 493 l 1,187,-1
910 493 m 1,191,-1
 910 504 l 1,192,-1
 921 504 l 1,193,-1
 921 493 l 1,194,-1
 910 493 l 1,191,-1
854 493 m 1,195,-1
 854 504 l 1,196,-1
 866 504 l 1,197,-1
 866 493 l 1,198,-1
 854 493 l 1,195,-1
799 493 m 1,199,-1
 799 504 l 1,200,-1
 810 504 l 1,201,-1
 810 493 l 1,202,-1
 799 493 l 1,199,-1
744 493 m 1,203,-1
 744 504 l 1,204,-1
 754 504 l 1,205,-1
 754 493 l 1,206,-1
 744 493 l 1,203,-1
688 493 m 1,207,-1
 688 504 l 1,208,-1
 699 504 l 1,209,-1
 699 493 l 1,210,-1
 688 493 l 1,207,-1
632 493 m 1,211,-1
 632 504 l 1,212,-1
 644 504 l 1,213,-1
 644 493 l 1,214,-1
 632 493 l 1,211,-1
577 493 m 1,215,-1
 577 504 l 1,216,-1
 588 504 l 1,217,-1
 588 493 l 1,218,-1
 577 493 l 1,215,-1
522 493 m 1,219,-1
 522 504 l 1,220,-1
 532 504 l 1,221,-1
 532 493 l 1,222,-1
 522 493 l 1,219,-1
466 493 m 1,223,-1
 466 504 l 1,224,-1
 477 504 l 1,225,-1
 477 493 l 1,226,-1
 466 493 l 1,223,-1
410 493 m 1,227,-1
 410 504 l 1,228,-1
 422 504 l 1,229,-1
 422 493 l 1,230,-1
 410 493 l 1,227,-1
355 493 m 1,231,-1
 355 504 l 1,232,-1
 366 504 l 1,233,-1
 366 493 l 1,234,-1
 355 493 l 1,231,-1
300 493 m 1,235,-1
 300 504 l 1,236,-1
 311 504 l 1,237,-1
 311 493 l 1,238,-1
 300 493 l 1,235,-1
244 493 m 1,239,-1
 244 504 l 1,240,-1
 255 504 l 1,241,-1
 255 493 l 1,242,-1
 244 493 l 1,239,-1
188 493 m 1,243,-1
 188 504 l 1,244,-1
 200 504 l 1,245,-1
 200 493 l 1,246,-1
 188 493 l 1,243,-1
133 493 m 1,247,-1
 133 504 l 1,248,-1
 144 504 l 1,249,-1
 144 493 l 1,250,-1
 133 493 l 1,247,-1
77 493 m 1,251,-1
 77 504 l 1,252,-1
 89 504 l 1,253,-1
 89 493 l 1,254,-1
 77 493 l 1,251,-1
22 493 m 1,255,-1
 22 504 l 1,256,-1
 33 504 l 1,257,-1
 33 493 l 1,258,-1
 22 493 l 1,255,-1
915.5 360 m 128,-1,260
 904 360 904 360 896 368 c 128,-1,261
 888 376 888 376 888 388 c 0,262,263
 888 399 888 399 896 407 c 128,-1,264
 904 415 904 415 916 416 c 0,265,266
 927 416 927 416 935 407 c 0,267,268
 943 399 943 399 943 388 c 128,-1,269
 943 377 943 377 935 368 c 0,270,259
 927 360 927 360 915.5 360 c 128,-1,260
804 360 m 0,271,272
 793 360 793 360 785 368 c 128,-1,273
 777 376 777 376 777 388 c 0,274,275
 777 399 777 399 785 407 c 128,-1,276
 793 415 793 415 804 416 c 0,277,278
 816 416 816 416 824 407 c 0,279,280
 832 399 832 399 832 388 c 128,-1,281
 832 377 832 377 824 368 c 0,282,283
 816 360 816 360 804 360 c 0,271,272
693.5 360 m 128,-1,285
 682 360 682 360 674 368 c 128,-1,286
 666 376 666 376 666 388 c 0,287,288
 666 399 666 399 674 407 c 128,-1,289
 682 415 682 415 694 416 c 0,290,291
 705 416 705 416 713 407 c 0,292,293
 721 399 721 399 721 388 c 128,-1,294
 721 377 721 377 713 368 c 0,295,284
 705 360 705 360 693.5 360 c 128,-1,285
582 360 m 0,296,297
 571 360 571 360 563 368 c 128,-1,298
 555 376 555 376 555 388 c 0,299,300
 555 399 555 399 563 407 c 128,-1,301
 571 415 571 415 582 416 c 0,302,303
 594 416 594 416 602 407 c 0,304,305
 610 399 610 399 610 388 c 128,-1,306
 610 377 610 377 602 368 c 0,307,308
 594 360 594 360 582 360 c 0,296,297
472 360 m 0,309,310
 460 360 460 360 452 368 c 128,-1,311
 444 376 444 376 444 388 c 0,312,313
 444 399 444 399 452 407 c 128,-1,314
 460 415 460 415 472 416 c 0,315,316
 483 416 483 416 491 407 c 0,317,318
 499 399 499 399 499 388 c 128,-1,319
 499 377 499 377 491 368 c 0,320,321
 483 360 483 360 472 360 c 0,309,310
360.5 360 m 128,-1,323
 349 360 349 360 341 368 c 128,-1,324
 333 376 333 376 333 388 c 0,325,326
 333 399 333 399 341 407 c 128,-1,327
 349 415 349 415 360 416 c 0,328,329
 371 416 371 416 380 407 c 0,330,331
 388 399 388 399 388 388 c 128,-1,332
 388 377 388 377 380 368 c 0,333,322
 372 360 372 360 360.5 360 c 128,-1,323
250 360 m 0,334,335
 238 360 238 360 230 368 c 128,-1,336
 222 376 222 376 222 388 c 0,337,338
 222 399 222 399 230 407 c 128,-1,339
 238 415 238 415 250 416 c 0,340,341
 261 416 261 416 269 407 c 0,342,343
 277 399 277 399 277 388 c 128,-1,344
 277 377 277 377 269 368 c 0,345,346
 261 360 261 360 250 360 c 0,334,335
971 249 m 128,-1,348
 960 249 960 249 952 257 c 128,-1,349
 944 265 944 265 943 277 c 0,350,351
 943 288 943 288 952 297 c 0,352,353
 960 305 960 305 971 304 c 0,354,355
 982 304 982 304 991 297 c 0,356,357
 999 289 999 289 999 277 c 128,-1,358
 999 265 999 265 991 257 c 0,359,347
 982 249 982 249 971 249 c 128,-1,348
250 249 m 0,360,361
 238 249 238 249 230 257 c 128,-1,362
 222 265 222 265 222 277 c 0,363,364
 222 288 222 288 230 297 c 0,365,366
 238 305 238 305 250 304 c 0,367,368
 261 304 261 304 269 297 c 0,369,370
 277 289 277 289 277 277 c 128,-1,371
 277 265 277 265 269 257 c 128,-1,372
 261 249 261 249 250 249 c 0,360,361
1027 138 m 0,373,374
 1015 138 1015 138 1007 146 c 128,-1,375
 999 154 999 154 999 166 c 0,376,377
 999 177 999 177 1007 185 c 128,-1,378
 1015 193 1015 193 1027 194 c 0,379,380
 1038 194 1038 194 1046 185 c 0,381,382
 1054 177 1054 177 1055 166 c 0,383,384
 1055 155 1055 155 1046 146 c 0,385,386
 1038 138 1038 138 1027 138 c 0,373,374
250 138 m 0,387,388
 238 138 238 138 230 146 c 128,-1,389
 222 154 222 154 222 166 c 0,390,391
 222 177 222 177 230 185 c 128,-1,392
 238 193 238 193 250 194 c 0,393,394
 261 194 261 194 269 185 c 0,395,396
 277 177 277 177 277 166 c 128,-1,397
 277 155 277 155 269 146 c 0,398,399
 261 138 261 138 250 138 c 0,387,388
0 0 m 1,400,-1
 0 27 l 1,401,-1
 250 27 l 1,402,403
 238 27 238 27 230 35 c 128,-1,404
 222 43 222 43 222 55 c 128,-1,405
 222 67 222 67 230 75 c 128,-1,406
 238 83 238 83 250 82 c 0,407,408
 261 82 261 82 269 75 c 0,409,410
 277 67 277 67 277 55 c 0,411,412
 277 44 277 44 269 35 c 0,413,414
 261 27 261 27 250 27 c 1,415,-1
 1082 27 l 1,416,417
 1071 27 1071 27 1062 35 c 0,418,419
 1054 43 1054 43 1055 55 c 0,420,421
 1055 67 1055 67 1062 75 c 0,422,423
 1070 83 1070 83 1082 82 c 0,424,425
 1094 82 1094 82 1102 75 c 0,426,427
 1110 67 1110 67 1110 55 c 0,428,429
 1110 44 1110 44 1102 35 c 0,430,431
 1094 27 1094 27 1082 27 c 1,432,-1
 1277 27 l 1,433,-1
 1277 0 l 1,434,-1
 0 0 l 1,400,-1
EndSplineSet
Validated: 8912901
EndChar

StartChar: B
Encoding: 66 66 24
Width: 1276
VWidth: 1081
Flags: W
HStem: 0 27<0 1277> 138 56<285.282 331.789 944.063 990.718> 146 48<305.374 331.789 971.343 998.295> 249 55<230.251 268.749 1007.25 1045.75> 471 56<396.282 435.718 507.251 546.718 618.282 657.718 722.063 768.718 840.282 879.749> 493 11<22 33 77 89 133 144 188 200 244 255 300 311 355 366 466 477 577 588 688 699 799 810 910 921 965 977 1021 1032 1077 1088 1132 1143 1187 1199 1243 1254> 693 56<230.251 268.749 1007.25 1053.79> 701 48<250.343 276.295 1027.34 1053.79> 804 55<285.282 323.78 944.063 990.718> 971 27<0 1277>
VStem: 22 11<493 504> 77 12<493 504> 133 11<493 504> 188 12<493 504> 222 55<257.251 296.718 701.282 747.937> 244 11<493 504> 277 56<146.251 192.937 812.251 851.749> 285 48<138.564 165.626 804.564 831.626> 300 11<493 504> 333 55<35.2817 74.749 923.282 970.062> 355 11<493 504> 388 56<479.251 518.718> 444 55<35.2817 74.749 923.282 969.937> 466 11<493 504> 499 56<479.251 518.718> 555 55<35.2817 74.749 923.282 970.062> 577 11<493 504> 610 56<479.251 518.718> 666 55<35.2817 74.749 923.282 969.937> 688 11<493 504> 721 56<479.251 518.749> 777 55<35.2817 74.749 923.282 970.062> 799 11<493 504> 832 56<479.251 518.718> 888 55<35.2817 74.749 923.282 969.937> 910 11<493 504> 943 56<146.282 192.789 812.282 851.749> 943 48<166.343 192.789 832.374 858.801> 965 12<493 504> 999 56<257.251 296.718 701.251 747.937> 1007 48<249.705 276.626 693.705 720.626> 1021 11<493 504> 1077 11<493 504> 1132 11<493 504> 1187 12<493 504> 1243 11<493 504>
LayerCount: 2
Fore
SplineSet
0 971 m 1,0,-1
 0 998 l 1,1,-1
 1277 998 l 1,2,-1
 1277 971 l 1,3,-1
 916 971 l 1,4,5
 927 971 927 971 935 962 c 0,6,7
 943 954 943 954 943 943 c 128,-1,8
 943 932 943 932 935 923 c 0,9,10
 927 915 927 915 915.5 915 c 128,-1,11
 904 915 904 915 896 923 c 128,-1,12
 888 931 888 931 888 943 c 0,13,14
 888 954 888 954 896 962 c 128,-1,15
 904 970 904 970 916 971 c 1,16,-1
 804 971 l 1,17,18
 816 971 816 971 824 962 c 0,19,20
 832 954 832 954 832 943 c 128,-1,21
 832 932 832 932 824 923 c 0,22,23
 816 915 816 915 804 915 c 0,24,25
 793 915 793 915 785 923 c 128,-1,26
 777 931 777 931 777 943 c 0,27,28
 777 954 777 954 785 962 c 128,-1,29
 793 970 793 970 804 971 c 1,30,-1
 694 971 l 1,31,32
 705 971 705 971 713 962 c 0,33,34
 721 954 721 954 721 943 c 128,-1,35
 721 932 721 932 713 923 c 0,36,37
 705 915 705 915 693.5 915 c 128,-1,38
 682 915 682 915 674 923 c 128,-1,39
 666 931 666 931 666 943 c 0,40,41
 666 954 666 954 674 962 c 128,-1,42
 682 970 682 970 694 971 c 1,43,-1
 582 971 l 1,44,45
 594 971 594 971 602 962 c 0,46,47
 610 954 610 954 610 943 c 128,-1,48
 610 932 610 932 602 923 c 0,49,50
 594 915 594 915 582 915 c 0,51,52
 571 915 571 915 563 923 c 128,-1,53
 555 931 555 931 555 943 c 0,54,55
 555 954 555 954 563 962 c 128,-1,56
 571 970 571 970 582 971 c 1,57,-1
 472 971 l 1,58,59
 483 971 483 971 491 962 c 0,60,61
 499 954 499 954 499 943 c 128,-1,62
 499 932 499 932 491 923 c 0,63,64
 483 915 483 915 472 915 c 0,65,66
 460 915 460 915 452 923 c 128,-1,67
 444 931 444 931 444 943 c 0,68,69
 444 954 444 954 452 962 c 128,-1,70
 460 970 460 970 472 971 c 1,71,-1
 360 971 l 1,72,73
 371 971 371 971 380 962 c 0,74,75
 388 954 388 954 388 943 c 128,-1,76
 388 932 388 932 380 923 c 0,77,78
 372 915 372 915 360.5 915 c 128,-1,79
 349 915 349 915 341 923 c 128,-1,80
 333 931 333 931 333 943 c 0,81,82
 333 954 333 954 341 962 c 128,-1,83
 349 970 349 970 360 971 c 1,84,-1
 0 971 l 1,0,-1
971 804 m 128,-1,86
 960 804 960 804 952 812 c 128,-1,87
 944 820 944 820 943 832 c 0,88,89
 943 844 943 844 952 852 c 0,90,91
 960 860 960 860 971 859 c 0,92,93
 982 859 982 859 991 852 c 0,94,95
 999 844 999 844 999 832 c 0,96,97
 999 821 999 821 991 812 c 0,98,85
 982 804 982 804 971 804 c 128,-1,86
305 804 m 0,99,100
 294 804 294 804 285 812 c 0,101,102
 277 820 277 820 277 832 c 128,-1,103
 277 844 277 844 285 852 c 128,-1,104
 293 860 293 860 305 859 c 0,105,106
 317 859 317 859 324 852 c 0,107,108
 332 844 332 844 333 832 c 0,109,110
 333 821 333 821 324 812 c 0,111,112
 317 804 317 804 305 804 c 0,99,100
1027 693 m 0,113,114
 1015 693 1015 693 1007 701 c 128,-1,115
 999 709 999 709 999 721 c 0,116,117
 999 732 999 732 1007 740 c 128,-1,118
 1015 748 1015 748 1027 749 c 0,119,120
 1038 749 1038 749 1046 740 c 0,121,122
 1054 732 1054 732 1055 721 c 0,123,124
 1055 710 1055 710 1046 701 c 0,125,126
 1038 693 1038 693 1027 693 c 0,113,114
250 693 m 0,127,128
 238 693 238 693 230 701 c 128,-1,129
 222 709 222 709 222 721 c 0,130,131
 222 732 222 732 230 740 c 128,-1,132
 238 748 238 748 250 749 c 0,133,134
 261 749 261 749 269 740 c 0,135,136
 277 732 277 732 277 721 c 128,-1,137
 277 710 277 710 269 701 c 0,138,139
 261 693 261 693 250 693 c 0,127,128
860 471 m 0,140,141
 849 471 849 471 840 479 c 0,142,143
 832 487 832 487 832 499 c 0,144,145
 832 510 832 510 840 519 c 0,146,147
 848 527 848 527 860 527 c 128,-1,148
 872 527 872 527 880 519 c 128,-1,149
 888 511 888 511 888 499 c 128,-1,150
 888 487 888 487 880 479 c 128,-1,151
 872 471 872 471 860 471 c 0,140,141
749 471 m 0,152,153
 737 471 737 471 730 479 c 0,154,155
 722 487 722 487 721 499 c 0,156,157
 721 510 721 510 730 519 c 0,158,159
 738 527 738 527 749 527 c 128,-1,160
 760 527 760 527 769 519 c 0,161,162
 777 511 777 511 777 499 c 128,-1,163
 777 487 777 487 769 479 c 0,164,165
 760 471 760 471 749 471 c 0,152,153
638 471 m 128,-1,167
 627 471 627 471 618 479 c 0,168,169
 610 487 610 487 610 499 c 0,170,171
 610 510 610 510 618 519 c 0,172,173
 626 527 626 527 638 527 c 0,174,175
 649 527 649 527 658 519 c 0,176,177
 666 511 666 511 666 499 c 128,-1,178
 666 487 666 487 658 479 c 0,179,166
 649 471 649 471 638 471 c 128,-1,167
527 471 m 0,180,181
 515 471 515 471 507 479 c 128,-1,182
 499 487 499 487 499 499 c 0,183,184
 499 510 499 510 507 519 c 0,185,186
 515 527 515 527 527 527 c 0,187,188
 538 527 538 527 547 519 c 0,189,190
 555 511 555 511 555 499 c 128,-1,191
 555 487 555 487 547 479 c 0,192,193
 538 471 538 471 527 471 c 0,180,181
416 471 m 128,-1,195
 405 471 405 471 396 479 c 0,196,197
 388 487 388 487 388 499 c 0,198,199
 388 510 388 510 396 519 c 0,200,201
 404 527 404 527 416 527 c 0,202,203
 427 527 427 527 436 519 c 0,204,205
 444 511 444 511 444 499 c 128,-1,206
 444 487 444 487 436 479 c 0,207,194
 427 471 427 471 416 471 c 128,-1,195
1243 493 m 1,208,-1
 1243 504 l 1,209,-1
 1254 504 l 1,210,-1
 1254 493 l 1,211,-1
 1243 493 l 1,208,-1
1187 493 m 1,212,-1
 1187 504 l 1,213,-1
 1199 504 l 1,214,-1
 1199 493 l 1,215,-1
 1187 493 l 1,212,-1
1132 493 m 1,216,-1
 1132 504 l 1,217,-1
 1143 504 l 1,218,-1
 1143 493 l 1,219,-1
 1132 493 l 1,216,-1
1077 493 m 1,220,-1
 1077 504 l 1,221,-1
 1088 504 l 1,222,-1
 1088 493 l 1,223,-1
 1077 493 l 1,220,-1
1021 493 m 1,224,-1
 1021 504 l 1,225,-1
 1032 504 l 1,226,-1
 1032 493 l 1,227,-1
 1021 493 l 1,224,-1
965 493 m 1,228,-1
 965 504 l 1,229,-1
 977 504 l 1,230,-1
 977 493 l 1,231,-1
 965 493 l 1,228,-1
910 493 m 1,232,-1
 910 504 l 1,233,-1
 921 504 l 1,234,-1
 921 493 l 1,235,-1
 910 493 l 1,232,-1
799 493 m 1,236,-1
 799 504 l 1,237,-1
 810 504 l 1,238,-1
 810 493 l 1,239,-1
 799 493 l 1,236,-1
688 493 m 1,240,-1
 688 504 l 1,241,-1
 699 504 l 1,242,-1
 699 493 l 1,243,-1
 688 493 l 1,240,-1
577 493 m 1,244,-1
 577 504 l 1,245,-1
 588 504 l 1,246,-1
 588 493 l 1,247,-1
 577 493 l 1,244,-1
466 493 m 1,248,-1
 466 504 l 1,249,-1
 477 504 l 1,250,-1
 477 493 l 1,251,-1
 466 493 l 1,248,-1
355 493 m 1,252,-1
 355 504 l 1,253,-1
 366 504 l 1,254,-1
 366 493 l 1,255,-1
 355 493 l 1,252,-1
300 493 m 1,256,-1
 300 504 l 1,257,-1
 311 504 l 1,258,-1
 311 493 l 1,259,-1
 300 493 l 1,256,-1
244 493 m 1,260,-1
 244 504 l 1,261,-1
 255 504 l 1,262,-1
 255 493 l 1,263,-1
 244 493 l 1,260,-1
188 493 m 1,264,-1
 188 504 l 1,265,-1
 200 504 l 1,266,-1
 200 493 l 1,267,-1
 188 493 l 1,264,-1
133 493 m 1,268,-1
 133 504 l 1,269,-1
 144 504 l 1,270,-1
 144 493 l 1,271,-1
 133 493 l 1,268,-1
77 493 m 1,272,-1
 77 504 l 1,273,-1
 89 504 l 1,274,-1
 89 493 l 1,275,-1
 77 493 l 1,272,-1
22 493 m 1,276,-1
 22 504 l 1,277,-1
 33 504 l 1,278,-1
 33 493 l 1,279,-1
 22 493 l 1,276,-1
1027 249 m 0,280,281
 1015 249 1015 249 1007 257 c 128,-1,282
 999 265 999 265 999 277 c 0,283,284
 999 288 999 288 1007 297 c 0,285,286
 1015 305 1015 305 1027 304 c 0,287,288
 1038 304 1038 304 1046 297 c 0,289,290
 1054 289 1054 289 1055 277 c 0,291,292
 1055 265 1055 265 1046 257 c 0,293,294
 1038 249 1038 249 1027 249 c 0,280,281
250 249 m 0,295,296
 238 249 238 249 230 257 c 128,-1,297
 222 265 222 265 222 277 c 0,298,299
 222 288 222 288 230 297 c 0,300,301
 238 305 238 305 250 304 c 0,302,303
 261 304 261 304 269 297 c 0,304,305
 277 289 277 289 277 277 c 128,-1,306
 277 265 277 265 269 257 c 128,-1,307
 261 249 261 249 250 249 c 0,295,296
971 138 m 128,-1,309
 960 138 960 138 952 146 c 128,-1,310
 944 154 944 154 943 166 c 0,311,312
 943 177 943 177 952 185 c 0,313,314
 960 193 960 193 971 194 c 0,315,316
 982 194 982 194 991 185 c 0,317,318
 999 177 999 177 999 166 c 128,-1,319
 999 155 999 155 991 146 c 0,320,308
 982 138 982 138 971 138 c 128,-1,309
305 138 m 0,321,322
 294 138 294 138 285 146 c 0,323,324
 277 154 277 154 277 166 c 0,325,326
 277 177 277 177 285 185 c 128,-1,327
 293 193 293 193 305 194 c 0,328,329
 317 194 317 194 324 185 c 0,330,331
 332 177 332 177 333 166 c 0,332,333
 333 155 333 155 324 146 c 0,334,335
 317 138 317 138 305 138 c 0,321,322
0 0 m 1,336,-1
 0 27 l 1,337,-1
 360.5 27 l 1,338,339
 349 27 349 27 341 35 c 128,-1,340
 333 43 333 43 333 55 c 128,-1,341
 333 67 333 67 341 75 c 128,-1,342
 349 83 349 83 360 82 c 0,343,344
 371 82 371 82 380 75 c 0,345,346
 388 67 388 67 388 55 c 0,347,348
 388 44 388 44 380 35 c 0,349,350
 372 27 372 27 360.5 27 c 1,351,-1
 472 27 l 1,352,353
 460 27 460 27 452 35 c 128,-1,354
 444 43 444 43 444 55 c 128,-1,355
 444 67 444 67 452 75 c 128,-1,356
 460 83 460 83 472 82 c 0,357,358
 483 82 483 82 491 75 c 0,359,360
 499 67 499 67 499 55 c 0,361,362
 499 44 499 44 491 35 c 0,363,364
 483 27 483 27 472 27 c 1,365,-1
 582 27 l 1,366,367
 571 27 571 27 563 35 c 128,-1,368
 555 43 555 43 555 55 c 128,-1,369
 555 67 555 67 563 75 c 128,-1,370
 571 83 571 83 582 82 c 0,371,372
 594 82 594 82 602 75 c 0,373,374
 610 67 610 67 610 55 c 0,375,376
 610 44 610 44 602 35 c 0,377,378
 594 27 594 27 582 27 c 1,379,-1
 693.5 27 l 1,380,381
 682 27 682 27 674 35 c 128,-1,382
 666 43 666 43 666 55 c 128,-1,383
 666 67 666 67 674 75 c 128,-1,384
 682 83 682 83 694 82 c 0,385,386
 705 82 705 82 713 75 c 0,387,388
 721 67 721 67 721 55 c 0,389,390
 721 44 721 44 713 35 c 0,391,392
 705 27 705 27 693.5 27 c 1,393,-1
 804 27 l 1,394,395
 793 27 793 27 785 35 c 128,-1,396
 777 43 777 43 777 55 c 128,-1,397
 777 67 777 67 785 75 c 128,-1,398
 793 83 793 83 804 82 c 0,399,400
 816 82 816 82 824 75 c 0,401,402
 832 67 832 67 832 55 c 0,403,404
 832 44 832 44 824 35 c 0,405,406
 816 27 816 27 804 27 c 1,407,-1
 915.5 27 l 1,408,409
 904 27 904 27 896 35 c 128,-1,410
 888 43 888 43 888 55 c 128,-1,411
 888 67 888 67 896 75 c 128,-1,412
 904 83 904 83 916 82 c 0,413,414
 927 82 927 82 935 75 c 0,415,416
 943 67 943 67 943 55 c 0,417,418
 943 44 943 44 935 35 c 0,419,420
 927 27 927 27 915.5 27 c 1,421,-1
 1277 27 l 1,422,-1
 1277 0 l 1,423,-1
 0 0 l 1,336,-1
EndSplineSet
Validated: 8912901
EndChar

StartChar: C
Encoding: 67 67 25
Width: 1054
VWidth: 1081
Flags: W
HStem: 0 27<0 1055> 138 56<785.251 823.749> 249 55<785.251 823.749> 360 56<230.251 268.749 507.251 546.718 785.251 823.749> 471 56<230.251 268.749 507.251 546.718 785.251 823.749> 493 11<22 33 77 89 133 144 188 200 300 311 355 366 410 422 466 477 577 588 632 644 688 699 744 754 854 866 910 921 965 977 1021 1032> 582 55<230.251 268.749 507.251 546.718 785.251 823.749> 693 56<230.251 268.749> 804 55<230.251 268.749> 971 27<0 1055>
VStem: 22 11<493 504> 77 12<493 504> 133 11<493 504> 188 12<493 504> 222 55<368.282 414.937 479.251 518.718 590.282 636.436 701.282 747.937 812.282 851.749 923.282 969.937> 300 11<493 504> 355 11<493 504> 410 12<493 504> 466 11<493 504> 499 56<368.282 414.937 479.251 518.718 590.282 628.749> 577 11<493 504> 632 12<493 504> 688 11<493 504> 744 10<493 504> 777 55<35.2817 74.749 146.282 193.062 257.251 296.718 368.282 415.062 479.251 518.718 590.282 628.749> 854 12<493 504> 910 11<493 504> 965 12<493 504> 1021 11<493 504>
LayerCount: 2
Fore
SplineSet
0 971 m 1,0,-1
 0 998 l 1,1,-1
 1055 998 l 1,2,-1
 1055 971 l 1,3,-1
 250 971 l 1,4,5
 261 971 261 971 269 962 c 0,6,7
 277 954 277 954 277 943 c 128,-1,8
 277 932 277 932 269 923 c 0,9,10
 261 915 261 915 250 915 c 0,11,12
 238 915 238 915 230 923 c 128,-1,13
 222 931 222 931 222 943 c 0,14,15
 222 954 222 954 230 962 c 128,-1,16
 238 970 238 970 250 971 c 1,17,-1
 0 971 l 1,0,-1
250 804 m 0,18,19
 238 804 238 804 230 812 c 128,-1,20
 222 820 222 820 222 832 c 128,-1,21
 222 844 222 844 230 852 c 128,-1,22
 238 860 238 860 250 859 c 0,23,24
 261 859 261 859 269 852 c 0,25,26
 277 844 277 844 277 832 c 0,27,28
 277 821 277 821 269 812 c 0,29,30
 261 804 261 804 250 804 c 0,18,19
250 693 m 0,31,32
 238 693 238 693 230 701 c 128,-1,33
 222 709 222 709 222 721 c 0,34,35
 222 732 222 732 230 740 c 128,-1,36
 238 748 238 748 250 749 c 0,37,38
 261 749 261 749 269 740 c 0,39,40
 277 732 277 732 277 721 c 128,-1,41
 277 710 277 710 269 701 c 0,42,43
 261 693 261 693 250 693 c 0,31,32
804 582 m 0,44,45
 793 582 793 582 785 590 c 128,-1,46
 777 598 777 598 777 610 c 128,-1,47
 777 622 777 622 785 629 c 0,48,49
 793 637 793 637 804 637 c 0,50,51
 816 637 816 637 824 629 c 128,-1,52
 832 621 832 621 832 610 c 128,-1,53
 832 599 832 599 824 590 c 0,54,55
 816 582 816 582 804 582 c 0,44,45
527 582 m 0,56,57
 515 582 515 582 507 590 c 128,-1,58
 499 598 499 598 499 610 c 128,-1,59
 499 622 499 622 507 629 c 0,60,61
 515 637 515 637 527 637 c 0,62,63
 538 637 538 637 547 629 c 0,64,65
 555 621 555 621 555 610 c 128,-1,66
 555 599 555 599 547 590 c 0,67,68
 538 582 538 582 527 582 c 0,56,57
250 582 m 0,69,70
 238 582 238 582 230 590 c 128,-1,71
 222 598 222 598 222 610 c 128,-1,72
 222 622 222 622 230 629 c 0,73,74
 238 637 238 637 250 637 c 0,75,76
 261 637 261 637 269 629 c 128,-1,77
 277 621 277 621 277 610 c 128,-1,78
 277 599 277 599 269 590 c 0,79,80
 261 582 261 582 250 582 c 0,69,70
804 471 m 0,81,82
 793 471 793 471 785 479 c 128,-1,83
 777 487 777 487 777 499 c 0,84,85
 777 510 777 510 785 519 c 0,86,87
 793 527 793 527 804 527 c 0,88,89
 816 527 816 527 824 519 c 128,-1,90
 832 511 832 511 832 499 c 128,-1,91
 832 487 832 487 824 479 c 128,-1,92
 816 471 816 471 804 471 c 0,81,82
527 471 m 0,93,94
 515 471 515 471 507 479 c 128,-1,95
 499 487 499 487 499 499 c 0,96,97
 499 510 499 510 507 519 c 0,98,99
 515 527 515 527 527 527 c 0,100,101
 538 527 538 527 547 519 c 0,102,103
 555 511 555 511 555 499 c 128,-1,104
 555 487 555 487 547 479 c 0,105,106
 538 471 538 471 527 471 c 0,93,94
250 471 m 0,107,108
 238 471 238 471 230 479 c 128,-1,109
 222 487 222 487 222 499 c 0,110,111
 222 510 222 510 230 519 c 0,112,113
 238 527 238 527 250 527 c 0,114,115
 261 527 261 527 269 519 c 128,-1,116
 277 511 277 511 277 499 c 128,-1,117
 277 487 277 487 269 479 c 128,-1,118
 261 471 261 471 250 471 c 0,107,108
1021 493 m 1,119,-1
 1021 504 l 1,120,-1
 1032 504 l 1,121,-1
 1032 493 l 1,122,-1
 1021 493 l 1,119,-1
965 493 m 1,123,-1
 965 504 l 1,124,-1
 977 504 l 1,125,-1
 977 493 l 1,126,-1
 965 493 l 1,123,-1
910 493 m 1,127,-1
 910 504 l 1,128,-1
 921 504 l 1,129,-1
 921 493 l 1,130,-1
 910 493 l 1,127,-1
854 493 m 1,131,-1
 854 504 l 1,132,-1
 866 504 l 1,133,-1
 866 493 l 1,134,-1
 854 493 l 1,131,-1
744 493 m 1,135,-1
 744 504 l 1,136,-1
 754 504 l 1,137,-1
 754 493 l 1,138,-1
 744 493 l 1,135,-1
688 493 m 1,139,-1
 688 504 l 1,140,-1
 699 504 l 1,141,-1
 699 493 l 1,142,-1
 688 493 l 1,139,-1
632 493 m 1,143,-1
 632 504 l 1,144,-1
 644 504 l 1,145,-1
 644 493 l 1,146,-1
 632 493 l 1,143,-1
577 493 m 1,147,-1
 577 504 l 1,148,-1
 588 504 l 1,149,-1
 588 493 l 1,150,-1
 577 493 l 1,147,-1
466 493 m 1,151,-1
 466 504 l 1,152,-1
 477 504 l 1,153,-1
 477 493 l 1,154,-1
 466 493 l 1,151,-1
410 493 m 1,155,-1
 410 504 l 1,156,-1
 422 504 l 1,157,-1
 422 493 l 1,158,-1
 410 493 l 1,155,-1
355 493 m 1,159,-1
 355 504 l 1,160,-1
 366 504 l 1,161,-1
 366 493 l 1,162,-1
 355 493 l 1,159,-1
300 493 m 1,163,-1
 300 504 l 1,164,-1
 311 504 l 1,165,-1
 311 493 l 1,166,-1
 300 493 l 1,163,-1
188 493 m 1,167,-1
 188 504 l 1,168,-1
 200 504 l 1,169,-1
 200 493 l 1,170,-1
 188 493 l 1,167,-1
133 493 m 1,171,-1
 133 504 l 1,172,-1
 144 504 l 1,173,-1
 144 493 l 1,174,-1
 133 493 l 1,171,-1
77 493 m 1,175,-1
 77 504 l 1,176,-1
 89 504 l 1,177,-1
 89 493 l 1,178,-1
 77 493 l 1,175,-1
22 493 m 1,179,-1
 22 504 l 1,180,-1
 33 504 l 1,181,-1
 33 493 l 1,182,-1
 22 493 l 1,179,-1
804 360 m 0,183,184
 793 360 793 360 785 368 c 128,-1,185
 777 376 777 376 777 388 c 0,186,187
 777 399 777 399 785 407 c 128,-1,188
 793 415 793 415 804 416 c 0,189,190
 816 416 816 416 824 407 c 0,191,192
 832 399 832 399 832 388 c 128,-1,193
 832 377 832 377 824 368 c 0,194,195
 816 360 816 360 804 360 c 0,183,184
527 360 m 0,196,197
 515 360 515 360 507 368 c 128,-1,198
 499 376 499 376 499 388 c 0,199,200
 499 399 499 399 507 407 c 128,-1,201
 515 415 515 415 527 416 c 0,202,203
 538 416 538 416 547 407 c 0,204,205
 555 399 555 399 555 388 c 128,-1,206
 555 377 555 377 547 368 c 0,207,208
 538 360 538 360 527 360 c 0,196,197
250 360 m 0,209,210
 238 360 238 360 230 368 c 128,-1,211
 222 376 222 376 222 388 c 0,212,213
 222 399 222 399 230 407 c 128,-1,214
 238 415 238 415 250 416 c 0,215,216
 261 416 261 416 269 407 c 0,217,218
 277 399 277 399 277 388 c 128,-1,219
 277 377 277 377 269 368 c 0,220,221
 261 360 261 360 250 360 c 0,209,210
804 249 m 0,222,223
 793 249 793 249 785 257 c 128,-1,224
 777 265 777 265 777 277 c 0,225,226
 777 288 777 288 785 297 c 0,227,228
 793 305 793 305 804 304 c 0,229,230
 816 304 816 304 824 297 c 0,231,232
 832 289 832 289 832 277 c 128,-1,233
 832 265 832 265 824 257 c 128,-1,234
 816 249 816 249 804 249 c 0,222,223
804 138 m 0,235,236
 793 138 793 138 785 146 c 128,-1,237
 777 154 777 154 777 166 c 0,238,239
 777 177 777 177 785 185 c 128,-1,240
 793 193 793 193 804 194 c 0,241,242
 816 194 816 194 824 185 c 0,243,244
 832 177 832 177 832 166 c 128,-1,245
 832 155 832 155 824 146 c 0,246,247
 816 138 816 138 804 138 c 0,235,236
0 0 m 1,248,-1
 0 27 l 1,249,-1
 804 27 l 1,250,251
 793 27 793 27 785 35 c 128,-1,252
 777 43 777 43 777 55 c 128,-1,253
 777 67 777 67 785 75 c 128,-1,254
 793 83 793 83 804 82 c 0,255,256
 816 82 816 82 824 75 c 0,257,258
 832 67 832 67 832 55 c 0,259,260
 832 44 832 44 824 35 c 0,261,262
 816 27 816 27 804 27 c 1,263,-1
 1055 27 l 1,264,-1
 1055 0 l 1,265,-1
 0 0 l 1,248,-1
EndSplineSet
Validated: 8388613
EndChar

StartChar: D
Encoding: 68 68 26
Width: 1109
VWidth: 1081
Flags: W
HStem: 0 27<0 1110> 138 56<507.251 546.718> 249 55<563.251 601.749> 360 56<618.282 657.718> 471 56<341.251 379.718 452.251 490.749 563.251 601.749 674.251 712.749> 493 11<22 33 77 89 133 144 188 200 244 255 300 311 410 422 522 532 632 644 744 754 799 810 854 866 910 921 965 977 1021 1032 1077 1088> 582 55<722.063 768.718> 693 56<785.251 823.749> 804 55<840.282 879.749> 971 27<0 1110>
VStem: 22 11<493 504> 77 12<493 504> 133 11<493 504> 188 12<493 504> 222 55<923.282 969.937> 244 11<493 504> 300 11<493 504> 333 55<479.251 518.718 923.282 970.062> 410 12<493 504> 444 55<35.2817 74.749 479.251 518.718 923.282 969.937> 499 56<146.282 192.937> 522 10<493 504> 555 55<257.251 296.718 479.251 518.718 923.282 970.062> 610 56<368.282 414.937> 632 12<493 504> 666 55<479.251 518.718 923.282 969.937> 721 56<590.282 628.749> 744 10<493 504> 777 55<701.282 748.062 923.282 970.062> 799 11<493 504> 832 56<812.282 851.749> 854 12<493 504> 888 55<923.282 969.937> 910 11<493 504> 965 12<493 504> 1021 11<493 504> 1077 11<493 504>
LayerCount: 2
Fore
SplineSet
0 971 m 1,0,-1
 0 998 l 1,1,-1
 1110 998 l 1,2,-1
 1110 971 l 1,3,-1
 916 971 l 1,4,5
 927 971 927 971 935 962 c 0,6,7
 943 954 943 954 943 943 c 128,-1,8
 943 932 943 932 935 923 c 0,9,10
 927 915 927 915 915.5 915 c 128,-1,11
 904 915 904 915 896 923 c 128,-1,12
 888 931 888 931 888 943 c 0,13,14
 888 954 888 954 896 962 c 128,-1,15
 904 970 904 970 916 971 c 1,16,-1
 804 971 l 1,17,18
 816 971 816 971 824 962 c 0,19,20
 832 954 832 954 832 943 c 128,-1,21
 832 932 832 932 824 923 c 0,22,23
 816 915 816 915 804 915 c 0,24,25
 793 915 793 915 785 923 c 128,-1,26
 777 931 777 931 777 943 c 0,27,28
 777 954 777 954 785 962 c 128,-1,29
 793 970 793 970 804 971 c 1,30,-1
 694 971 l 1,31,32
 705 971 705 971 713 962 c 0,33,34
 721 954 721 954 721 943 c 128,-1,35
 721 932 721 932 713 923 c 0,36,37
 705 915 705 915 693.5 915 c 128,-1,38
 682 915 682 915 674 923 c 128,-1,39
 666 931 666 931 666 943 c 0,40,41
 666 954 666 954 674 962 c 128,-1,42
 682 970 682 970 694 971 c 1,43,-1
 582 971 l 1,44,45
 594 971 594 971 602 962 c 0,46,47
 610 954 610 954 610 943 c 128,-1,48
 610 932 610 932 602 923 c 0,49,50
 594 915 594 915 582 915 c 0,51,52
 571 915 571 915 563 923 c 128,-1,53
 555 931 555 931 555 943 c 0,54,55
 555 954 555 954 563 962 c 128,-1,56
 571 970 571 970 582 971 c 1,57,-1
 472 971 l 1,58,59
 483 971 483 971 491 962 c 0,60,61
 499 954 499 954 499 943 c 128,-1,62
 499 932 499 932 491 923 c 0,63,64
 483 915 483 915 472 915 c 0,65,66
 460 915 460 915 452 923 c 128,-1,67
 444 931 444 931 444 943 c 0,68,69
 444 954 444 954 452 962 c 128,-1,70
 460 970 460 970 472 971 c 1,71,-1
 360 971 l 1,72,73
 371 971 371 971 380 962 c 0,74,75
 388 954 388 954 388 943 c 128,-1,76
 388 932 388 932 380 923 c 0,77,78
 372 915 372 915 360.5 915 c 128,-1,79
 349 915 349 915 341 923 c 128,-1,80
 333 931 333 931 333 943 c 0,81,82
 333 954 333 954 341 962 c 128,-1,83
 349 970 349 970 360 971 c 1,84,-1
 250 971 l 1,85,86
 261 971 261 971 269 962 c 0,87,88
 277 954 277 954 277 943 c 128,-1,89
 277 932 277 932 269 923 c 0,90,91
 261 915 261 915 250 915 c 0,92,93
 238 915 238 915 230 923 c 128,-1,94
 222 931 222 931 222 943 c 0,95,96
 222 954 222 954 230 962 c 128,-1,97
 238 970 238 970 250 971 c 1,98,-1
 0 971 l 1,0,-1
860 804 m 0,99,100
 849 804 849 804 840 812 c 0,101,102
 832 820 832 820 832 832 c 128,-1,103
 832 844 832 844 840 852 c 128,-1,104
 848 860 848 860 860 859 c 0,105,106
 872 859 872 859 880 852 c 0,107,108
 888 844 888 844 888 832 c 0,109,110
 888 821 888 821 880 812 c 0,111,112
 872 804 872 804 860 804 c 0,99,100
804 693 m 0,113,114
 793 693 793 693 785 701 c 128,-1,115
 777 709 777 709 777 721 c 0,116,117
 777 732 777 732 785 740 c 128,-1,118
 793 748 793 748 804 749 c 0,119,120
 816 749 816 749 824 740 c 0,121,122
 832 732 832 732 832 721 c 128,-1,123
 832 710 832 710 824 701 c 0,124,125
 816 693 816 693 804 693 c 0,113,114
749 582 m 0,126,127
 737 582 737 582 730 590 c 0,128,129
 722 598 722 598 721 610 c 0,130,131
 721 622 721 622 730 629 c 0,132,133
 738 637 738 637 749 637 c 128,-1,134
 760 637 760 637 769 629 c 0,135,136
 777 621 777 621 777 610 c 128,-1,137
 777 599 777 599 769 590 c 0,138,139
 760 582 760 582 749 582 c 0,126,127
693.5 471 m 128,-1,141
 682 471 682 471 674 479 c 128,-1,142
 666 487 666 487 666 499 c 0,143,144
 666 510 666 510 674 519 c 0,145,146
 682 527 682 527 694 527 c 0,147,148
 705 527 705 527 713 519 c 128,-1,149
 721 511 721 511 721 499 c 128,-1,150
 721 487 721 487 713 479 c 128,-1,140
 705 471 705 471 693.5 471 c 128,-1,141
582 471 m 0,151,152
 571 471 571 471 563 479 c 128,-1,153
 555 487 555 487 555 499 c 0,154,155
 555 510 555 510 563 519 c 0,156,157
 571 527 571 527 582 527 c 0,158,159
 594 527 594 527 602 519 c 128,-1,160
 610 511 610 511 610 499 c 128,-1,161
 610 487 610 487 602 479 c 128,-1,162
 594 471 594 471 582 471 c 0,151,152
472 471 m 0,163,164
 460 471 460 471 452 479 c 128,-1,165
 444 487 444 487 444 499 c 0,166,167
 444 510 444 510 452 519 c 0,168,169
 460 527 460 527 472 527 c 0,170,171
 483 527 483 527 491 519 c 128,-1,172
 499 511 499 511 499 499 c 128,-1,173
 499 487 499 487 491 479 c 128,-1,174
 483 471 483 471 472 471 c 0,163,164
360.5 471 m 128,-1,176
 349 471 349 471 341 479 c 128,-1,177
 333 487 333 487 333 499 c 0,178,179
 333 510 333 510 341 519 c 0,180,181
 349 527 349 527 360 527 c 128,-1,182
 371 527 371 527 380 519 c 0,183,184
 388 511 388 511 388 499 c 128,-1,185
 388 487 388 487 380 479 c 128,-1,175
 372 471 372 471 360.5 471 c 128,-1,176
1077 493 m 1,186,-1
 1077 504 l 1,187,-1
 1088 504 l 1,188,-1
 1088 493 l 1,189,-1
 1077 493 l 1,186,-1
1021 493 m 1,190,-1
 1021 504 l 1,191,-1
 1032 504 l 1,192,-1
 1032 493 l 1,193,-1
 1021 493 l 1,190,-1
965 493 m 1,194,-1
 965 504 l 1,195,-1
 977 504 l 1,196,-1
 977 493 l 1,197,-1
 965 493 l 1,194,-1
910 493 m 1,198,-1
 910 504 l 1,199,-1
 921 504 l 1,200,-1
 921 493 l 1,201,-1
 910 493 l 1,198,-1
854 493 m 1,202,-1
 854 504 l 1,203,-1
 866 504 l 1,204,-1
 866 493 l 1,205,-1
 854 493 l 1,202,-1
799 493 m 1,206,-1
 799 504 l 1,207,-1
 810 504 l 1,208,-1
 810 493 l 1,209,-1
 799 493 l 1,206,-1
744 493 m 1,210,-1
 744 504 l 1,211,-1
 754 504 l 1,212,-1
 754 493 l 1,213,-1
 744 493 l 1,210,-1
632 493 m 1,214,-1
 632 504 l 1,215,-1
 644 504 l 1,216,-1
 644 493 l 1,217,-1
 632 493 l 1,214,-1
522 493 m 1,218,-1
 522 504 l 1,219,-1
 532 504 l 1,220,-1
 532 493 l 1,221,-1
 522 493 l 1,218,-1
410 493 m 1,222,-1
 410 504 l 1,223,-1
 422 504 l 1,224,-1
 422 493 l 1,225,-1
 410 493 l 1,222,-1
300 493 m 1,226,-1
 300 504 l 1,227,-1
 311 504 l 1,228,-1
 311 493 l 1,229,-1
 300 493 l 1,226,-1
244 493 m 1,230,-1
 244 504 l 1,231,-1
 255 504 l 1,232,-1
 255 493 l 1,233,-1
 244 493 l 1,230,-1
188 493 m 1,234,-1
 188 504 l 1,235,-1
 200 504 l 1,236,-1
 200 493 l 1,237,-1
 188 493 l 1,234,-1
133 493 m 1,238,-1
 133 504 l 1,239,-1
 144 504 l 1,240,-1
 144 493 l 1,241,-1
 133 493 l 1,238,-1
77 493 m 1,242,-1
 77 504 l 1,243,-1
 89 504 l 1,244,-1
 89 493 l 1,245,-1
 77 493 l 1,242,-1
22 493 m 1,246,-1
 22 504 l 1,247,-1
 33 504 l 1,248,-1
 33 493 l 1,249,-1
 22 493 l 1,246,-1
638 360 m 128,-1,251
 627 360 627 360 618 368 c 0,252,253
 610 376 610 376 610 388 c 0,254,255
 610 399 610 399 618 407 c 128,-1,256
 626 415 626 415 638 416 c 0,257,258
 649 416 649 416 658 407 c 0,259,260
 666 399 666 399 666 388 c 128,-1,261
 666 377 666 377 658 368 c 0,262,250
 649 360 649 360 638 360 c 128,-1,251
582 249 m 0,263,264
 571 249 571 249 563 257 c 128,-1,265
 555 265 555 265 555 277 c 0,266,267
 555 288 555 288 563 297 c 0,268,269
 571 305 571 305 582 304 c 0,270,271
 594 304 594 304 602 297 c 0,272,273
 610 289 610 289 610 277 c 128,-1,274
 610 265 610 265 602 257 c 128,-1,275
 594 249 594 249 582 249 c 0,263,264
527 138 m 0,276,277
 515 138 515 138 507 146 c 128,-1,278
 499 154 499 154 499 166 c 0,279,280
 499 177 499 177 507 185 c 128,-1,281
 515 193 515 193 527 194 c 0,282,283
 538 194 538 194 547 185 c 0,284,285
 555 177 555 177 555 166 c 128,-1,286
 555 155 555 155 547 146 c 0,287,288
 538 138 538 138 527 138 c 0,276,277
0 0 m 1,289,-1
 0 27 l 1,290,-1
 472 27 l 1,291,292
 460 27 460 27 452 35 c 128,-1,293
 444 43 444 43 444 55 c 128,-1,294
 444 67 444 67 452 75 c 128,-1,295
 460 83 460 83 472 82 c 0,296,297
 483 82 483 82 491 75 c 0,298,299
 499 67 499 67 499 55 c 0,300,301
 499 44 499 44 491 35 c 0,302,303
 483 27 483 27 472 27 c 1,304,-1
 1110 27 l 1,305,-1
 1110 0 l 1,306,-1
 0 0 l 1,289,-1
EndSplineSet
Validated: 8388613
EndChar

